; NON-PLATED HOLES START AT T1
; THROUGH (PLATED) HOLES START AT T100
M48
INCH,LZ
T100C0.038000
T101C0.031497
T102C0.032000
T103C0.038522
T104C0.041000
T105C0.035050
T106C0.035433
T107C0.035000
%
T100
X012914Y012397
X029414Y015397
X031914Y010397
X011914Y013397
X031914Y017397
X033914Y016397
X036675Y020884
X033914Y015397
X025414Y032647
X015414Y009397
X015414Y016397
X033914Y010397
X011914Y017397
X012914Y018397
X032914Y012397
X018664Y021897
X047175Y026634
X031914Y011397
X010914Y016397
X032914Y013397
X029414Y011397
X029414Y014397
X041175Y025634
X033914Y008397
X031914Y006397
X031914Y015397
X031914Y007397
X006414Y032147
X007414Y032147
X040175Y026634
X011914Y009397
X019664Y021897
X032914Y009397
X031914Y013397
X040175Y025634
X033914Y017397
X011914Y010397
X033914Y009397
X011914Y015397
X029414Y017397
X033914Y012397
X046175Y026634
X031914Y009397
X029414Y007397
X010914Y012397
X032914Y008397
X032914Y016397
X014392Y024389
X036675Y027884
X011914Y006397
X015414Y012397
X032914Y007397
X001664Y032147
X029414Y016397
X019664Y022897
X011914Y007397
X029414Y020397
X012914Y013397
X029414Y012397
X009279Y032647
X015414Y015397
X010914Y015397
X045175Y025634
X033914Y011397
X029414Y009397
X015414Y017397
X029414Y008397
X042175Y026634
X033675Y020884
X015414Y007397
X047175Y025634
X039175Y025634
X010665Y024389
X010914Y006397
X012914Y014397
X010914Y008397
X041175Y026634
X012914Y010397
X034675Y020884
X015414Y014397
X049414Y020897
X032914Y015397
X032914Y018397
X015414Y008397
X032914Y014397
X033914Y007397
X035675Y027884
X032914Y011397
X044175Y026634
X011914Y011397
X020664Y022897
X003664Y032147
X012914Y011397
X033914Y014397
X010914Y022897
X017914Y032647
X048414Y020897
X026414Y032647
X029414Y018397
X012914Y006397
X012914Y007397
X011914Y014397
X035675Y020884
X018664Y022897
X020664Y021897
X015414Y018397
X015414Y006397
X010914Y017397
X033675Y027884
X012914Y008397
X011914Y022897
X012914Y017397
X010914Y010397
X010914Y009397
X029414Y010397
X010914Y013397
X046175Y025634
X015556Y032648
X031914Y018397
X015414Y010397
X012914Y016397
X039175Y026634
X020664Y032647
X042175Y025634
X045175Y026634
X002664Y032147
X032914Y010397
X032914Y017397
X015414Y011397
X010914Y011397
X033914Y006397
X010914Y018397
X011914Y012397
X034675Y027884
X044175Y025634
X031914Y016397
X032914Y006397
X011914Y018397
X031914Y012397
X011914Y008397
X031914Y014397
X027414Y032647
X012914Y015397
X011914Y016397
X010914Y014397
X033914Y018397
X031914Y008397
X033914Y013397
X029414Y021397
X010914Y007397
X012914Y009397
X029414Y013397
X029414Y006397
X028414Y032647
X015414Y013397
T101
X037925Y031634
X043175Y031619
X039675Y031634
X041425Y031634
X039675Y030650
X037925Y030650
X041425Y030650
X043175Y030634
T102
X045175Y028634
X046175Y028634
X046175Y031634
X045175Y031634
T103
X037675Y026384
X032672Y026380
X034675Y022379
X032672Y022375
X036675Y022379
X034675Y026384
X036675Y026384
X033675Y026384
X035675Y022380
X035675Y026384
X037675Y022380
X033675Y022380
T104
X048414Y025147
X049414Y023147
X050414Y025147
T105
X017399Y005396
X027414Y016411
X027414Y004394
X017399Y017413
X017399Y013407
X027414Y006397
X017399Y012406
X017399Y008400
X027414Y017413
X017399Y011404
X017399Y006397
X027414Y013407
X027414Y018414
X027414Y014409
X027414Y005396
X027414Y012406
X017399Y015410
X017399Y010403
X027414Y007399
X027414Y009401
X027414Y008400
X017399Y018414
X017399Y007399
X017399Y016411
X017399Y014409
X027414Y015410
X017399Y004394
X017399Y009401
X027414Y010403
X027414Y011404
T106
X044414Y021397
X041855Y021397
T107
X033664Y031147
X025914Y029647
X025914Y014397
X048116Y027134
X050675Y031656
X048116Y028906
X030164Y023397
X050675Y029884
X048116Y029884
X026664Y030397
X050675Y028906
X050675Y027134
X026664Y017397
X034664Y031147
X020664Y025397
X048116Y031656
X030164Y028897
X034675Y025384
T00
M30
