G04 MADE WITH FRITZING*
G04 WWW.FRITZING.ORG*
G04 DOUBLE SIDED*
G04 HOLES PLATED*
G04 CONTOUR ON CENTER OF CONTOUR VECTOR*
%ASAXBY*%
%FSLAX23Y23*%
%MOIN*%
%OFA0B0*%
%SFA1.0B1.0*%
%ADD10C,0.088000*%
%ADD11C,0.085000*%
%ADD12C,0.109000*%
%ADD13C,0.072992*%
%ADD14C,0.084803*%
%ADD15C,0.080000*%
%ADD16C,0.062000*%
%ADD17R,0.088000X0.088000*%
%ADD18R,0.085000X0.085000*%
%ADD19R,0.109000X0.109000*%
%ADD20R,0.072992X0.072992*%
%ADD21R,0.084803X0.072992*%
%ADD22R,0.001000X0.001000*%
%LNMASK0*%
G90*
G70*
G54D10*
X1439Y2439D03*
X1067Y2439D03*
X1556Y3265D03*
X928Y3265D03*
X1791Y3265D03*
X2066Y3265D03*
X166Y3215D03*
X266Y3215D03*
X366Y3215D03*
X1191Y2290D03*
X1091Y2290D03*
X641Y3215D03*
X741Y3215D03*
G54D11*
X2066Y2540D03*
X3468Y2538D03*
G54D10*
X1866Y2290D03*
X1866Y2190D03*
X2941Y2140D03*
X2941Y2040D03*
X2066Y2290D03*
X2066Y2190D03*
X1966Y2290D03*
X1966Y2190D03*
X2541Y3265D03*
X2641Y3265D03*
X2741Y3265D03*
X2841Y3265D03*
G54D11*
X2591Y1440D03*
X2591Y2965D03*
X2666Y1740D03*
X2666Y3040D03*
X3016Y2340D03*
X3016Y2890D03*
G54D10*
X4841Y2090D03*
X4941Y2090D03*
G54D11*
X3466Y3115D03*
X3366Y3115D03*
G54D10*
X1291Y1840D03*
X1291Y1740D03*
X1291Y1640D03*
X1291Y1540D03*
X1291Y1440D03*
X1291Y1340D03*
X1291Y1240D03*
X1291Y1140D03*
X1291Y1040D03*
X1291Y940D03*
X1291Y840D03*
X1291Y740D03*
X1291Y640D03*
X1191Y1840D03*
X1191Y1740D03*
X1191Y1640D03*
X1191Y1540D03*
X1191Y1440D03*
X1191Y1340D03*
X1191Y1240D03*
X1191Y1140D03*
X1191Y1040D03*
X1191Y940D03*
X1191Y840D03*
X1191Y740D03*
X1191Y640D03*
X1091Y1840D03*
X1091Y1740D03*
X1091Y1640D03*
X1091Y1540D03*
X1091Y1440D03*
X1091Y1340D03*
X1091Y1240D03*
X1091Y1140D03*
X1091Y1040D03*
X1091Y940D03*
X1091Y840D03*
X1091Y740D03*
X1091Y640D03*
X1541Y1840D03*
X1541Y1740D03*
X1541Y1640D03*
X1541Y1540D03*
X1541Y1440D03*
X1541Y1340D03*
X1541Y1240D03*
X1541Y1140D03*
X1541Y1040D03*
X1541Y940D03*
X1541Y840D03*
X1541Y740D03*
X1541Y640D03*
X3291Y1840D03*
X3291Y1740D03*
X3291Y1640D03*
X3291Y1540D03*
X3291Y1440D03*
X3291Y1340D03*
X3291Y1240D03*
X3291Y1140D03*
X3291Y1040D03*
X3291Y940D03*
X3291Y840D03*
X3291Y740D03*
X3291Y640D03*
X3391Y1840D03*
X3391Y1740D03*
X3391Y1640D03*
X3391Y1540D03*
X3391Y1440D03*
X3391Y1340D03*
X3391Y1240D03*
X3391Y1140D03*
X3391Y1040D03*
X3391Y940D03*
X3391Y840D03*
X3391Y740D03*
X3391Y640D03*
X3191Y1840D03*
X3191Y1740D03*
X3191Y1640D03*
X3191Y1540D03*
X3191Y1440D03*
X3191Y1340D03*
X3191Y1240D03*
X3191Y1140D03*
X3191Y1040D03*
X3191Y940D03*
X3191Y840D03*
X3191Y740D03*
X3191Y640D03*
X2941Y1840D03*
X2941Y1740D03*
X2941Y1640D03*
X2941Y1540D03*
X2941Y1440D03*
X2941Y1340D03*
X2941Y1240D03*
X2941Y1140D03*
X2941Y1040D03*
X2941Y940D03*
X2941Y840D03*
X2941Y740D03*
X2941Y640D03*
G54D12*
X4841Y2515D03*
X5041Y2515D03*
X4941Y2315D03*
G54D13*
X3793Y3065D03*
X3793Y3163D03*
X3968Y3065D03*
X3968Y3163D03*
X4143Y3065D03*
X4143Y3163D03*
X4318Y3063D03*
X4318Y3162D03*
G54D11*
X5068Y2713D03*
X4812Y2713D03*
X5068Y2891D03*
X4812Y2891D03*
X5068Y2988D03*
X4812Y2988D03*
X5068Y3166D03*
X4812Y3166D03*
G54D14*
X3267Y2238D03*
X3768Y2238D03*
X3668Y2238D03*
X3568Y2238D03*
X3468Y2238D03*
X3368Y2238D03*
X3267Y2638D03*
X3768Y2638D03*
X3668Y2638D03*
X3568Y2638D03*
X3468Y2638D03*
X3368Y2638D03*
G54D15*
X4441Y2140D03*
X4186Y2140D03*
G54D10*
X3668Y2788D03*
X3568Y2788D03*
X3468Y2788D03*
X3368Y2788D03*
X3668Y2088D03*
X3568Y2088D03*
X3468Y2088D03*
X3368Y2088D03*
X3918Y2563D03*
X4018Y2563D03*
X4118Y2563D03*
X4218Y2563D03*
X3918Y2663D03*
X4018Y2663D03*
X4118Y2663D03*
X4218Y2663D03*
G54D16*
X4618Y3163D03*
X4518Y3163D03*
X4518Y2863D03*
X4618Y2863D03*
G54D10*
X4418Y2663D03*
X4518Y2663D03*
X4618Y2663D03*
X4718Y2663D03*
X4418Y2563D03*
X4518Y2563D03*
X4618Y2563D03*
X4718Y2563D03*
G54D17*
X166Y3215D03*
X1191Y2290D03*
G54D18*
X3466Y3115D03*
G54D19*
X5041Y2515D03*
G54D20*
X3793Y3065D03*
X3968Y3065D03*
X4143Y3065D03*
X4318Y3063D03*
G54D21*
X4718Y2463D03*
X4718Y2341D03*
X4618Y2463D03*
X4618Y2341D03*
X4418Y2463D03*
X4418Y2341D03*
X4518Y2463D03*
X4518Y2341D03*
X4268Y2988D03*
X4268Y2866D03*
X4143Y2988D03*
X4143Y2866D03*
X3968Y2988D03*
X3968Y2866D03*
X3841Y2990D03*
X3841Y2868D03*
G54D22*
X4512Y3220D02*
X4522Y3220D01*
X4612Y3220D02*
X4622Y3220D01*
X4508Y3219D02*
X4526Y3219D01*
X4608Y3219D02*
X4626Y3219D01*
X4505Y3218D02*
X4529Y3218D01*
X4605Y3218D02*
X4629Y3218D01*
X4503Y3217D02*
X4531Y3217D01*
X4603Y3217D02*
X4631Y3217D01*
X4502Y3216D02*
X4532Y3216D01*
X4602Y3216D02*
X4632Y3216D01*
X4500Y3215D02*
X4534Y3215D01*
X4600Y3215D02*
X4634Y3215D01*
X4499Y3214D02*
X4535Y3214D01*
X4599Y3214D02*
X4635Y3214D01*
X4497Y3213D02*
X4537Y3213D01*
X4597Y3213D02*
X4637Y3213D01*
X4496Y3212D02*
X4538Y3212D01*
X4596Y3212D02*
X4638Y3212D01*
X4495Y3211D02*
X4539Y3211D01*
X4595Y3211D02*
X4639Y3211D01*
X4494Y3210D02*
X4540Y3210D01*
X4594Y3210D02*
X4640Y3210D01*
X4493Y3209D02*
X4541Y3209D01*
X4593Y3209D02*
X4641Y3209D01*
X4493Y3208D02*
X4541Y3208D01*
X4593Y3208D02*
X4641Y3208D01*
X4492Y3207D02*
X4542Y3207D01*
X4592Y3207D02*
X4642Y3207D01*
X4491Y3206D02*
X4543Y3206D01*
X4591Y3206D02*
X4643Y3206D01*
X4491Y3205D02*
X4543Y3205D01*
X4591Y3205D02*
X4643Y3205D01*
X4490Y3204D02*
X4544Y3204D01*
X4590Y3204D02*
X4644Y3204D01*
X4490Y3203D02*
X4544Y3203D01*
X4590Y3203D02*
X4644Y3203D01*
X4489Y3202D02*
X4545Y3202D01*
X4589Y3202D02*
X4645Y3202D01*
X4489Y3201D02*
X4545Y3201D01*
X4589Y3201D02*
X4645Y3201D01*
X4488Y3200D02*
X4546Y3200D01*
X4588Y3200D02*
X4646Y3200D01*
X4488Y3199D02*
X4546Y3199D01*
X4588Y3199D02*
X4646Y3199D01*
X4488Y3198D02*
X4546Y3198D01*
X4588Y3198D02*
X4646Y3198D01*
X4487Y3197D02*
X4546Y3197D01*
X4587Y3197D02*
X4646Y3197D01*
X4487Y3196D02*
X4547Y3196D01*
X4587Y3196D02*
X4647Y3196D01*
X4487Y3195D02*
X4547Y3195D01*
X4587Y3195D02*
X4647Y3195D01*
X4487Y3194D02*
X4547Y3194D01*
X4587Y3194D02*
X4647Y3194D01*
X4487Y3193D02*
X4547Y3193D01*
X4587Y3193D02*
X4647Y3193D01*
X4487Y3192D02*
X4547Y3192D01*
X4587Y3192D02*
X4647Y3192D01*
X4487Y3191D02*
X4547Y3191D01*
X4587Y3191D02*
X4647Y3191D01*
X4487Y3190D02*
X4547Y3190D01*
X4587Y3190D02*
X4647Y3190D01*
X4486Y3189D02*
X4547Y3189D01*
X4586Y3189D02*
X4647Y3189D01*
X4486Y3188D02*
X4547Y3188D01*
X4586Y3188D02*
X4647Y3188D01*
X4486Y3187D02*
X4547Y3187D01*
X4586Y3187D02*
X4647Y3187D01*
X4486Y3186D02*
X4547Y3186D01*
X4586Y3186D02*
X4647Y3186D01*
X4486Y3185D02*
X4547Y3185D01*
X4586Y3185D02*
X4647Y3185D01*
X4486Y3184D02*
X4547Y3184D01*
X4586Y3184D02*
X4647Y3184D01*
X4486Y3183D02*
X4547Y3183D01*
X4586Y3183D02*
X4647Y3183D01*
X4486Y3182D02*
X4547Y3182D01*
X4586Y3182D02*
X4647Y3182D01*
X4486Y3181D02*
X4547Y3181D01*
X4586Y3181D02*
X4647Y3181D01*
X4486Y3180D02*
X4547Y3180D01*
X4586Y3180D02*
X4647Y3180D01*
X4486Y3179D02*
X4547Y3179D01*
X4586Y3179D02*
X4647Y3179D01*
X4486Y3178D02*
X4547Y3178D01*
X4586Y3178D02*
X4647Y3178D01*
X4486Y3177D02*
X4547Y3177D01*
X4586Y3177D02*
X4647Y3177D01*
X4486Y3176D02*
X4547Y3176D01*
X4586Y3176D02*
X4647Y3176D01*
X4486Y3175D02*
X4547Y3175D01*
X4586Y3175D02*
X4647Y3175D01*
X4486Y3174D02*
X4513Y3174D01*
X4521Y3174D02*
X4547Y3174D01*
X4586Y3174D02*
X4613Y3174D01*
X4621Y3174D02*
X4647Y3174D01*
X4486Y3173D02*
X4511Y3173D01*
X4523Y3173D02*
X4547Y3173D01*
X4586Y3173D02*
X4611Y3173D01*
X4623Y3173D02*
X4647Y3173D01*
X4486Y3172D02*
X4510Y3172D01*
X4524Y3172D02*
X4547Y3172D01*
X4586Y3172D02*
X4610Y3172D01*
X4624Y3172D02*
X4647Y3172D01*
X4486Y3171D02*
X4508Y3171D01*
X4526Y3171D02*
X4547Y3171D01*
X4586Y3171D02*
X4608Y3171D01*
X4626Y3171D02*
X4647Y3171D01*
X4486Y3170D02*
X4508Y3170D01*
X4526Y3170D02*
X4547Y3170D01*
X4586Y3170D02*
X4608Y3170D01*
X4626Y3170D02*
X4647Y3170D01*
X4486Y3169D02*
X4507Y3169D01*
X4527Y3169D02*
X4547Y3169D01*
X4586Y3169D02*
X4607Y3169D01*
X4627Y3169D02*
X4647Y3169D01*
X4486Y3168D02*
X4506Y3168D01*
X4528Y3168D02*
X4547Y3168D01*
X4586Y3168D02*
X4606Y3168D01*
X4628Y3168D02*
X4647Y3168D01*
X4486Y3167D02*
X4506Y3167D01*
X4528Y3167D02*
X4547Y3167D01*
X4586Y3167D02*
X4606Y3167D01*
X4628Y3167D02*
X4647Y3167D01*
X4486Y3166D02*
X4506Y3166D01*
X4528Y3166D02*
X4547Y3166D01*
X4586Y3166D02*
X4606Y3166D01*
X4628Y3166D02*
X4647Y3166D01*
X4486Y3165D02*
X4506Y3165D01*
X4528Y3165D02*
X4547Y3165D01*
X4586Y3165D02*
X4606Y3165D01*
X4628Y3165D02*
X4647Y3165D01*
X4486Y3164D02*
X4506Y3164D01*
X4528Y3164D02*
X4547Y3164D01*
X4586Y3164D02*
X4606Y3164D01*
X4628Y3164D02*
X4647Y3164D01*
X4486Y3163D02*
X4506Y3163D01*
X4528Y3163D02*
X4547Y3163D01*
X4586Y3163D02*
X4606Y3163D01*
X4628Y3163D02*
X4647Y3163D01*
X4486Y3162D02*
X4506Y3162D01*
X4528Y3162D02*
X4547Y3162D01*
X4586Y3162D02*
X4606Y3162D01*
X4628Y3162D02*
X4647Y3162D01*
X4486Y3161D02*
X4506Y3161D01*
X4528Y3161D02*
X4547Y3161D01*
X4586Y3161D02*
X4606Y3161D01*
X4628Y3161D02*
X4647Y3161D01*
X4486Y3160D02*
X4506Y3160D01*
X4528Y3160D02*
X4547Y3160D01*
X4586Y3160D02*
X4606Y3160D01*
X4628Y3160D02*
X4647Y3160D01*
X4486Y3159D02*
X4506Y3159D01*
X4528Y3159D02*
X4547Y3159D01*
X4586Y3159D02*
X4606Y3159D01*
X4628Y3159D02*
X4647Y3159D01*
X4486Y3158D02*
X4507Y3158D01*
X4527Y3158D02*
X4547Y3158D01*
X4586Y3158D02*
X4607Y3158D01*
X4627Y3158D02*
X4647Y3158D01*
X4486Y3157D02*
X4508Y3157D01*
X4526Y3157D02*
X4547Y3157D01*
X4586Y3157D02*
X4608Y3157D01*
X4626Y3157D02*
X4647Y3157D01*
X4486Y3156D02*
X4509Y3156D01*
X4525Y3156D02*
X4547Y3156D01*
X4586Y3156D02*
X4609Y3156D01*
X4625Y3156D02*
X4647Y3156D01*
X4486Y3155D02*
X4510Y3155D01*
X4524Y3155D02*
X4547Y3155D01*
X4586Y3155D02*
X4610Y3155D01*
X4624Y3155D02*
X4647Y3155D01*
X4486Y3154D02*
X4511Y3154D01*
X4523Y3154D02*
X4547Y3154D01*
X4586Y3154D02*
X4611Y3154D01*
X4623Y3154D02*
X4647Y3154D01*
X4486Y3153D02*
X4513Y3153D01*
X4521Y3153D02*
X4547Y3153D01*
X4586Y3153D02*
X4613Y3153D01*
X4621Y3153D02*
X4647Y3153D01*
X4486Y3152D02*
X4547Y3152D01*
X4586Y3152D02*
X4647Y3152D01*
X4486Y3151D02*
X4547Y3151D01*
X4586Y3151D02*
X4647Y3151D01*
X4486Y3150D02*
X4547Y3150D01*
X4586Y3150D02*
X4647Y3150D01*
X4486Y3149D02*
X4547Y3149D01*
X4586Y3149D02*
X4647Y3149D01*
X4486Y3148D02*
X4547Y3148D01*
X4586Y3148D02*
X4647Y3148D01*
X4486Y3147D02*
X4547Y3147D01*
X4586Y3147D02*
X4647Y3147D01*
X4486Y3146D02*
X4547Y3146D01*
X4586Y3146D02*
X4647Y3146D01*
X4486Y3145D02*
X4547Y3145D01*
X4586Y3145D02*
X4647Y3145D01*
X4486Y3144D02*
X4547Y3144D01*
X4586Y3144D02*
X4647Y3144D01*
X4486Y3143D02*
X4547Y3143D01*
X4586Y3143D02*
X4647Y3143D01*
X4486Y3142D02*
X4547Y3142D01*
X4586Y3142D02*
X4647Y3142D01*
X4486Y3141D02*
X4547Y3141D01*
X4586Y3141D02*
X4647Y3141D01*
X4486Y3140D02*
X4547Y3140D01*
X4586Y3140D02*
X4647Y3140D01*
X4486Y3139D02*
X4547Y3139D01*
X4586Y3139D02*
X4647Y3139D01*
X4486Y3138D02*
X4547Y3138D01*
X4586Y3138D02*
X4647Y3138D01*
X4487Y3137D02*
X4547Y3137D01*
X4587Y3137D02*
X4647Y3137D01*
X4487Y3136D02*
X4547Y3136D01*
X4587Y3136D02*
X4647Y3136D01*
X4487Y3135D02*
X4547Y3135D01*
X4587Y3135D02*
X4647Y3135D01*
X4487Y3134D02*
X4547Y3134D01*
X4587Y3134D02*
X4647Y3134D01*
X4487Y3133D02*
X4547Y3133D01*
X4587Y3133D02*
X4647Y3133D01*
X4487Y3132D02*
X4547Y3132D01*
X4587Y3132D02*
X4647Y3132D01*
X4487Y3131D02*
X4547Y3131D01*
X4587Y3131D02*
X4647Y3131D01*
X4488Y3130D02*
X4546Y3130D01*
X4588Y3130D02*
X4646Y3130D01*
X4488Y3129D02*
X4546Y3129D01*
X4588Y3129D02*
X4646Y3129D01*
X4488Y3128D02*
X4546Y3128D01*
X4588Y3128D02*
X4646Y3128D01*
X4488Y3127D02*
X4546Y3127D01*
X4588Y3127D02*
X4646Y3127D01*
X4489Y3126D02*
X4545Y3126D01*
X4589Y3126D02*
X4645Y3126D01*
X4489Y3125D02*
X4545Y3125D01*
X4589Y3125D02*
X4645Y3125D01*
X4490Y3124D02*
X4544Y3124D01*
X4590Y3124D02*
X4644Y3124D01*
X4490Y3123D02*
X4544Y3123D01*
X4590Y3123D02*
X4644Y3123D01*
X4491Y3122D02*
X4543Y3122D01*
X4591Y3122D02*
X4643Y3122D01*
X4491Y3121D02*
X4543Y3121D01*
X4591Y3121D02*
X4643Y3121D01*
X4492Y3120D02*
X4542Y3120D01*
X4592Y3120D02*
X4642Y3120D01*
X4493Y3119D02*
X4541Y3119D01*
X4593Y3119D02*
X4641Y3119D01*
X4493Y3118D02*
X4540Y3118D01*
X4593Y3118D02*
X4640Y3118D01*
X4494Y3117D02*
X4540Y3117D01*
X4594Y3117D02*
X4640Y3117D01*
X4495Y3116D02*
X4539Y3116D01*
X4595Y3116D02*
X4639Y3116D01*
X4496Y3115D02*
X4538Y3115D01*
X4596Y3115D02*
X4638Y3115D01*
X4497Y3114D02*
X4537Y3114D01*
X4597Y3114D02*
X4637Y3114D01*
X4499Y3113D02*
X4535Y3113D01*
X4599Y3113D02*
X4635Y3113D01*
X4500Y3112D02*
X4534Y3112D01*
X4600Y3112D02*
X4634Y3112D01*
X4502Y3111D02*
X4532Y3111D01*
X4602Y3111D02*
X4632Y3111D01*
X4504Y3110D02*
X4530Y3110D01*
X4604Y3110D02*
X4630Y3110D01*
X4506Y3109D02*
X4528Y3109D01*
X4606Y3109D02*
X4628Y3109D01*
X4508Y3108D02*
X4526Y3108D01*
X4608Y3108D02*
X4626Y3108D01*
X4513Y3107D02*
X4521Y3107D01*
X4613Y3107D02*
X4621Y3107D01*
X4512Y2920D02*
X4522Y2920D01*
X4612Y2920D02*
X4622Y2920D01*
X4508Y2919D02*
X4526Y2919D01*
X4608Y2919D02*
X4626Y2919D01*
X4505Y2918D02*
X4529Y2918D01*
X4605Y2918D02*
X4629Y2918D01*
X4503Y2917D02*
X4531Y2917D01*
X4603Y2917D02*
X4631Y2917D01*
X4501Y2916D02*
X4532Y2916D01*
X4601Y2916D02*
X4632Y2916D01*
X4500Y2915D02*
X4534Y2915D01*
X4600Y2915D02*
X4634Y2915D01*
X4498Y2914D02*
X4535Y2914D01*
X4598Y2914D02*
X4635Y2914D01*
X4497Y2913D02*
X4537Y2913D01*
X4597Y2913D02*
X4637Y2913D01*
X4496Y2912D02*
X4538Y2912D01*
X4596Y2912D02*
X4638Y2912D01*
X4495Y2911D02*
X4539Y2911D01*
X4595Y2911D02*
X4639Y2911D01*
X4494Y2910D02*
X4540Y2910D01*
X4594Y2910D02*
X4640Y2910D01*
X4493Y2909D02*
X4541Y2909D01*
X4593Y2909D02*
X4641Y2909D01*
X4493Y2908D02*
X4541Y2908D01*
X4593Y2908D02*
X4641Y2908D01*
X4492Y2907D02*
X4542Y2907D01*
X4592Y2907D02*
X4642Y2907D01*
X4491Y2906D02*
X4543Y2906D01*
X4591Y2906D02*
X4643Y2906D01*
X4491Y2905D02*
X4543Y2905D01*
X4591Y2905D02*
X4643Y2905D01*
X4490Y2904D02*
X4544Y2904D01*
X4590Y2904D02*
X4644Y2904D01*
X4490Y2903D02*
X4544Y2903D01*
X4590Y2903D02*
X4644Y2903D01*
X4489Y2902D02*
X4545Y2902D01*
X4589Y2902D02*
X4645Y2902D01*
X4489Y2901D02*
X4545Y2901D01*
X4589Y2901D02*
X4645Y2901D01*
X4488Y2900D02*
X4546Y2900D01*
X4588Y2900D02*
X4646Y2900D01*
X4488Y2899D02*
X4546Y2899D01*
X4588Y2899D02*
X4646Y2899D01*
X4488Y2898D02*
X4546Y2898D01*
X4588Y2898D02*
X4646Y2898D01*
X4487Y2897D02*
X4546Y2897D01*
X4587Y2897D02*
X4646Y2897D01*
X4487Y2896D02*
X4547Y2896D01*
X4587Y2896D02*
X4647Y2896D01*
X4487Y2895D02*
X4547Y2895D01*
X4587Y2895D02*
X4647Y2895D01*
X4487Y2894D02*
X4547Y2894D01*
X4587Y2894D02*
X4647Y2894D01*
X4487Y2893D02*
X4547Y2893D01*
X4587Y2893D02*
X4647Y2893D01*
X4487Y2892D02*
X4547Y2892D01*
X4587Y2892D02*
X4647Y2892D01*
X4487Y2891D02*
X4547Y2891D01*
X4587Y2891D02*
X4647Y2891D01*
X4487Y2890D02*
X4547Y2890D01*
X4587Y2890D02*
X4647Y2890D01*
X4486Y2889D02*
X4547Y2889D01*
X4586Y2889D02*
X4647Y2889D01*
X4486Y2888D02*
X4547Y2888D01*
X4586Y2888D02*
X4647Y2888D01*
X4486Y2887D02*
X4547Y2887D01*
X4586Y2887D02*
X4647Y2887D01*
X4486Y2886D02*
X4547Y2886D01*
X4586Y2886D02*
X4647Y2886D01*
X4486Y2885D02*
X4547Y2885D01*
X4586Y2885D02*
X4647Y2885D01*
X4486Y2884D02*
X4547Y2884D01*
X4586Y2884D02*
X4647Y2884D01*
X4486Y2883D02*
X4547Y2883D01*
X4586Y2883D02*
X4647Y2883D01*
X4486Y2882D02*
X4547Y2882D01*
X4586Y2882D02*
X4647Y2882D01*
X4486Y2881D02*
X4547Y2881D01*
X4586Y2881D02*
X4647Y2881D01*
X4486Y2880D02*
X4547Y2880D01*
X4586Y2880D02*
X4647Y2880D01*
X4486Y2879D02*
X4547Y2879D01*
X4586Y2879D02*
X4647Y2879D01*
X4486Y2878D02*
X4547Y2878D01*
X4586Y2878D02*
X4647Y2878D01*
X4486Y2877D02*
X4547Y2877D01*
X4586Y2877D02*
X4647Y2877D01*
X4486Y2876D02*
X4547Y2876D01*
X4586Y2876D02*
X4647Y2876D01*
X4486Y2875D02*
X4547Y2875D01*
X4586Y2875D02*
X4647Y2875D01*
X4486Y2874D02*
X4513Y2874D01*
X4521Y2874D02*
X4547Y2874D01*
X4586Y2874D02*
X4613Y2874D01*
X4621Y2874D02*
X4647Y2874D01*
X4486Y2873D02*
X4511Y2873D01*
X4523Y2873D02*
X4547Y2873D01*
X4586Y2873D02*
X4611Y2873D01*
X4623Y2873D02*
X4647Y2873D01*
X4486Y2872D02*
X4509Y2872D01*
X4525Y2872D02*
X4547Y2872D01*
X4586Y2872D02*
X4609Y2872D01*
X4625Y2872D02*
X4647Y2872D01*
X4486Y2871D02*
X4508Y2871D01*
X4526Y2871D02*
X4547Y2871D01*
X4586Y2871D02*
X4608Y2871D01*
X4626Y2871D02*
X4647Y2871D01*
X4486Y2870D02*
X4508Y2870D01*
X4526Y2870D02*
X4547Y2870D01*
X4586Y2870D02*
X4608Y2870D01*
X4626Y2870D02*
X4647Y2870D01*
X4486Y2869D02*
X4507Y2869D01*
X4527Y2869D02*
X4547Y2869D01*
X4586Y2869D02*
X4607Y2869D01*
X4627Y2869D02*
X4647Y2869D01*
X4486Y2868D02*
X4506Y2868D01*
X4528Y2868D02*
X4547Y2868D01*
X4586Y2868D02*
X4606Y2868D01*
X4628Y2868D02*
X4647Y2868D01*
X4486Y2867D02*
X4506Y2867D01*
X4528Y2867D02*
X4547Y2867D01*
X4586Y2867D02*
X4606Y2867D01*
X4628Y2867D02*
X4647Y2867D01*
X4486Y2866D02*
X4506Y2866D01*
X4528Y2866D02*
X4547Y2866D01*
X4586Y2866D02*
X4606Y2866D01*
X4628Y2866D02*
X4647Y2866D01*
X4486Y2865D02*
X4506Y2865D01*
X4528Y2865D02*
X4547Y2865D01*
X4586Y2865D02*
X4606Y2865D01*
X4628Y2865D02*
X4647Y2865D01*
X4486Y2864D02*
X4506Y2864D01*
X4528Y2864D02*
X4547Y2864D01*
X4586Y2864D02*
X4606Y2864D01*
X4628Y2864D02*
X4647Y2864D01*
X4486Y2863D02*
X4506Y2863D01*
X4528Y2863D02*
X4547Y2863D01*
X4586Y2863D02*
X4606Y2863D01*
X4628Y2863D02*
X4647Y2863D01*
X4486Y2862D02*
X4506Y2862D01*
X4528Y2862D02*
X4547Y2862D01*
X4586Y2862D02*
X4606Y2862D01*
X4628Y2862D02*
X4647Y2862D01*
X4486Y2861D02*
X4506Y2861D01*
X4528Y2861D02*
X4547Y2861D01*
X4586Y2861D02*
X4606Y2861D01*
X4628Y2861D02*
X4647Y2861D01*
X4486Y2860D02*
X4506Y2860D01*
X4528Y2860D02*
X4547Y2860D01*
X4586Y2860D02*
X4606Y2860D01*
X4628Y2860D02*
X4647Y2860D01*
X4486Y2859D02*
X4506Y2859D01*
X4528Y2859D02*
X4547Y2859D01*
X4586Y2859D02*
X4606Y2859D01*
X4628Y2859D02*
X4647Y2859D01*
X4486Y2858D02*
X4507Y2858D01*
X4527Y2858D02*
X4547Y2858D01*
X4586Y2858D02*
X4607Y2858D01*
X4627Y2858D02*
X4647Y2858D01*
X4486Y2857D02*
X4508Y2857D01*
X4526Y2857D02*
X4547Y2857D01*
X4586Y2857D02*
X4608Y2857D01*
X4626Y2857D02*
X4647Y2857D01*
X4486Y2856D02*
X4509Y2856D01*
X4525Y2856D02*
X4547Y2856D01*
X4586Y2856D02*
X4609Y2856D01*
X4625Y2856D02*
X4647Y2856D01*
X4486Y2855D02*
X4510Y2855D01*
X4524Y2855D02*
X4547Y2855D01*
X4586Y2855D02*
X4610Y2855D01*
X4624Y2855D02*
X4647Y2855D01*
X4486Y2854D02*
X4511Y2854D01*
X4523Y2854D02*
X4547Y2854D01*
X4586Y2854D02*
X4611Y2854D01*
X4623Y2854D02*
X4647Y2854D01*
X4486Y2853D02*
X4513Y2853D01*
X4521Y2853D02*
X4547Y2853D01*
X4586Y2853D02*
X4613Y2853D01*
X4621Y2853D02*
X4647Y2853D01*
X4486Y2852D02*
X4547Y2852D01*
X4586Y2852D02*
X4647Y2852D01*
X4486Y2851D02*
X4547Y2851D01*
X4586Y2851D02*
X4647Y2851D01*
X4486Y2850D02*
X4547Y2850D01*
X4586Y2850D02*
X4647Y2850D01*
X4486Y2849D02*
X4547Y2849D01*
X4586Y2849D02*
X4647Y2849D01*
X4486Y2848D02*
X4547Y2848D01*
X4586Y2848D02*
X4647Y2848D01*
X4486Y2847D02*
X4547Y2847D01*
X4586Y2847D02*
X4647Y2847D01*
X4486Y2846D02*
X4547Y2846D01*
X4586Y2846D02*
X4647Y2846D01*
X4486Y2845D02*
X4547Y2845D01*
X4586Y2845D02*
X4647Y2845D01*
X4486Y2844D02*
X4547Y2844D01*
X4586Y2844D02*
X4647Y2844D01*
X4486Y2843D02*
X4547Y2843D01*
X4586Y2843D02*
X4647Y2843D01*
X4486Y2842D02*
X4547Y2842D01*
X4586Y2842D02*
X4647Y2842D01*
X4486Y2841D02*
X4547Y2841D01*
X4586Y2841D02*
X4647Y2841D01*
X4486Y2840D02*
X4547Y2840D01*
X4586Y2840D02*
X4647Y2840D01*
X4486Y2839D02*
X4547Y2839D01*
X4586Y2839D02*
X4647Y2839D01*
X4486Y2838D02*
X4547Y2838D01*
X4586Y2838D02*
X4647Y2838D01*
X4487Y2837D02*
X4547Y2837D01*
X4587Y2837D02*
X4647Y2837D01*
X4487Y2836D02*
X4547Y2836D01*
X4587Y2836D02*
X4647Y2836D01*
X4487Y2835D02*
X4547Y2835D01*
X4587Y2835D02*
X4647Y2835D01*
X4487Y2834D02*
X4547Y2834D01*
X4587Y2834D02*
X4647Y2834D01*
X4487Y2833D02*
X4547Y2833D01*
X4587Y2833D02*
X4647Y2833D01*
X4487Y2832D02*
X4547Y2832D01*
X4587Y2832D02*
X4647Y2832D01*
X4487Y2831D02*
X4547Y2831D01*
X4587Y2831D02*
X4647Y2831D01*
X4488Y2830D02*
X4546Y2830D01*
X4588Y2830D02*
X4646Y2830D01*
X4488Y2829D02*
X4546Y2829D01*
X4588Y2829D02*
X4646Y2829D01*
X4488Y2828D02*
X4546Y2828D01*
X4588Y2828D02*
X4646Y2828D01*
X4488Y2827D02*
X4545Y2827D01*
X4588Y2827D02*
X4645Y2827D01*
X4489Y2826D02*
X4545Y2826D01*
X4589Y2826D02*
X4645Y2826D01*
X4489Y2825D02*
X4545Y2825D01*
X4589Y2825D02*
X4645Y2825D01*
X4490Y2824D02*
X4544Y2824D01*
X4590Y2824D02*
X4644Y2824D01*
X4490Y2823D02*
X4544Y2823D01*
X4590Y2823D02*
X4644Y2823D01*
X4491Y2822D02*
X4543Y2822D01*
X4591Y2822D02*
X4643Y2822D01*
X4491Y2821D02*
X4543Y2821D01*
X4591Y2821D02*
X4643Y2821D01*
X4492Y2820D02*
X4542Y2820D01*
X4592Y2820D02*
X4642Y2820D01*
X4493Y2819D02*
X4541Y2819D01*
X4593Y2819D02*
X4641Y2819D01*
X4494Y2818D02*
X4540Y2818D01*
X4594Y2818D02*
X4640Y2818D01*
X4494Y2817D02*
X4540Y2817D01*
X4594Y2817D02*
X4640Y2817D01*
X4495Y2816D02*
X4539Y2816D01*
X4595Y2816D02*
X4639Y2816D01*
X4496Y2815D02*
X4538Y2815D01*
X4596Y2815D02*
X4638Y2815D01*
X4497Y2814D02*
X4537Y2814D01*
X4597Y2814D02*
X4637Y2814D01*
X4499Y2813D02*
X4535Y2813D01*
X4599Y2813D02*
X4635Y2813D01*
X4500Y2812D02*
X4534Y2812D01*
X4600Y2812D02*
X4634Y2812D01*
X4502Y2811D02*
X4532Y2811D01*
X4602Y2811D02*
X4632Y2811D01*
X4504Y2810D02*
X4530Y2810D01*
X4604Y2810D02*
X4630Y2810D01*
X4506Y2809D02*
X4528Y2809D01*
X4606Y2809D02*
X4628Y2809D01*
X4509Y2808D02*
X4525Y2808D01*
X4609Y2808D02*
X4625Y2808D01*
X4513Y2807D02*
X4521Y2807D01*
X4613Y2807D02*
X4621Y2807D01*
X1732Y1883D02*
X1746Y1883D01*
X2734Y1883D02*
X2748Y1883D01*
X1728Y1882D02*
X1751Y1882D01*
X2730Y1882D02*
X2752Y1882D01*
X1725Y1881D02*
X1754Y1881D01*
X2726Y1881D02*
X2755Y1881D01*
X1723Y1880D02*
X1756Y1880D01*
X2724Y1880D02*
X2758Y1880D01*
X1721Y1879D02*
X1758Y1879D01*
X2722Y1879D02*
X2760Y1879D01*
X1719Y1878D02*
X1760Y1878D01*
X2720Y1878D02*
X2761Y1878D01*
X1717Y1877D02*
X1762Y1877D01*
X2719Y1877D02*
X2763Y1877D01*
X1716Y1876D02*
X1763Y1876D01*
X2717Y1876D02*
X2765Y1876D01*
X1714Y1875D02*
X1764Y1875D01*
X2716Y1875D02*
X2766Y1875D01*
X1713Y1874D02*
X1766Y1874D01*
X2714Y1874D02*
X2767Y1874D01*
X1712Y1873D02*
X1767Y1873D01*
X2713Y1873D02*
X2768Y1873D01*
X1711Y1872D02*
X1768Y1872D01*
X2712Y1872D02*
X2769Y1872D01*
X1710Y1871D02*
X1769Y1871D01*
X2711Y1871D02*
X2770Y1871D01*
X1709Y1870D02*
X1770Y1870D01*
X2710Y1870D02*
X2771Y1870D01*
X1708Y1869D02*
X1771Y1869D01*
X2709Y1869D02*
X2772Y1869D01*
X1707Y1868D02*
X1772Y1868D01*
X2709Y1868D02*
X2773Y1868D01*
X1706Y1867D02*
X1772Y1867D01*
X2708Y1867D02*
X2774Y1867D01*
X1706Y1866D02*
X1773Y1866D01*
X2707Y1866D02*
X2775Y1866D01*
X1705Y1865D02*
X1774Y1865D01*
X2706Y1865D02*
X2775Y1865D01*
X1704Y1864D02*
X1774Y1864D01*
X2706Y1864D02*
X2776Y1864D01*
X1704Y1863D02*
X1775Y1863D01*
X2705Y1863D02*
X2777Y1863D01*
X1703Y1862D02*
X1776Y1862D01*
X2705Y1862D02*
X2777Y1862D01*
X1703Y1861D02*
X1776Y1861D01*
X2704Y1861D02*
X2778Y1861D01*
X1702Y1860D02*
X1777Y1860D01*
X2704Y1860D02*
X2778Y1860D01*
X1702Y1859D02*
X1777Y1859D01*
X2703Y1859D02*
X2779Y1859D01*
X1701Y1858D02*
X1778Y1858D01*
X2703Y1858D02*
X2779Y1858D01*
X1701Y1857D02*
X1778Y1857D01*
X2702Y1857D02*
X2779Y1857D01*
X1700Y1856D02*
X1778Y1856D01*
X2702Y1856D02*
X2780Y1856D01*
X1700Y1855D02*
X1779Y1855D01*
X2702Y1855D02*
X2780Y1855D01*
X1700Y1854D02*
X1779Y1854D01*
X2701Y1854D02*
X2781Y1854D01*
X1700Y1853D02*
X1779Y1853D01*
X2701Y1853D02*
X2781Y1853D01*
X1699Y1852D02*
X1780Y1852D01*
X2701Y1852D02*
X2781Y1852D01*
X1699Y1851D02*
X1780Y1851D01*
X2700Y1851D02*
X2781Y1851D01*
X1699Y1850D02*
X1780Y1850D01*
X2700Y1850D02*
X2781Y1850D01*
X1699Y1849D02*
X1780Y1849D01*
X2700Y1849D02*
X2782Y1849D01*
X1698Y1848D02*
X1780Y1848D01*
X2700Y1848D02*
X2782Y1848D01*
X1698Y1847D02*
X1781Y1847D01*
X2700Y1847D02*
X2782Y1847D01*
X1698Y1846D02*
X1781Y1846D01*
X2700Y1846D02*
X2782Y1846D01*
X1698Y1845D02*
X1781Y1845D01*
X2699Y1845D02*
X2782Y1845D01*
X1698Y1844D02*
X1781Y1844D01*
X2699Y1844D02*
X2782Y1844D01*
X1698Y1843D02*
X1781Y1843D01*
X2699Y1843D02*
X2782Y1843D01*
X1698Y1842D02*
X1781Y1842D01*
X2699Y1842D02*
X2782Y1842D01*
X1698Y1841D02*
X1781Y1841D01*
X2699Y1841D02*
X2782Y1841D01*
X1698Y1840D02*
X1781Y1840D01*
X2699Y1840D02*
X2782Y1840D01*
X1698Y1839D02*
X1781Y1839D01*
X2699Y1839D02*
X2782Y1839D01*
X1698Y1838D02*
X1781Y1838D01*
X2700Y1838D02*
X2782Y1838D01*
X1698Y1837D02*
X1781Y1837D01*
X2700Y1837D02*
X2782Y1837D01*
X1698Y1836D02*
X1780Y1836D01*
X2700Y1836D02*
X2782Y1836D01*
X1699Y1835D02*
X1780Y1835D01*
X2700Y1835D02*
X2782Y1835D01*
X1699Y1834D02*
X1780Y1834D01*
X2700Y1834D02*
X2782Y1834D01*
X1699Y1833D02*
X1780Y1833D01*
X2700Y1833D02*
X2781Y1833D01*
X1699Y1832D02*
X1780Y1832D01*
X2701Y1832D02*
X2781Y1832D01*
X1699Y1831D02*
X1779Y1831D01*
X2701Y1831D02*
X2781Y1831D01*
X1700Y1830D02*
X1779Y1830D01*
X2701Y1830D02*
X2781Y1830D01*
X1700Y1829D02*
X1779Y1829D01*
X2701Y1829D02*
X2780Y1829D01*
X1700Y1828D02*
X1779Y1828D01*
X2702Y1828D02*
X2780Y1828D01*
X1701Y1827D02*
X1778Y1827D01*
X2702Y1827D02*
X2780Y1827D01*
X1701Y1826D02*
X1778Y1826D01*
X2702Y1826D02*
X2779Y1826D01*
X1701Y1825D02*
X1777Y1825D01*
X2703Y1825D02*
X2779Y1825D01*
X1702Y1824D02*
X1777Y1824D01*
X2703Y1824D02*
X2778Y1824D01*
X1702Y1823D02*
X1777Y1823D01*
X2704Y1823D02*
X2778Y1823D01*
X1703Y1822D02*
X1776Y1822D01*
X2704Y1822D02*
X2777Y1822D01*
X1703Y1821D02*
X1775Y1821D01*
X2705Y1821D02*
X2777Y1821D01*
X1704Y1820D02*
X1775Y1820D01*
X2705Y1820D02*
X2776Y1820D01*
X1705Y1819D02*
X1774Y1819D01*
X2706Y1819D02*
X2776Y1819D01*
X1705Y1818D02*
X1774Y1818D01*
X2707Y1818D02*
X2775Y1818D01*
X1706Y1817D02*
X1773Y1817D01*
X2707Y1817D02*
X2774Y1817D01*
X1707Y1816D02*
X1772Y1816D01*
X2708Y1816D02*
X2773Y1816D01*
X1708Y1815D02*
X1771Y1815D01*
X2709Y1815D02*
X2773Y1815D01*
X1708Y1814D02*
X1770Y1814D01*
X2710Y1814D02*
X2772Y1814D01*
X1709Y1813D02*
X1770Y1813D01*
X2711Y1813D02*
X2771Y1813D01*
X1710Y1812D02*
X1769Y1812D01*
X2712Y1812D02*
X2770Y1812D01*
X1711Y1811D02*
X1768Y1811D01*
X2713Y1811D02*
X2769Y1811D01*
X1712Y1810D02*
X1766Y1810D01*
X2714Y1810D02*
X2768Y1810D01*
X1714Y1809D02*
X1765Y1809D01*
X2715Y1809D02*
X2767Y1809D01*
X1715Y1808D02*
X1764Y1808D01*
X2716Y1808D02*
X2765Y1808D01*
X1716Y1807D02*
X1763Y1807D01*
X2718Y1807D02*
X2764Y1807D01*
X1718Y1806D02*
X1761Y1806D01*
X2719Y1806D02*
X2762Y1806D01*
X1720Y1805D02*
X1759Y1805D01*
X2721Y1805D02*
X2761Y1805D01*
X1722Y1804D02*
X1757Y1804D01*
X2723Y1804D02*
X2759Y1804D01*
X1724Y1803D02*
X1755Y1803D01*
X2725Y1803D02*
X2757Y1803D01*
X1726Y1802D02*
X1753Y1802D01*
X2728Y1802D02*
X2754Y1802D01*
X1730Y1801D02*
X1749Y1801D01*
X2731Y1801D02*
X2750Y1801D01*
X1735Y1800D02*
X1744Y1800D01*
X2737Y1800D02*
X2745Y1800D01*
X1733Y1783D02*
X1746Y1783D01*
X2735Y1783D02*
X2747Y1783D01*
X1729Y1782D02*
X1750Y1782D01*
X2730Y1782D02*
X2752Y1782D01*
X1725Y1781D02*
X1753Y1781D01*
X2727Y1781D02*
X2755Y1781D01*
X1723Y1780D02*
X1756Y1780D01*
X2724Y1780D02*
X2757Y1780D01*
X1721Y1779D02*
X1758Y1779D01*
X2722Y1779D02*
X2759Y1779D01*
X1719Y1778D02*
X1760Y1778D01*
X2720Y1778D02*
X2761Y1778D01*
X1717Y1777D02*
X1761Y1777D01*
X2719Y1777D02*
X2763Y1777D01*
X1716Y1776D02*
X1763Y1776D01*
X2717Y1776D02*
X2764Y1776D01*
X1715Y1775D02*
X1764Y1775D01*
X2716Y1775D02*
X2766Y1775D01*
X1713Y1774D02*
X1766Y1774D01*
X2715Y1774D02*
X2767Y1774D01*
X1712Y1773D02*
X1767Y1773D01*
X2713Y1773D02*
X2768Y1773D01*
X1711Y1772D02*
X1768Y1772D01*
X2712Y1772D02*
X2769Y1772D01*
X1710Y1771D02*
X1769Y1771D01*
X2711Y1771D02*
X2770Y1771D01*
X1709Y1770D02*
X1770Y1770D01*
X2710Y1770D02*
X2771Y1770D01*
X1708Y1769D02*
X1771Y1769D01*
X2710Y1769D02*
X2772Y1769D01*
X1707Y1768D02*
X1772Y1768D01*
X2709Y1768D02*
X2773Y1768D01*
X1707Y1767D02*
X1772Y1767D01*
X2708Y1767D02*
X2774Y1767D01*
X1706Y1766D02*
X1773Y1766D01*
X2707Y1766D02*
X2774Y1766D01*
X1705Y1765D02*
X1774Y1765D01*
X2707Y1765D02*
X2775Y1765D01*
X1704Y1764D02*
X1774Y1764D01*
X2706Y1764D02*
X2776Y1764D01*
X1704Y1763D02*
X1775Y1763D01*
X2705Y1763D02*
X2776Y1763D01*
X1703Y1762D02*
X1776Y1762D01*
X2705Y1762D02*
X2777Y1762D01*
X1703Y1761D02*
X1776Y1761D01*
X2704Y1761D02*
X2778Y1761D01*
X1702Y1760D02*
X1777Y1760D01*
X2704Y1760D02*
X2778Y1760D01*
X1702Y1759D02*
X1777Y1759D01*
X2703Y1759D02*
X2779Y1759D01*
X1701Y1758D02*
X1778Y1758D01*
X2703Y1758D02*
X2779Y1758D01*
X1701Y1757D02*
X1778Y1757D01*
X2702Y1757D02*
X2779Y1757D01*
X1700Y1756D02*
X1778Y1756D01*
X2702Y1756D02*
X2780Y1756D01*
X1700Y1755D02*
X1779Y1755D01*
X2702Y1755D02*
X2780Y1755D01*
X1700Y1754D02*
X1779Y1754D01*
X2701Y1754D02*
X2780Y1754D01*
X1700Y1753D02*
X1779Y1753D01*
X2701Y1753D02*
X2781Y1753D01*
X1699Y1752D02*
X1780Y1752D01*
X2701Y1752D02*
X2781Y1752D01*
X1699Y1751D02*
X1780Y1751D01*
X2700Y1751D02*
X2781Y1751D01*
X1699Y1750D02*
X1780Y1750D01*
X2700Y1750D02*
X2781Y1750D01*
X1699Y1749D02*
X1780Y1749D01*
X2700Y1749D02*
X2782Y1749D01*
X1698Y1748D02*
X1780Y1748D01*
X2700Y1748D02*
X2782Y1748D01*
X1698Y1747D02*
X1781Y1747D01*
X2700Y1747D02*
X2782Y1747D01*
X1698Y1746D02*
X1781Y1746D01*
X2700Y1746D02*
X2782Y1746D01*
X1698Y1745D02*
X1781Y1745D01*
X2699Y1745D02*
X2782Y1745D01*
X1698Y1744D02*
X1781Y1744D01*
X2699Y1744D02*
X2782Y1744D01*
X1698Y1743D02*
X1781Y1743D01*
X2699Y1743D02*
X2782Y1743D01*
X1698Y1742D02*
X1781Y1742D01*
X2699Y1742D02*
X2782Y1742D01*
X1698Y1741D02*
X1781Y1741D01*
X2699Y1741D02*
X2782Y1741D01*
X1698Y1740D02*
X1781Y1740D01*
X2699Y1740D02*
X2782Y1740D01*
X1698Y1739D02*
X1781Y1739D01*
X2699Y1739D02*
X2782Y1739D01*
X1698Y1738D02*
X1781Y1738D01*
X2700Y1738D02*
X2782Y1738D01*
X1698Y1737D02*
X1781Y1737D01*
X2700Y1737D02*
X2782Y1737D01*
X1698Y1736D02*
X1781Y1736D01*
X2700Y1736D02*
X2782Y1736D01*
X1699Y1735D02*
X1780Y1735D01*
X2700Y1735D02*
X2782Y1735D01*
X1699Y1734D02*
X1780Y1734D01*
X2700Y1734D02*
X2782Y1734D01*
X1699Y1733D02*
X1780Y1733D01*
X2700Y1733D02*
X2781Y1733D01*
X1699Y1732D02*
X1780Y1732D01*
X2701Y1732D02*
X2781Y1732D01*
X1699Y1731D02*
X1780Y1731D01*
X2701Y1731D02*
X2781Y1731D01*
X1700Y1730D02*
X1779Y1730D01*
X2701Y1730D02*
X2781Y1730D01*
X1700Y1729D02*
X1779Y1729D01*
X2701Y1729D02*
X2780Y1729D01*
X1700Y1728D02*
X1779Y1728D01*
X2702Y1728D02*
X2780Y1728D01*
X1701Y1727D02*
X1778Y1727D01*
X2702Y1727D02*
X2780Y1727D01*
X1701Y1726D02*
X1778Y1726D01*
X2702Y1726D02*
X2779Y1726D01*
X1701Y1725D02*
X1778Y1725D01*
X2703Y1725D02*
X2779Y1725D01*
X1702Y1724D02*
X1777Y1724D01*
X2703Y1724D02*
X2778Y1724D01*
X1702Y1723D02*
X1777Y1723D01*
X2704Y1723D02*
X2778Y1723D01*
X1703Y1722D02*
X1776Y1722D01*
X2704Y1722D02*
X2777Y1722D01*
X1703Y1721D02*
X1776Y1721D01*
X2705Y1721D02*
X2777Y1721D01*
X1704Y1720D02*
X1775Y1720D01*
X2705Y1720D02*
X2776Y1720D01*
X1705Y1719D02*
X1774Y1719D01*
X2706Y1719D02*
X2776Y1719D01*
X1705Y1718D02*
X1774Y1718D01*
X2707Y1718D02*
X2775Y1718D01*
X1706Y1717D02*
X1773Y1717D01*
X2707Y1717D02*
X2774Y1717D01*
X1707Y1716D02*
X1772Y1716D01*
X2708Y1716D02*
X2774Y1716D01*
X1707Y1715D02*
X1771Y1715D01*
X2709Y1715D02*
X2773Y1715D01*
X1708Y1714D02*
X1771Y1714D01*
X2710Y1714D02*
X2772Y1714D01*
X1709Y1713D02*
X1770Y1713D01*
X2711Y1713D02*
X2771Y1713D01*
X1710Y1712D02*
X1769Y1712D01*
X2712Y1712D02*
X2770Y1712D01*
X1711Y1711D02*
X1768Y1711D01*
X2713Y1711D02*
X2769Y1711D01*
X1712Y1710D02*
X1767Y1710D01*
X2714Y1710D02*
X2768Y1710D01*
X1713Y1709D02*
X1765Y1709D01*
X2715Y1709D02*
X2767Y1709D01*
X1715Y1708D02*
X1764Y1708D01*
X2716Y1708D02*
X2765Y1708D01*
X1716Y1707D02*
X1763Y1707D01*
X2718Y1707D02*
X2764Y1707D01*
X1718Y1706D02*
X1761Y1706D01*
X2719Y1706D02*
X2763Y1706D01*
X1719Y1705D02*
X1759Y1705D01*
X2721Y1705D02*
X2761Y1705D01*
X1721Y1704D02*
X1758Y1704D01*
X2723Y1704D02*
X2759Y1704D01*
X1723Y1703D02*
X1756Y1703D01*
X2725Y1703D02*
X2757Y1703D01*
X1726Y1702D02*
X1753Y1702D01*
X2727Y1702D02*
X2754Y1702D01*
X1729Y1701D02*
X1749Y1701D01*
X2731Y1701D02*
X2751Y1701D01*
X1734Y1700D02*
X1744Y1700D01*
X2736Y1700D02*
X2746Y1700D01*
X1734Y1683D02*
X1745Y1683D01*
X2735Y1683D02*
X2746Y1683D01*
X1729Y1682D02*
X1750Y1682D01*
X2731Y1682D02*
X2751Y1682D01*
X1726Y1681D02*
X1753Y1681D01*
X2727Y1681D02*
X2754Y1681D01*
X1723Y1680D02*
X1756Y1680D01*
X2725Y1680D02*
X2757Y1680D01*
X1721Y1679D02*
X1758Y1679D01*
X2723Y1679D02*
X2759Y1679D01*
X1719Y1678D02*
X1760Y1678D01*
X2721Y1678D02*
X2761Y1678D01*
X1718Y1677D02*
X1761Y1677D01*
X2719Y1677D02*
X2763Y1677D01*
X1716Y1676D02*
X1763Y1676D01*
X2717Y1676D02*
X2764Y1676D01*
X1715Y1675D02*
X1764Y1675D01*
X2716Y1675D02*
X2766Y1675D01*
X1713Y1674D02*
X1765Y1674D01*
X2715Y1674D02*
X2767Y1674D01*
X1712Y1673D02*
X1767Y1673D01*
X2714Y1673D02*
X2768Y1673D01*
X1711Y1672D02*
X1768Y1672D01*
X2712Y1672D02*
X2769Y1672D01*
X1710Y1671D02*
X1769Y1671D01*
X2711Y1671D02*
X2770Y1671D01*
X1709Y1670D02*
X1770Y1670D01*
X2711Y1670D02*
X2771Y1670D01*
X1708Y1669D02*
X1771Y1669D01*
X2710Y1669D02*
X2772Y1669D01*
X1707Y1668D02*
X1771Y1668D01*
X2709Y1668D02*
X2773Y1668D01*
X1707Y1667D02*
X1772Y1667D01*
X2708Y1667D02*
X2774Y1667D01*
X1706Y1666D02*
X1773Y1666D01*
X2707Y1666D02*
X2774Y1666D01*
X1705Y1665D02*
X1774Y1665D01*
X2707Y1665D02*
X2775Y1665D01*
X1705Y1664D02*
X1774Y1664D01*
X2706Y1664D02*
X2776Y1664D01*
X1704Y1663D02*
X1775Y1663D01*
X2705Y1663D02*
X2776Y1663D01*
X1703Y1662D02*
X1776Y1662D01*
X2705Y1662D02*
X2777Y1662D01*
X1703Y1661D02*
X1776Y1661D01*
X2704Y1661D02*
X2778Y1661D01*
X1702Y1660D02*
X1777Y1660D01*
X2704Y1660D02*
X2778Y1660D01*
X1702Y1659D02*
X1777Y1659D01*
X2703Y1659D02*
X2779Y1659D01*
X1701Y1658D02*
X1778Y1658D01*
X2703Y1658D02*
X2779Y1658D01*
X1701Y1657D02*
X1778Y1657D01*
X2702Y1657D02*
X2779Y1657D01*
X1701Y1656D02*
X1778Y1656D01*
X2702Y1656D02*
X2780Y1656D01*
X1700Y1655D02*
X1779Y1655D01*
X2702Y1655D02*
X2780Y1655D01*
X1700Y1654D02*
X1779Y1654D01*
X2701Y1654D02*
X2780Y1654D01*
X1700Y1653D02*
X1779Y1653D01*
X2701Y1653D02*
X2781Y1653D01*
X1699Y1652D02*
X1780Y1652D01*
X2701Y1652D02*
X2781Y1652D01*
X1699Y1651D02*
X1780Y1651D01*
X2700Y1651D02*
X2781Y1651D01*
X1699Y1650D02*
X1780Y1650D01*
X2700Y1650D02*
X2781Y1650D01*
X1699Y1649D02*
X1780Y1649D01*
X2700Y1649D02*
X2782Y1649D01*
X1698Y1648D02*
X1780Y1648D01*
X2700Y1648D02*
X2782Y1648D01*
X1698Y1647D02*
X1781Y1647D01*
X2700Y1647D02*
X2782Y1647D01*
X1698Y1646D02*
X1781Y1646D01*
X2700Y1646D02*
X2782Y1646D01*
X1698Y1645D02*
X1781Y1645D01*
X2700Y1645D02*
X2782Y1645D01*
X1698Y1644D02*
X1781Y1644D01*
X2699Y1644D02*
X2782Y1644D01*
X1698Y1643D02*
X1781Y1643D01*
X2699Y1643D02*
X2782Y1643D01*
X1698Y1642D02*
X1781Y1642D01*
X2699Y1642D02*
X2782Y1642D01*
X1698Y1641D02*
X1781Y1641D01*
X2699Y1641D02*
X2782Y1641D01*
X1698Y1640D02*
X1781Y1640D01*
X2699Y1640D02*
X2782Y1640D01*
X1698Y1639D02*
X1781Y1639D01*
X2699Y1639D02*
X2782Y1639D01*
X1698Y1638D02*
X1781Y1638D01*
X2699Y1638D02*
X2782Y1638D01*
X1698Y1637D02*
X1781Y1637D01*
X2700Y1637D02*
X2782Y1637D01*
X1698Y1636D02*
X1781Y1636D01*
X2700Y1636D02*
X2782Y1636D01*
X1698Y1635D02*
X1780Y1635D01*
X2700Y1635D02*
X2782Y1635D01*
X1699Y1634D02*
X1780Y1634D01*
X2700Y1634D02*
X2782Y1634D01*
X1699Y1633D02*
X1780Y1633D01*
X2700Y1633D02*
X2781Y1633D01*
X1699Y1632D02*
X1780Y1632D01*
X2700Y1632D02*
X2781Y1632D01*
X1699Y1631D02*
X1780Y1631D01*
X2701Y1631D02*
X2781Y1631D01*
X1700Y1630D02*
X1779Y1630D01*
X2701Y1630D02*
X2781Y1630D01*
X1700Y1629D02*
X1779Y1629D01*
X2701Y1629D02*
X2780Y1629D01*
X1700Y1628D02*
X1779Y1628D01*
X2702Y1628D02*
X2780Y1628D01*
X1701Y1627D02*
X1778Y1627D01*
X2702Y1627D02*
X2780Y1627D01*
X1701Y1626D02*
X1778Y1626D01*
X2702Y1626D02*
X2779Y1626D01*
X1701Y1625D02*
X1778Y1625D01*
X2703Y1625D02*
X2779Y1625D01*
X1702Y1624D02*
X1777Y1624D01*
X2703Y1624D02*
X2779Y1624D01*
X1702Y1623D02*
X1777Y1623D01*
X2704Y1623D02*
X2778Y1623D01*
X1703Y1622D02*
X1776Y1622D01*
X2704Y1622D02*
X2778Y1622D01*
X1703Y1621D02*
X1776Y1621D01*
X2705Y1621D02*
X2777Y1621D01*
X1704Y1620D02*
X1775Y1620D01*
X2705Y1620D02*
X2776Y1620D01*
X1704Y1619D02*
X1774Y1619D01*
X2706Y1619D02*
X2776Y1619D01*
X1705Y1618D02*
X1774Y1618D01*
X2707Y1618D02*
X2775Y1618D01*
X1706Y1617D02*
X1773Y1617D01*
X2707Y1617D02*
X2774Y1617D01*
X1707Y1616D02*
X1772Y1616D01*
X2708Y1616D02*
X2774Y1616D01*
X1707Y1615D02*
X1772Y1615D01*
X2709Y1615D02*
X2773Y1615D01*
X1708Y1614D02*
X1771Y1614D01*
X2710Y1614D02*
X2772Y1614D01*
X1709Y1613D02*
X1770Y1613D01*
X2710Y1613D02*
X2771Y1613D01*
X1710Y1612D02*
X1769Y1612D01*
X2711Y1612D02*
X2770Y1612D01*
X1711Y1611D02*
X1768Y1611D01*
X2712Y1611D02*
X2769Y1611D01*
X1712Y1610D02*
X1767Y1610D01*
X2714Y1610D02*
X2768Y1610D01*
X1713Y1609D02*
X1766Y1609D01*
X2715Y1609D02*
X2767Y1609D01*
X1715Y1608D02*
X1764Y1608D01*
X2716Y1608D02*
X2766Y1608D01*
X1716Y1607D02*
X1763Y1607D01*
X2717Y1607D02*
X2764Y1607D01*
X1718Y1606D02*
X1761Y1606D01*
X2719Y1606D02*
X2763Y1606D01*
X1719Y1605D02*
X1760Y1605D01*
X2721Y1605D02*
X2761Y1605D01*
X1721Y1604D02*
X1758Y1604D01*
X2722Y1604D02*
X2759Y1604D01*
X1723Y1603D02*
X1756Y1603D01*
X2724Y1603D02*
X2757Y1603D01*
X1726Y1602D02*
X1753Y1602D01*
X2727Y1602D02*
X2755Y1602D01*
X1729Y1601D02*
X1750Y1601D01*
X2730Y1601D02*
X2751Y1601D01*
X1734Y1600D02*
X1745Y1600D01*
X2735Y1600D02*
X2747Y1600D01*
X1735Y1583D02*
X1744Y1583D01*
X2736Y1583D02*
X2745Y1583D01*
X1730Y1582D02*
X1749Y1582D01*
X2731Y1582D02*
X2751Y1582D01*
X1726Y1581D02*
X1753Y1581D01*
X2728Y1581D02*
X2754Y1581D01*
X1723Y1580D02*
X1755Y1580D01*
X2725Y1580D02*
X2757Y1580D01*
X1721Y1579D02*
X1757Y1579D01*
X2723Y1579D02*
X2759Y1579D01*
X1719Y1578D02*
X1759Y1578D01*
X2721Y1578D02*
X2761Y1578D01*
X1718Y1577D02*
X1761Y1577D01*
X2719Y1577D02*
X2762Y1577D01*
X1716Y1576D02*
X1763Y1576D01*
X2718Y1576D02*
X2764Y1576D01*
X1715Y1575D02*
X1764Y1575D01*
X2716Y1575D02*
X2765Y1575D01*
X1714Y1574D02*
X1765Y1574D01*
X2715Y1574D02*
X2767Y1574D01*
X1712Y1573D02*
X1766Y1573D01*
X2714Y1573D02*
X2768Y1573D01*
X1711Y1572D02*
X1768Y1572D01*
X2713Y1572D02*
X2769Y1572D01*
X1710Y1571D02*
X1769Y1571D01*
X2712Y1571D02*
X2770Y1571D01*
X1709Y1570D02*
X1770Y1570D01*
X2711Y1570D02*
X2771Y1570D01*
X1708Y1569D02*
X1771Y1569D01*
X2710Y1569D02*
X2772Y1569D01*
X1707Y1568D02*
X1771Y1568D01*
X2709Y1568D02*
X2773Y1568D01*
X1707Y1567D02*
X1772Y1567D01*
X2708Y1567D02*
X2774Y1567D01*
X1706Y1566D02*
X1773Y1566D01*
X2707Y1566D02*
X2774Y1566D01*
X1705Y1565D02*
X1774Y1565D01*
X2707Y1565D02*
X2775Y1565D01*
X1705Y1564D02*
X1774Y1564D01*
X2706Y1564D02*
X2776Y1564D01*
X1704Y1563D02*
X1775Y1563D01*
X2705Y1563D02*
X2776Y1563D01*
X1703Y1562D02*
X1775Y1562D01*
X2705Y1562D02*
X2777Y1562D01*
X1703Y1561D02*
X1776Y1561D01*
X2704Y1561D02*
X2777Y1561D01*
X1702Y1560D02*
X1777Y1560D01*
X2704Y1560D02*
X2778Y1560D01*
X1702Y1559D02*
X1777Y1559D01*
X2703Y1559D02*
X2778Y1559D01*
X1701Y1558D02*
X1778Y1558D01*
X2703Y1558D02*
X2779Y1558D01*
X1701Y1557D02*
X1778Y1557D01*
X2702Y1557D02*
X2779Y1557D01*
X1701Y1556D02*
X1778Y1556D01*
X2702Y1556D02*
X2780Y1556D01*
X1700Y1555D02*
X1779Y1555D01*
X2702Y1555D02*
X2780Y1555D01*
X1700Y1554D02*
X1779Y1554D01*
X2701Y1554D02*
X2780Y1554D01*
X1700Y1553D02*
X1779Y1553D01*
X2701Y1553D02*
X2781Y1553D01*
X1699Y1552D02*
X1779Y1552D01*
X2701Y1552D02*
X2781Y1552D01*
X1699Y1551D02*
X1780Y1551D01*
X2701Y1551D02*
X2781Y1551D01*
X1699Y1550D02*
X1780Y1550D01*
X2700Y1550D02*
X2781Y1550D01*
X1699Y1549D02*
X1780Y1549D01*
X2700Y1549D02*
X2782Y1549D01*
X1699Y1548D02*
X1780Y1548D01*
X2700Y1548D02*
X2782Y1548D01*
X1698Y1547D02*
X1780Y1547D01*
X2700Y1547D02*
X2782Y1547D01*
X1698Y1546D02*
X1781Y1546D01*
X2700Y1546D02*
X2782Y1546D01*
X1698Y1545D02*
X1781Y1545D01*
X2700Y1545D02*
X2782Y1545D01*
X1698Y1544D02*
X1781Y1544D01*
X2699Y1544D02*
X2782Y1544D01*
X1698Y1543D02*
X1781Y1543D01*
X2699Y1543D02*
X2782Y1543D01*
X1698Y1542D02*
X1781Y1542D01*
X2699Y1542D02*
X2782Y1542D01*
X1698Y1541D02*
X1781Y1541D01*
X2699Y1541D02*
X2782Y1541D01*
X1698Y1540D02*
X1781Y1540D01*
X2699Y1540D02*
X2782Y1540D01*
X1698Y1539D02*
X1781Y1539D01*
X2699Y1539D02*
X2782Y1539D01*
X1698Y1538D02*
X1781Y1538D01*
X2699Y1538D02*
X2782Y1538D01*
X1698Y1537D02*
X1781Y1537D01*
X2700Y1537D02*
X2782Y1537D01*
X1698Y1536D02*
X1781Y1536D01*
X2700Y1536D02*
X2782Y1536D01*
X1698Y1535D02*
X1780Y1535D01*
X2700Y1535D02*
X2782Y1535D01*
X1699Y1534D02*
X1780Y1534D01*
X2700Y1534D02*
X2782Y1534D01*
X1699Y1533D02*
X1780Y1533D01*
X2700Y1533D02*
X2781Y1533D01*
X1699Y1532D02*
X1780Y1532D01*
X2700Y1532D02*
X2781Y1532D01*
X1699Y1531D02*
X1780Y1531D01*
X2701Y1531D02*
X2781Y1531D01*
X1700Y1530D02*
X1779Y1530D01*
X2701Y1530D02*
X2781Y1530D01*
X1700Y1529D02*
X1779Y1529D01*
X2701Y1529D02*
X2780Y1529D01*
X1700Y1528D02*
X1779Y1528D01*
X2702Y1528D02*
X2780Y1528D01*
X1700Y1527D02*
X1778Y1527D01*
X2702Y1527D02*
X2780Y1527D01*
X1701Y1526D02*
X1778Y1526D01*
X2702Y1526D02*
X2779Y1526D01*
X1701Y1525D02*
X1778Y1525D01*
X2703Y1525D02*
X2779Y1525D01*
X1702Y1524D02*
X1777Y1524D01*
X2703Y1524D02*
X2779Y1524D01*
X1702Y1523D02*
X1777Y1523D01*
X2704Y1523D02*
X2778Y1523D01*
X1703Y1522D02*
X1776Y1522D01*
X2704Y1522D02*
X2778Y1522D01*
X1703Y1521D02*
X1776Y1521D01*
X2705Y1521D02*
X2777Y1521D01*
X1704Y1520D02*
X1775Y1520D01*
X2705Y1520D02*
X2776Y1520D01*
X1704Y1519D02*
X1774Y1519D01*
X2706Y1519D02*
X2776Y1519D01*
X1705Y1518D02*
X1774Y1518D01*
X2706Y1518D02*
X2775Y1518D01*
X1706Y1517D02*
X1773Y1517D01*
X2707Y1517D02*
X2775Y1517D01*
X1706Y1516D02*
X1772Y1516D01*
X2708Y1516D02*
X2774Y1516D01*
X1707Y1515D02*
X1772Y1515D01*
X2709Y1515D02*
X2773Y1515D01*
X1708Y1514D02*
X1771Y1514D01*
X2709Y1514D02*
X2772Y1514D01*
X1709Y1513D02*
X1770Y1513D01*
X2710Y1513D02*
X2771Y1513D01*
X1710Y1512D02*
X1769Y1512D01*
X2711Y1512D02*
X2770Y1512D01*
X1711Y1511D02*
X1768Y1511D01*
X2712Y1511D02*
X2769Y1511D01*
X1712Y1510D02*
X1767Y1510D01*
X2713Y1510D02*
X2768Y1510D01*
X1713Y1509D02*
X1766Y1509D01*
X2715Y1509D02*
X2767Y1509D01*
X1714Y1508D02*
X1764Y1508D01*
X2716Y1508D02*
X2766Y1508D01*
X1716Y1507D02*
X1763Y1507D01*
X2717Y1507D02*
X2764Y1507D01*
X1717Y1506D02*
X1762Y1506D01*
X2719Y1506D02*
X2763Y1506D01*
X1719Y1505D02*
X1760Y1505D01*
X2720Y1505D02*
X2761Y1505D01*
X1721Y1504D02*
X1758Y1504D01*
X2722Y1504D02*
X2760Y1504D01*
X1723Y1503D02*
X1756Y1503D01*
X2724Y1503D02*
X2758Y1503D01*
X1725Y1502D02*
X1754Y1502D01*
X2727Y1502D02*
X2755Y1502D01*
X1728Y1501D02*
X1751Y1501D01*
X2730Y1501D02*
X2752Y1501D01*
X1733Y1500D02*
X1746Y1500D01*
X2734Y1500D02*
X2747Y1500D01*
X1736Y1483D02*
X1743Y1483D01*
X2737Y1483D02*
X2745Y1483D01*
X1730Y1482D02*
X1749Y1482D01*
X2732Y1482D02*
X2750Y1482D01*
X1726Y1481D02*
X1752Y1481D01*
X2728Y1481D02*
X2754Y1481D01*
X1724Y1480D02*
X1755Y1480D01*
X2725Y1480D02*
X2757Y1480D01*
X1722Y1479D02*
X1757Y1479D01*
X2723Y1479D02*
X2759Y1479D01*
X1720Y1478D02*
X1759Y1478D01*
X2721Y1478D02*
X2761Y1478D01*
X1718Y1477D02*
X1761Y1477D01*
X2719Y1477D02*
X2762Y1477D01*
X1716Y1476D02*
X1762Y1476D01*
X2718Y1476D02*
X2764Y1476D01*
X1715Y1475D02*
X1764Y1475D01*
X2716Y1475D02*
X2765Y1475D01*
X1714Y1474D02*
X1765Y1474D01*
X2715Y1474D02*
X2767Y1474D01*
X1712Y1473D02*
X1766Y1473D01*
X2714Y1473D02*
X2768Y1473D01*
X1711Y1472D02*
X1767Y1472D01*
X2713Y1472D02*
X2769Y1472D01*
X1710Y1471D02*
X1769Y1471D01*
X2712Y1471D02*
X2770Y1471D01*
X1709Y1470D02*
X1769Y1470D01*
X2711Y1470D02*
X2771Y1470D01*
X1708Y1469D02*
X1770Y1469D01*
X2710Y1469D02*
X2772Y1469D01*
X1708Y1468D02*
X1771Y1468D01*
X2709Y1468D02*
X2773Y1468D01*
X1707Y1467D02*
X1772Y1467D01*
X2708Y1467D02*
X2773Y1467D01*
X1706Y1466D02*
X1773Y1466D01*
X2708Y1466D02*
X2774Y1466D01*
X1705Y1465D02*
X1774Y1465D01*
X2707Y1465D02*
X2775Y1465D01*
X1705Y1464D02*
X1774Y1464D01*
X2706Y1464D02*
X2776Y1464D01*
X1704Y1463D02*
X1775Y1463D01*
X2706Y1463D02*
X2776Y1463D01*
X1703Y1462D02*
X1775Y1462D01*
X2705Y1462D02*
X2777Y1462D01*
X1703Y1461D02*
X1776Y1461D01*
X2704Y1461D02*
X2777Y1461D01*
X1702Y1460D02*
X1776Y1460D01*
X2704Y1460D02*
X2778Y1460D01*
X1702Y1459D02*
X1777Y1459D01*
X2703Y1459D02*
X2778Y1459D01*
X1701Y1458D02*
X1777Y1458D01*
X2703Y1458D02*
X2779Y1458D01*
X1701Y1457D02*
X1778Y1457D01*
X2702Y1457D02*
X2779Y1457D01*
X1701Y1456D02*
X1778Y1456D01*
X2702Y1456D02*
X2780Y1456D01*
X1700Y1455D02*
X1779Y1455D01*
X2702Y1455D02*
X2780Y1455D01*
X1700Y1454D02*
X1779Y1454D01*
X2701Y1454D02*
X2780Y1454D01*
X1700Y1453D02*
X1779Y1453D01*
X2701Y1453D02*
X2781Y1453D01*
X1699Y1452D02*
X1779Y1452D01*
X2701Y1452D02*
X2781Y1452D01*
X1699Y1451D02*
X1780Y1451D01*
X2701Y1451D02*
X2781Y1451D01*
X1699Y1450D02*
X1780Y1450D01*
X2700Y1450D02*
X2781Y1450D01*
X1699Y1449D02*
X1780Y1449D01*
X2700Y1449D02*
X2782Y1449D01*
X1699Y1448D02*
X1780Y1448D01*
X2700Y1448D02*
X2782Y1448D01*
X1698Y1447D02*
X1780Y1447D01*
X2700Y1447D02*
X2782Y1447D01*
X1698Y1446D02*
X1781Y1446D01*
X2700Y1446D02*
X2782Y1446D01*
X1698Y1445D02*
X1781Y1445D01*
X2700Y1445D02*
X2782Y1445D01*
X1698Y1444D02*
X1781Y1444D01*
X2699Y1444D02*
X2782Y1444D01*
X1698Y1443D02*
X1781Y1443D01*
X2699Y1443D02*
X2782Y1443D01*
X1698Y1442D02*
X1781Y1442D01*
X2699Y1442D02*
X2782Y1442D01*
X1698Y1441D02*
X1781Y1441D01*
X2699Y1441D02*
X2782Y1441D01*
X1698Y1440D02*
X1781Y1440D01*
X2699Y1440D02*
X2782Y1440D01*
X1698Y1439D02*
X1781Y1439D01*
X2699Y1439D02*
X2782Y1439D01*
X1698Y1438D02*
X1781Y1438D01*
X2699Y1438D02*
X2782Y1438D01*
X1698Y1437D02*
X1781Y1437D01*
X2700Y1437D02*
X2782Y1437D01*
X1698Y1436D02*
X1781Y1436D01*
X2700Y1436D02*
X2782Y1436D01*
X1698Y1435D02*
X1780Y1435D01*
X2700Y1435D02*
X2782Y1435D01*
X1699Y1434D02*
X1780Y1434D01*
X2700Y1434D02*
X2782Y1434D01*
X1699Y1433D02*
X1780Y1433D01*
X2700Y1433D02*
X2782Y1433D01*
X1699Y1432D02*
X1780Y1432D01*
X2700Y1432D02*
X2781Y1432D01*
X1699Y1431D02*
X1780Y1431D01*
X2701Y1431D02*
X2781Y1431D01*
X1699Y1430D02*
X1779Y1430D01*
X2701Y1430D02*
X2781Y1430D01*
X1700Y1429D02*
X1779Y1429D01*
X2701Y1429D02*
X2781Y1429D01*
X1700Y1428D02*
X1779Y1428D01*
X2701Y1428D02*
X2780Y1428D01*
X1700Y1427D02*
X1778Y1427D01*
X2702Y1427D02*
X2780Y1427D01*
X1701Y1426D02*
X1778Y1426D01*
X2702Y1426D02*
X2780Y1426D01*
X1701Y1425D02*
X1778Y1425D01*
X2703Y1425D02*
X2779Y1425D01*
X1702Y1424D02*
X1777Y1424D01*
X2703Y1424D02*
X2779Y1424D01*
X1702Y1423D02*
X1777Y1423D01*
X2704Y1423D02*
X2778Y1423D01*
X1703Y1422D02*
X1776Y1422D01*
X2704Y1422D02*
X2778Y1422D01*
X1703Y1421D02*
X1776Y1421D01*
X2705Y1421D02*
X2777Y1421D01*
X1704Y1420D02*
X1775Y1420D01*
X2705Y1420D02*
X2777Y1420D01*
X1704Y1419D02*
X1775Y1419D01*
X2706Y1419D02*
X2776Y1419D01*
X1705Y1418D02*
X1774Y1418D01*
X2706Y1418D02*
X2775Y1418D01*
X1706Y1417D02*
X1773Y1417D01*
X2707Y1417D02*
X2775Y1417D01*
X1706Y1416D02*
X1772Y1416D01*
X2708Y1416D02*
X2774Y1416D01*
X1707Y1415D02*
X1772Y1415D01*
X2709Y1415D02*
X2773Y1415D01*
X1708Y1414D02*
X1771Y1414D01*
X2709Y1414D02*
X2772Y1414D01*
X1709Y1413D02*
X1770Y1413D01*
X2710Y1413D02*
X2771Y1413D01*
X1710Y1412D02*
X1769Y1412D01*
X2711Y1412D02*
X2771Y1412D01*
X1711Y1411D02*
X1768Y1411D01*
X2712Y1411D02*
X2770Y1411D01*
X1712Y1410D02*
X1767Y1410D01*
X2713Y1410D02*
X2768Y1410D01*
X1713Y1409D02*
X1766Y1409D01*
X2714Y1409D02*
X2767Y1409D01*
X1714Y1408D02*
X1765Y1408D01*
X2716Y1408D02*
X2766Y1408D01*
X1716Y1407D02*
X1763Y1407D01*
X2717Y1407D02*
X2765Y1407D01*
X1717Y1406D02*
X1762Y1406D01*
X2719Y1406D02*
X2763Y1406D01*
X1719Y1405D02*
X1760Y1405D01*
X2720Y1405D02*
X2762Y1405D01*
X1720Y1404D02*
X1758Y1404D01*
X2722Y1404D02*
X2760Y1404D01*
X1722Y1403D02*
X1756Y1403D01*
X2724Y1403D02*
X2758Y1403D01*
X1725Y1402D02*
X1754Y1402D01*
X2726Y1402D02*
X2755Y1402D01*
X1728Y1401D02*
X1751Y1401D01*
X2729Y1401D02*
X2752Y1401D01*
X1732Y1400D02*
X1747Y1400D01*
X2733Y1400D02*
X2748Y1400D01*
X1738Y1383D02*
X1741Y1383D01*
X2739Y1383D02*
X2743Y1383D01*
X1731Y1382D02*
X1748Y1382D01*
X2732Y1382D02*
X2750Y1382D01*
X1727Y1381D02*
X1752Y1381D01*
X2728Y1381D02*
X2753Y1381D01*
X1724Y1380D02*
X1755Y1380D01*
X2725Y1380D02*
X2756Y1380D01*
X1722Y1379D02*
X1757Y1379D01*
X2723Y1379D02*
X2758Y1379D01*
X1720Y1378D02*
X1759Y1378D01*
X2721Y1378D02*
X2760Y1378D01*
X1718Y1377D02*
X1761Y1377D01*
X2720Y1377D02*
X2762Y1377D01*
X1717Y1376D02*
X1762Y1376D01*
X2718Y1376D02*
X2764Y1376D01*
X1715Y1375D02*
X1764Y1375D01*
X2717Y1375D02*
X2765Y1375D01*
X1714Y1374D02*
X1765Y1374D01*
X2715Y1374D02*
X2766Y1374D01*
X1713Y1373D02*
X1766Y1373D01*
X2714Y1373D02*
X2768Y1373D01*
X1712Y1372D02*
X1767Y1372D01*
X2713Y1372D02*
X2769Y1372D01*
X1710Y1371D02*
X1768Y1371D01*
X2712Y1371D02*
X2770Y1371D01*
X1709Y1370D02*
X1769Y1370D01*
X2711Y1370D02*
X2771Y1370D01*
X1709Y1369D02*
X1770Y1369D01*
X2710Y1369D02*
X2772Y1369D01*
X1708Y1368D02*
X1771Y1368D01*
X2709Y1368D02*
X2773Y1368D01*
X1707Y1367D02*
X1772Y1367D01*
X2708Y1367D02*
X2773Y1367D01*
X1706Y1366D02*
X1773Y1366D01*
X2708Y1366D02*
X2774Y1366D01*
X1705Y1365D02*
X1773Y1365D01*
X2707Y1365D02*
X2775Y1365D01*
X1705Y1364D02*
X1774Y1364D01*
X2706Y1364D02*
X2776Y1364D01*
X1704Y1363D02*
X1775Y1363D01*
X2706Y1363D02*
X2776Y1363D01*
X1704Y1362D02*
X1775Y1362D01*
X2705Y1362D02*
X2777Y1362D01*
X1703Y1361D02*
X1776Y1361D01*
X2704Y1361D02*
X2777Y1361D01*
X1702Y1360D02*
X1776Y1360D01*
X2704Y1360D02*
X2778Y1360D01*
X1702Y1359D02*
X1777Y1359D01*
X2703Y1359D02*
X2778Y1359D01*
X1701Y1358D02*
X1777Y1358D01*
X2703Y1358D02*
X2779Y1358D01*
X1701Y1357D02*
X1778Y1357D01*
X2702Y1357D02*
X2779Y1357D01*
X1701Y1356D02*
X1778Y1356D01*
X2702Y1356D02*
X2780Y1356D01*
X1700Y1355D02*
X1779Y1355D01*
X2702Y1355D02*
X2780Y1355D01*
X1700Y1354D02*
X1779Y1354D01*
X2701Y1354D02*
X2780Y1354D01*
X1700Y1353D02*
X1779Y1353D01*
X2701Y1353D02*
X2781Y1353D01*
X1699Y1352D02*
X1779Y1352D01*
X2701Y1352D02*
X2781Y1352D01*
X1699Y1351D02*
X1780Y1351D01*
X2701Y1351D02*
X2781Y1351D01*
X1699Y1350D02*
X1780Y1350D01*
X2700Y1350D02*
X2781Y1350D01*
X1699Y1349D02*
X1780Y1349D01*
X2700Y1349D02*
X2782Y1349D01*
X1699Y1348D02*
X1780Y1348D01*
X2700Y1348D02*
X2782Y1348D01*
X1698Y1347D02*
X1780Y1347D01*
X2700Y1347D02*
X2782Y1347D01*
X1698Y1346D02*
X1781Y1346D01*
X2700Y1346D02*
X2782Y1346D01*
X1698Y1345D02*
X1781Y1345D01*
X2700Y1345D02*
X2782Y1345D01*
X1698Y1344D02*
X1781Y1344D01*
X2699Y1344D02*
X2782Y1344D01*
X1698Y1343D02*
X1781Y1343D01*
X2699Y1343D02*
X2782Y1343D01*
X1698Y1342D02*
X1781Y1342D01*
X2699Y1342D02*
X2782Y1342D01*
X1698Y1341D02*
X1781Y1341D01*
X2699Y1341D02*
X2782Y1341D01*
X1698Y1340D02*
X1781Y1340D01*
X2699Y1340D02*
X2782Y1340D01*
X1698Y1339D02*
X1781Y1339D01*
X2699Y1339D02*
X2782Y1339D01*
X1698Y1338D02*
X1781Y1338D01*
X2699Y1338D02*
X2782Y1338D01*
X1698Y1337D02*
X1781Y1337D01*
X2700Y1337D02*
X2782Y1337D01*
X1698Y1336D02*
X1781Y1336D01*
X2700Y1336D02*
X2782Y1336D01*
X1698Y1335D02*
X1780Y1335D01*
X2700Y1335D02*
X2782Y1335D01*
X1699Y1334D02*
X1780Y1334D01*
X2700Y1334D02*
X2782Y1334D01*
X1699Y1333D02*
X1780Y1333D01*
X2700Y1333D02*
X2782Y1333D01*
X1699Y1332D02*
X1780Y1332D01*
X2700Y1332D02*
X2781Y1332D01*
X1699Y1331D02*
X1780Y1331D01*
X2701Y1331D02*
X2781Y1331D01*
X1699Y1330D02*
X1779Y1330D01*
X2701Y1330D02*
X2781Y1330D01*
X1700Y1329D02*
X1779Y1329D01*
X2701Y1329D02*
X2781Y1329D01*
X1700Y1328D02*
X1779Y1328D01*
X2701Y1328D02*
X2780Y1328D01*
X1700Y1327D02*
X1778Y1327D01*
X2702Y1327D02*
X2780Y1327D01*
X1701Y1326D02*
X1778Y1326D01*
X2702Y1326D02*
X2780Y1326D01*
X1701Y1325D02*
X1778Y1325D01*
X2703Y1325D02*
X2779Y1325D01*
X1702Y1324D02*
X1777Y1324D01*
X2703Y1324D02*
X2779Y1324D01*
X1702Y1323D02*
X1777Y1323D01*
X2703Y1323D02*
X2778Y1323D01*
X1703Y1322D02*
X1776Y1322D01*
X2704Y1322D02*
X2778Y1322D01*
X1703Y1321D02*
X1776Y1321D01*
X2704Y1321D02*
X2777Y1321D01*
X1704Y1320D02*
X1775Y1320D01*
X2705Y1320D02*
X2777Y1320D01*
X1704Y1319D02*
X1775Y1319D01*
X2706Y1319D02*
X2776Y1319D01*
X1705Y1318D02*
X1774Y1318D01*
X2706Y1318D02*
X2775Y1318D01*
X1706Y1317D02*
X1773Y1317D01*
X2707Y1317D02*
X2775Y1317D01*
X1706Y1316D02*
X1773Y1316D01*
X2708Y1316D02*
X2774Y1316D01*
X1707Y1315D02*
X1772Y1315D01*
X2708Y1315D02*
X2773Y1315D01*
X1708Y1314D02*
X1771Y1314D01*
X2709Y1314D02*
X2772Y1314D01*
X1709Y1313D02*
X1770Y1313D01*
X2710Y1313D02*
X2772Y1313D01*
X1710Y1312D02*
X1769Y1312D01*
X2711Y1312D02*
X2771Y1312D01*
X1711Y1311D02*
X1768Y1311D01*
X2712Y1311D02*
X2770Y1311D01*
X1712Y1310D02*
X1767Y1310D01*
X2713Y1310D02*
X2769Y1310D01*
X1713Y1309D02*
X1766Y1309D01*
X2714Y1309D02*
X2767Y1309D01*
X1714Y1308D02*
X1765Y1308D01*
X2716Y1308D02*
X2766Y1308D01*
X1715Y1307D02*
X1763Y1307D01*
X2717Y1307D02*
X2765Y1307D01*
X1717Y1306D02*
X1762Y1306D01*
X2718Y1306D02*
X2763Y1306D01*
X1719Y1305D02*
X1760Y1305D01*
X2720Y1305D02*
X2762Y1305D01*
X1720Y1304D02*
X1759Y1304D01*
X2722Y1304D02*
X2760Y1304D01*
X1722Y1303D02*
X1757Y1303D01*
X2724Y1303D02*
X2758Y1303D01*
X1725Y1302D02*
X1754Y1302D01*
X2726Y1302D02*
X2756Y1302D01*
X1727Y1301D02*
X1752Y1301D01*
X2729Y1301D02*
X2753Y1301D01*
X1731Y1300D02*
X1748Y1300D01*
X2733Y1300D02*
X2749Y1300D01*
X1731Y1282D02*
X1748Y1282D01*
X2733Y1282D02*
X2749Y1282D01*
X1727Y1281D02*
X1752Y1281D01*
X2729Y1281D02*
X2753Y1281D01*
X1724Y1280D02*
X1754Y1280D01*
X2726Y1280D02*
X2756Y1280D01*
X1722Y1279D02*
X1757Y1279D01*
X2724Y1279D02*
X2758Y1279D01*
X1720Y1278D02*
X1759Y1278D01*
X2722Y1278D02*
X2760Y1278D01*
X1718Y1277D02*
X1760Y1277D01*
X2720Y1277D02*
X2762Y1277D01*
X1717Y1276D02*
X1762Y1276D01*
X2718Y1276D02*
X2763Y1276D01*
X1715Y1275D02*
X1763Y1275D01*
X2717Y1275D02*
X2765Y1275D01*
X1714Y1274D02*
X1765Y1274D01*
X2715Y1274D02*
X2766Y1274D01*
X1713Y1273D02*
X1766Y1273D01*
X2714Y1273D02*
X2767Y1273D01*
X1712Y1272D02*
X1767Y1272D01*
X2713Y1272D02*
X2769Y1272D01*
X1711Y1271D02*
X1768Y1271D01*
X2712Y1271D02*
X2770Y1271D01*
X1710Y1270D02*
X1769Y1270D01*
X2711Y1270D02*
X2771Y1270D01*
X1709Y1269D02*
X1770Y1269D01*
X2710Y1269D02*
X2772Y1269D01*
X1708Y1268D02*
X1771Y1268D01*
X2709Y1268D02*
X2772Y1268D01*
X1707Y1267D02*
X1772Y1267D01*
X2708Y1267D02*
X2773Y1267D01*
X1706Y1266D02*
X1773Y1266D01*
X2708Y1266D02*
X2774Y1266D01*
X1706Y1265D02*
X1773Y1265D01*
X2707Y1265D02*
X2775Y1265D01*
X1705Y1264D02*
X1774Y1264D01*
X2706Y1264D02*
X2775Y1264D01*
X1704Y1263D02*
X1775Y1263D01*
X2706Y1263D02*
X2776Y1263D01*
X1704Y1262D02*
X1775Y1262D01*
X2705Y1262D02*
X2777Y1262D01*
X1703Y1261D02*
X1776Y1261D01*
X2704Y1261D02*
X2777Y1261D01*
X1703Y1260D02*
X1776Y1260D01*
X2704Y1260D02*
X2778Y1260D01*
X1702Y1259D02*
X1777Y1259D01*
X2703Y1259D02*
X2778Y1259D01*
X1702Y1258D02*
X1777Y1258D01*
X2703Y1258D02*
X2779Y1258D01*
X1701Y1257D02*
X1778Y1257D01*
X2702Y1257D02*
X2779Y1257D01*
X1701Y1256D02*
X1778Y1256D01*
X2702Y1256D02*
X2780Y1256D01*
X1700Y1255D02*
X1778Y1255D01*
X2702Y1255D02*
X2780Y1255D01*
X1700Y1254D02*
X1779Y1254D01*
X2701Y1254D02*
X2780Y1254D01*
X1700Y1253D02*
X1779Y1253D01*
X2701Y1253D02*
X2781Y1253D01*
X1699Y1252D02*
X1779Y1252D01*
X2701Y1252D02*
X2781Y1252D01*
X1699Y1251D02*
X1780Y1251D01*
X2701Y1251D02*
X2781Y1251D01*
X1699Y1250D02*
X1780Y1250D01*
X2700Y1250D02*
X2781Y1250D01*
X1699Y1249D02*
X1780Y1249D01*
X2700Y1249D02*
X2782Y1249D01*
X1699Y1248D02*
X1780Y1248D01*
X2700Y1248D02*
X2782Y1248D01*
X1698Y1247D02*
X1780Y1247D01*
X2700Y1247D02*
X2782Y1247D01*
X1698Y1246D02*
X1781Y1246D01*
X2700Y1246D02*
X2782Y1246D01*
X1698Y1245D02*
X1781Y1245D01*
X2700Y1245D02*
X2782Y1245D01*
X1698Y1244D02*
X1781Y1244D01*
X2699Y1244D02*
X2782Y1244D01*
X1698Y1243D02*
X1781Y1243D01*
X2699Y1243D02*
X2782Y1243D01*
X1698Y1242D02*
X1781Y1242D01*
X2699Y1242D02*
X2782Y1242D01*
X1698Y1241D02*
X1781Y1241D01*
X2699Y1241D02*
X2782Y1241D01*
X1698Y1240D02*
X1781Y1240D01*
X2699Y1240D02*
X2782Y1240D01*
X1698Y1239D02*
X1781Y1239D01*
X2699Y1239D02*
X2782Y1239D01*
X1698Y1238D02*
X1781Y1238D01*
X2699Y1238D02*
X2782Y1238D01*
X1698Y1237D02*
X1781Y1237D01*
X2700Y1237D02*
X2782Y1237D01*
X1698Y1236D02*
X1781Y1236D01*
X2700Y1236D02*
X2782Y1236D01*
X1698Y1235D02*
X1780Y1235D01*
X2700Y1235D02*
X2782Y1235D01*
X1699Y1234D02*
X1780Y1234D01*
X2700Y1234D02*
X2782Y1234D01*
X1699Y1233D02*
X1780Y1233D01*
X2700Y1233D02*
X2782Y1233D01*
X1699Y1232D02*
X1780Y1232D01*
X2700Y1232D02*
X2781Y1232D01*
X1699Y1231D02*
X1780Y1231D01*
X2701Y1231D02*
X2781Y1231D01*
X1699Y1230D02*
X1779Y1230D01*
X2701Y1230D02*
X2781Y1230D01*
X1700Y1229D02*
X1779Y1229D01*
X2701Y1229D02*
X2781Y1229D01*
X1700Y1228D02*
X1779Y1228D01*
X2701Y1228D02*
X2780Y1228D01*
X1700Y1227D02*
X1779Y1227D01*
X2702Y1227D02*
X2780Y1227D01*
X1701Y1226D02*
X1778Y1226D01*
X2702Y1226D02*
X2780Y1226D01*
X1701Y1225D02*
X1778Y1225D01*
X2702Y1225D02*
X2779Y1225D01*
X1701Y1224D02*
X1777Y1224D01*
X2703Y1224D02*
X2779Y1224D01*
X1702Y1223D02*
X1777Y1223D01*
X2703Y1223D02*
X2778Y1223D01*
X1702Y1222D02*
X1776Y1222D01*
X2704Y1222D02*
X2778Y1222D01*
X1703Y1221D02*
X1776Y1221D01*
X2704Y1221D02*
X2777Y1221D01*
X1704Y1220D02*
X1775Y1220D01*
X2705Y1220D02*
X2777Y1220D01*
X1704Y1219D02*
X1775Y1219D01*
X2706Y1219D02*
X2776Y1219D01*
X1705Y1218D02*
X1774Y1218D01*
X2706Y1218D02*
X2775Y1218D01*
X1705Y1217D02*
X1773Y1217D01*
X2707Y1217D02*
X2775Y1217D01*
X1706Y1216D02*
X1773Y1216D01*
X2708Y1216D02*
X2774Y1216D01*
X1707Y1215D02*
X1772Y1215D01*
X2708Y1215D02*
X2773Y1215D01*
X1708Y1214D02*
X1771Y1214D01*
X2709Y1214D02*
X2773Y1214D01*
X1709Y1213D02*
X1770Y1213D01*
X2710Y1213D02*
X2772Y1213D01*
X1709Y1212D02*
X1769Y1212D01*
X2711Y1212D02*
X2771Y1212D01*
X1710Y1211D02*
X1768Y1211D01*
X2712Y1211D02*
X2770Y1211D01*
X1712Y1210D02*
X1767Y1210D01*
X2713Y1210D02*
X2769Y1210D01*
X1713Y1209D02*
X1766Y1209D01*
X2714Y1209D02*
X2768Y1209D01*
X1714Y1208D02*
X1765Y1208D01*
X2715Y1208D02*
X2766Y1208D01*
X1715Y1207D02*
X1764Y1207D01*
X2717Y1207D02*
X2765Y1207D01*
X1717Y1206D02*
X1762Y1206D01*
X2718Y1206D02*
X2764Y1206D01*
X1718Y1205D02*
X1761Y1205D01*
X2720Y1205D02*
X2762Y1205D01*
X1720Y1204D02*
X1759Y1204D01*
X2721Y1204D02*
X2760Y1204D01*
X1722Y1203D02*
X1757Y1203D01*
X2723Y1203D02*
X2758Y1203D01*
X1724Y1202D02*
X1755Y1202D01*
X2726Y1202D02*
X2756Y1202D01*
X1727Y1201D02*
X1752Y1201D01*
X2728Y1201D02*
X2753Y1201D01*
X1731Y1200D02*
X1748Y1200D01*
X2732Y1200D02*
X2750Y1200D01*
X1738Y1199D02*
X1741Y1199D01*
X2740Y1199D02*
X2742Y1199D01*
X1732Y1182D02*
X1747Y1182D01*
X2733Y1182D02*
X2748Y1182D01*
X1728Y1181D02*
X1751Y1181D01*
X2729Y1181D02*
X2753Y1181D01*
X1725Y1180D02*
X1754Y1180D01*
X2726Y1180D02*
X2755Y1180D01*
X1722Y1179D02*
X1756Y1179D01*
X2724Y1179D02*
X2758Y1179D01*
X1720Y1178D02*
X1758Y1178D01*
X2722Y1178D02*
X2760Y1178D01*
X1719Y1177D02*
X1760Y1177D01*
X2720Y1177D02*
X2762Y1177D01*
X1717Y1176D02*
X1762Y1176D01*
X2718Y1176D02*
X2763Y1176D01*
X1716Y1175D02*
X1763Y1175D01*
X2717Y1175D02*
X2765Y1175D01*
X1714Y1174D02*
X1765Y1174D01*
X2716Y1174D02*
X2766Y1174D01*
X1713Y1173D02*
X1766Y1173D01*
X2714Y1173D02*
X2767Y1173D01*
X1712Y1172D02*
X1767Y1172D01*
X2713Y1172D02*
X2768Y1172D01*
X1711Y1171D02*
X1768Y1171D01*
X2712Y1171D02*
X2770Y1171D01*
X1710Y1170D02*
X1769Y1170D01*
X2711Y1170D02*
X2771Y1170D01*
X1709Y1169D02*
X1770Y1169D01*
X2710Y1169D02*
X2771Y1169D01*
X1708Y1168D02*
X1771Y1168D01*
X2709Y1168D02*
X2772Y1168D01*
X1707Y1167D02*
X1772Y1167D01*
X2709Y1167D02*
X2773Y1167D01*
X1706Y1166D02*
X1772Y1166D01*
X2708Y1166D02*
X2774Y1166D01*
X1706Y1165D02*
X1773Y1165D01*
X2707Y1165D02*
X2775Y1165D01*
X1705Y1164D02*
X1774Y1164D01*
X2706Y1164D02*
X2775Y1164D01*
X1704Y1163D02*
X1775Y1163D01*
X2706Y1163D02*
X2776Y1163D01*
X1704Y1162D02*
X1775Y1162D01*
X2705Y1162D02*
X2777Y1162D01*
X1703Y1161D02*
X1776Y1161D01*
X2705Y1161D02*
X2777Y1161D01*
X1703Y1160D02*
X1776Y1160D01*
X2704Y1160D02*
X2778Y1160D01*
X1702Y1159D02*
X1777Y1159D01*
X2703Y1159D02*
X2778Y1159D01*
X1702Y1158D02*
X1777Y1158D01*
X2703Y1158D02*
X2779Y1158D01*
X1701Y1157D02*
X1778Y1157D01*
X2703Y1157D02*
X2779Y1157D01*
X1701Y1156D02*
X1778Y1156D01*
X2702Y1156D02*
X2780Y1156D01*
X1700Y1155D02*
X1778Y1155D01*
X2702Y1155D02*
X2780Y1155D01*
X1700Y1154D02*
X1779Y1154D01*
X2701Y1154D02*
X2780Y1154D01*
X1700Y1153D02*
X1779Y1153D01*
X2701Y1153D02*
X2781Y1153D01*
X1699Y1152D02*
X1779Y1152D01*
X2701Y1152D02*
X2781Y1152D01*
X1699Y1151D02*
X1780Y1151D01*
X2701Y1151D02*
X2781Y1151D01*
X1699Y1150D02*
X1780Y1150D01*
X2700Y1150D02*
X2781Y1150D01*
X1699Y1149D02*
X1780Y1149D01*
X2700Y1149D02*
X2782Y1149D01*
X1699Y1148D02*
X1780Y1148D01*
X2700Y1148D02*
X2782Y1148D01*
X1698Y1147D02*
X1780Y1147D01*
X2700Y1147D02*
X2782Y1147D01*
X1698Y1146D02*
X1781Y1146D01*
X2700Y1146D02*
X2782Y1146D01*
X1698Y1145D02*
X1781Y1145D01*
X2700Y1145D02*
X2782Y1145D01*
X1698Y1144D02*
X1781Y1144D01*
X2699Y1144D02*
X2782Y1144D01*
X1698Y1143D02*
X1781Y1143D01*
X2699Y1143D02*
X2782Y1143D01*
X1698Y1142D02*
X1781Y1142D01*
X2699Y1142D02*
X2782Y1142D01*
X1698Y1141D02*
X1781Y1141D01*
X2699Y1141D02*
X2782Y1141D01*
X1698Y1140D02*
X1781Y1140D01*
X2699Y1140D02*
X2782Y1140D01*
X1698Y1139D02*
X1781Y1139D01*
X2699Y1139D02*
X2782Y1139D01*
X1698Y1138D02*
X1781Y1138D01*
X2699Y1138D02*
X2782Y1138D01*
X1698Y1137D02*
X1781Y1137D01*
X2700Y1137D02*
X2782Y1137D01*
X1698Y1136D02*
X1781Y1136D01*
X2700Y1136D02*
X2782Y1136D01*
X1698Y1135D02*
X1780Y1135D01*
X2700Y1135D02*
X2782Y1135D01*
X1699Y1134D02*
X1780Y1134D01*
X2700Y1134D02*
X2782Y1134D01*
X1699Y1133D02*
X1780Y1133D01*
X2700Y1133D02*
X2782Y1133D01*
X1699Y1132D02*
X1780Y1132D01*
X2700Y1132D02*
X2781Y1132D01*
X1699Y1131D02*
X1780Y1131D01*
X2701Y1131D02*
X2781Y1131D01*
X1699Y1130D02*
X1779Y1130D01*
X2701Y1130D02*
X2781Y1130D01*
X1700Y1129D02*
X1779Y1129D01*
X2701Y1129D02*
X2781Y1129D01*
X1700Y1128D02*
X1779Y1128D01*
X2701Y1128D02*
X2780Y1128D01*
X1700Y1127D02*
X1779Y1127D01*
X2702Y1127D02*
X2780Y1127D01*
X1701Y1126D02*
X1778Y1126D01*
X2702Y1126D02*
X2780Y1126D01*
X1701Y1125D02*
X1778Y1125D01*
X2702Y1125D02*
X2779Y1125D01*
X1701Y1124D02*
X1777Y1124D01*
X2703Y1124D02*
X2779Y1124D01*
X1702Y1123D02*
X1777Y1123D01*
X2703Y1123D02*
X2778Y1123D01*
X1702Y1122D02*
X1776Y1122D01*
X2704Y1122D02*
X2778Y1122D01*
X1703Y1121D02*
X1776Y1121D01*
X2704Y1121D02*
X2777Y1121D01*
X1703Y1120D02*
X1775Y1120D01*
X2705Y1120D02*
X2777Y1120D01*
X1704Y1119D02*
X1775Y1119D01*
X2706Y1119D02*
X2776Y1119D01*
X1705Y1118D02*
X1774Y1118D01*
X2706Y1118D02*
X2776Y1118D01*
X1705Y1117D02*
X1773Y1117D01*
X2707Y1117D02*
X2775Y1117D01*
X1706Y1116D02*
X1773Y1116D01*
X2708Y1116D02*
X2774Y1116D01*
X1707Y1115D02*
X1772Y1115D01*
X2708Y1115D02*
X2773Y1115D01*
X1708Y1114D02*
X1771Y1114D01*
X2709Y1114D02*
X2773Y1114D01*
X1708Y1113D02*
X1770Y1113D01*
X2710Y1113D02*
X2772Y1113D01*
X1709Y1112D02*
X1769Y1112D01*
X2711Y1112D02*
X2771Y1112D01*
X1710Y1111D02*
X1769Y1111D01*
X2712Y1111D02*
X2770Y1111D01*
X1711Y1110D02*
X1767Y1110D01*
X2713Y1110D02*
X2769Y1110D01*
X1713Y1109D02*
X1766Y1109D01*
X2714Y1109D02*
X2768Y1109D01*
X1714Y1108D02*
X1765Y1108D01*
X2715Y1108D02*
X2767Y1108D01*
X1715Y1107D02*
X1764Y1107D01*
X2717Y1107D02*
X2765Y1107D01*
X1716Y1106D02*
X1762Y1106D01*
X2718Y1106D02*
X2764Y1106D01*
X1718Y1105D02*
X1761Y1105D01*
X2720Y1105D02*
X2762Y1105D01*
X1720Y1104D02*
X1759Y1104D01*
X2721Y1104D02*
X2761Y1104D01*
X1722Y1103D02*
X1757Y1103D01*
X2723Y1103D02*
X2759Y1103D01*
X1724Y1102D02*
X1755Y1102D01*
X2725Y1102D02*
X2756Y1102D01*
X1727Y1101D02*
X1752Y1101D01*
X2728Y1101D02*
X2754Y1101D01*
X1730Y1100D02*
X1749Y1100D01*
X2732Y1100D02*
X2750Y1100D01*
X1736Y1099D02*
X1743Y1099D01*
X2737Y1099D02*
X2744Y1099D01*
X1733Y1082D02*
X1746Y1082D01*
X2734Y1082D02*
X2748Y1082D01*
X1728Y1081D02*
X1751Y1081D01*
X2730Y1081D02*
X2752Y1081D01*
X1725Y1080D02*
X1754Y1080D01*
X2727Y1080D02*
X2755Y1080D01*
X1723Y1079D02*
X1756Y1079D01*
X2724Y1079D02*
X2758Y1079D01*
X1721Y1078D02*
X1758Y1078D01*
X2722Y1078D02*
X2760Y1078D01*
X1719Y1077D02*
X1760Y1077D01*
X2720Y1077D02*
X2761Y1077D01*
X1717Y1076D02*
X1762Y1076D01*
X2719Y1076D02*
X2763Y1076D01*
X1716Y1075D02*
X1763Y1075D01*
X2717Y1075D02*
X2765Y1075D01*
X1714Y1074D02*
X1764Y1074D01*
X2716Y1074D02*
X2766Y1074D01*
X1713Y1073D02*
X1766Y1073D01*
X2715Y1073D02*
X2767Y1073D01*
X1712Y1072D02*
X1767Y1072D01*
X2713Y1072D02*
X2768Y1072D01*
X1711Y1071D02*
X1768Y1071D01*
X2712Y1071D02*
X2769Y1071D01*
X1710Y1070D02*
X1769Y1070D01*
X2711Y1070D02*
X2770Y1070D01*
X1709Y1069D02*
X1770Y1069D01*
X2710Y1069D02*
X2771Y1069D01*
X1708Y1068D02*
X1771Y1068D01*
X2709Y1068D02*
X2772Y1068D01*
X1707Y1067D02*
X1772Y1067D01*
X2709Y1067D02*
X2773Y1067D01*
X1706Y1066D02*
X1772Y1066D01*
X2708Y1066D02*
X2774Y1066D01*
X1706Y1065D02*
X1773Y1065D01*
X2707Y1065D02*
X2775Y1065D01*
X1705Y1064D02*
X1774Y1064D01*
X2706Y1064D02*
X2775Y1064D01*
X1704Y1063D02*
X1774Y1063D01*
X2706Y1063D02*
X2776Y1063D01*
X1704Y1062D02*
X1775Y1062D01*
X2705Y1062D02*
X2776Y1062D01*
X1703Y1061D02*
X1776Y1061D01*
X2705Y1061D02*
X2777Y1061D01*
X1703Y1060D02*
X1776Y1060D01*
X2704Y1060D02*
X2778Y1060D01*
X1702Y1059D02*
X1777Y1059D01*
X2704Y1059D02*
X2778Y1059D01*
X1702Y1058D02*
X1777Y1058D01*
X2703Y1058D02*
X2779Y1058D01*
X1701Y1057D02*
X1778Y1057D01*
X2703Y1057D02*
X2779Y1057D01*
X1701Y1056D02*
X1778Y1056D01*
X2702Y1056D02*
X2779Y1056D01*
X1700Y1055D02*
X1778Y1055D01*
X2702Y1055D02*
X2780Y1055D01*
X1700Y1054D02*
X1779Y1054D01*
X2702Y1054D02*
X2780Y1054D01*
X1700Y1053D02*
X1779Y1053D01*
X2701Y1053D02*
X2781Y1053D01*
X1700Y1052D02*
X1779Y1052D01*
X2701Y1052D02*
X2781Y1052D01*
X1699Y1051D02*
X1780Y1051D01*
X2701Y1051D02*
X2781Y1051D01*
X1699Y1050D02*
X1780Y1050D01*
X2700Y1050D02*
X2781Y1050D01*
X1699Y1049D02*
X1780Y1049D01*
X2700Y1049D02*
X2781Y1049D01*
X1699Y1048D02*
X1780Y1048D01*
X2700Y1048D02*
X2782Y1048D01*
X1698Y1047D02*
X1780Y1047D01*
X2700Y1047D02*
X2782Y1047D01*
X1698Y1046D02*
X1781Y1046D01*
X2700Y1046D02*
X2782Y1046D01*
X1698Y1045D02*
X1781Y1045D01*
X2700Y1045D02*
X2782Y1045D01*
X1698Y1044D02*
X1781Y1044D01*
X2699Y1044D02*
X2782Y1044D01*
X1698Y1043D02*
X1781Y1043D01*
X2699Y1043D02*
X2782Y1043D01*
X1698Y1042D02*
X1781Y1042D01*
X2699Y1042D02*
X2782Y1042D01*
X1698Y1041D02*
X1781Y1041D01*
X2699Y1041D02*
X2782Y1041D01*
X1698Y1040D02*
X1781Y1040D01*
X2699Y1040D02*
X2782Y1040D01*
X1698Y1039D02*
X1781Y1039D01*
X2699Y1039D02*
X2782Y1039D01*
X1698Y1038D02*
X1781Y1038D01*
X2699Y1038D02*
X2782Y1038D01*
X1698Y1037D02*
X1781Y1037D01*
X2700Y1037D02*
X2782Y1037D01*
X1698Y1036D02*
X1781Y1036D01*
X2700Y1036D02*
X2782Y1036D01*
X1698Y1035D02*
X1780Y1035D01*
X2700Y1035D02*
X2782Y1035D01*
X1699Y1034D02*
X1780Y1034D01*
X2700Y1034D02*
X2782Y1034D01*
X1699Y1033D02*
X1780Y1033D01*
X2700Y1033D02*
X2782Y1033D01*
X1699Y1032D02*
X1780Y1032D01*
X2700Y1032D02*
X2781Y1032D01*
X1699Y1031D02*
X1780Y1031D01*
X2701Y1031D02*
X2781Y1031D01*
X1699Y1030D02*
X1779Y1030D01*
X2701Y1030D02*
X2781Y1030D01*
X1700Y1029D02*
X1779Y1029D01*
X2701Y1029D02*
X2781Y1029D01*
X1700Y1028D02*
X1779Y1028D01*
X2701Y1028D02*
X2780Y1028D01*
X1700Y1027D02*
X1779Y1027D01*
X2702Y1027D02*
X2780Y1027D01*
X1701Y1026D02*
X1778Y1026D01*
X2702Y1026D02*
X2780Y1026D01*
X1701Y1025D02*
X1778Y1025D01*
X2702Y1025D02*
X2779Y1025D01*
X1701Y1024D02*
X1778Y1024D01*
X2703Y1024D02*
X2779Y1024D01*
X1702Y1023D02*
X1777Y1023D01*
X2703Y1023D02*
X2778Y1023D01*
X1702Y1022D02*
X1777Y1022D01*
X2704Y1022D02*
X2778Y1022D01*
X1703Y1021D02*
X1776Y1021D01*
X2704Y1021D02*
X2777Y1021D01*
X1703Y1020D02*
X1775Y1020D01*
X2705Y1020D02*
X2777Y1020D01*
X1704Y1019D02*
X1775Y1019D01*
X2705Y1019D02*
X2776Y1019D01*
X1705Y1018D02*
X1774Y1018D01*
X2706Y1018D02*
X2776Y1018D01*
X1705Y1017D02*
X1774Y1017D01*
X2707Y1017D02*
X2775Y1017D01*
X1706Y1016D02*
X1773Y1016D01*
X2707Y1016D02*
X2774Y1016D01*
X1707Y1015D02*
X1772Y1015D01*
X2708Y1015D02*
X2774Y1015D01*
X1708Y1014D02*
X1771Y1014D01*
X2709Y1014D02*
X2773Y1014D01*
X1708Y1013D02*
X1770Y1013D01*
X2710Y1013D02*
X2772Y1013D01*
X1709Y1012D02*
X1770Y1012D01*
X2711Y1012D02*
X2771Y1012D01*
X1710Y1011D02*
X1769Y1011D01*
X2712Y1011D02*
X2770Y1011D01*
X1711Y1010D02*
X1768Y1010D01*
X2713Y1010D02*
X2769Y1010D01*
X1712Y1009D02*
X1766Y1009D01*
X2714Y1009D02*
X2768Y1009D01*
X1714Y1008D02*
X1765Y1008D01*
X2715Y1008D02*
X2767Y1008D01*
X1715Y1007D02*
X1764Y1007D01*
X2716Y1007D02*
X2765Y1007D01*
X1716Y1006D02*
X1763Y1006D01*
X2718Y1006D02*
X2764Y1006D01*
X1718Y1005D02*
X1761Y1005D01*
X2719Y1005D02*
X2762Y1005D01*
X1720Y1004D02*
X1759Y1004D01*
X2721Y1004D02*
X2761Y1004D01*
X1721Y1003D02*
X1757Y1003D01*
X2723Y1003D02*
X2759Y1003D01*
X1723Y1002D02*
X1755Y1002D01*
X2725Y1002D02*
X2757Y1002D01*
X1726Y1001D02*
X1753Y1001D01*
X2728Y1001D02*
X2754Y1001D01*
X1730Y1000D02*
X1749Y1000D01*
X2731Y1000D02*
X2751Y1000D01*
X1735Y999D02*
X1744Y999D01*
X2736Y999D02*
X2745Y999D01*
X1733Y982D02*
X1745Y982D01*
X2735Y982D02*
X2747Y982D01*
X1729Y981D02*
X1750Y981D01*
X2730Y981D02*
X2752Y981D01*
X1726Y980D02*
X1753Y980D01*
X2727Y980D02*
X2755Y980D01*
X1723Y979D02*
X1756Y979D01*
X2724Y979D02*
X2757Y979D01*
X1721Y978D02*
X1758Y978D01*
X2722Y978D02*
X2759Y978D01*
X1719Y977D02*
X1760Y977D01*
X2721Y977D02*
X2761Y977D01*
X1717Y976D02*
X1761Y976D01*
X2719Y976D02*
X2763Y976D01*
X1716Y975D02*
X1763Y975D01*
X2717Y975D02*
X2764Y975D01*
X1715Y974D02*
X1764Y974D01*
X2716Y974D02*
X2766Y974D01*
X1713Y973D02*
X1766Y973D01*
X2715Y973D02*
X2767Y973D01*
X1712Y972D02*
X1767Y972D01*
X2714Y972D02*
X2768Y972D01*
X1711Y971D02*
X1768Y971D01*
X2712Y971D02*
X2769Y971D01*
X1710Y970D02*
X1769Y970D01*
X2711Y970D02*
X2770Y970D01*
X1709Y969D02*
X1770Y969D01*
X2710Y969D02*
X2771Y969D01*
X1708Y968D02*
X1771Y968D01*
X2710Y968D02*
X2772Y968D01*
X1707Y967D02*
X1772Y967D01*
X2709Y967D02*
X2773Y967D01*
X1707Y966D02*
X1772Y966D01*
X2708Y966D02*
X2774Y966D01*
X1706Y965D02*
X1773Y965D01*
X2707Y965D02*
X2774Y965D01*
X1705Y964D02*
X1774Y964D01*
X2707Y964D02*
X2775Y964D01*
X1704Y963D02*
X1774Y963D01*
X2706Y963D02*
X2776Y963D01*
X1704Y962D02*
X1775Y962D01*
X2705Y962D02*
X2776Y962D01*
X1703Y961D02*
X1776Y961D01*
X2705Y961D02*
X2777Y961D01*
X1703Y960D02*
X1776Y960D01*
X2704Y960D02*
X2778Y960D01*
X1702Y959D02*
X1777Y959D01*
X2704Y959D02*
X2778Y959D01*
X1702Y958D02*
X1777Y958D01*
X2703Y958D02*
X2779Y958D01*
X1701Y957D02*
X1778Y957D01*
X2703Y957D02*
X2779Y957D01*
X1701Y956D02*
X1778Y956D01*
X2702Y956D02*
X2779Y956D01*
X1700Y955D02*
X1778Y955D01*
X2702Y955D02*
X2780Y955D01*
X1700Y954D02*
X1779Y954D01*
X2702Y954D02*
X2780Y954D01*
X1700Y953D02*
X1779Y953D01*
X2701Y953D02*
X2780Y953D01*
X1700Y952D02*
X1779Y952D01*
X2701Y952D02*
X2781Y952D01*
X1699Y951D02*
X1780Y951D01*
X2701Y951D02*
X2781Y951D01*
X1699Y950D02*
X1780Y950D01*
X2700Y950D02*
X2781Y950D01*
X1699Y949D02*
X1780Y949D01*
X2700Y949D02*
X2781Y949D01*
X1699Y948D02*
X1780Y948D01*
X2700Y948D02*
X2782Y948D01*
X1698Y947D02*
X1780Y947D01*
X2700Y947D02*
X2782Y947D01*
X1698Y946D02*
X1781Y946D01*
X2700Y946D02*
X2782Y946D01*
X1698Y945D02*
X1781Y945D01*
X2700Y945D02*
X2782Y945D01*
X1698Y944D02*
X1781Y944D01*
X2699Y944D02*
X2782Y944D01*
X1698Y943D02*
X1781Y943D01*
X2699Y943D02*
X2782Y943D01*
X1698Y942D02*
X1781Y942D01*
X2699Y942D02*
X2782Y942D01*
X1698Y941D02*
X1781Y941D01*
X2699Y941D02*
X2782Y941D01*
X1698Y940D02*
X1781Y940D01*
X2699Y940D02*
X2782Y940D01*
X1698Y939D02*
X1781Y939D01*
X2699Y939D02*
X2782Y939D01*
X1698Y938D02*
X1781Y938D01*
X2699Y938D02*
X2782Y938D01*
X1698Y937D02*
X1781Y937D01*
X2700Y937D02*
X2782Y937D01*
X1698Y936D02*
X1781Y936D01*
X2700Y936D02*
X2782Y936D01*
X1698Y935D02*
X1781Y935D01*
X2700Y935D02*
X2782Y935D01*
X1699Y934D02*
X1780Y934D01*
X2700Y934D02*
X2782Y934D01*
X1699Y933D02*
X1780Y933D01*
X2700Y933D02*
X2782Y933D01*
X1699Y932D02*
X1780Y932D01*
X2700Y932D02*
X2781Y932D01*
X1699Y931D02*
X1780Y931D01*
X2701Y931D02*
X2781Y931D01*
X1699Y930D02*
X1780Y930D01*
X2701Y930D02*
X2781Y930D01*
X1700Y929D02*
X1779Y929D01*
X2701Y929D02*
X2781Y929D01*
X1700Y928D02*
X1779Y928D01*
X2701Y928D02*
X2780Y928D01*
X1700Y927D02*
X1779Y927D01*
X2702Y927D02*
X2780Y927D01*
X1701Y926D02*
X1778Y926D01*
X2702Y926D02*
X2780Y926D01*
X1701Y925D02*
X1778Y925D01*
X2702Y925D02*
X2779Y925D01*
X1701Y924D02*
X1778Y924D01*
X2703Y924D02*
X2779Y924D01*
X1702Y923D02*
X1777Y923D01*
X2703Y923D02*
X2779Y923D01*
X1702Y922D02*
X1777Y922D01*
X2704Y922D02*
X2778Y922D01*
X1703Y921D02*
X1776Y921D01*
X2704Y921D02*
X2778Y921D01*
X1703Y920D02*
X1776Y920D01*
X2705Y920D02*
X2777Y920D01*
X1704Y919D02*
X1775Y919D01*
X2705Y919D02*
X2776Y919D01*
X1705Y918D02*
X1774Y918D01*
X2706Y918D02*
X2776Y918D01*
X1705Y917D02*
X1774Y917D01*
X2707Y917D02*
X2775Y917D01*
X1706Y916D02*
X1773Y916D01*
X2707Y916D02*
X2774Y916D01*
X1707Y915D02*
X1772Y915D01*
X2708Y915D02*
X2774Y915D01*
X1707Y914D02*
X1771Y914D01*
X2709Y914D02*
X2773Y914D01*
X1708Y913D02*
X1771Y913D01*
X2710Y913D02*
X2772Y913D01*
X1709Y912D02*
X1770Y912D01*
X2711Y912D02*
X2771Y912D01*
X1710Y911D02*
X1769Y911D01*
X2711Y911D02*
X2770Y911D01*
X1711Y910D02*
X1768Y910D01*
X2713Y910D02*
X2769Y910D01*
X1712Y909D02*
X1767Y909D01*
X2714Y909D02*
X2768Y909D01*
X1713Y908D02*
X1765Y908D01*
X2715Y908D02*
X2767Y908D01*
X1715Y907D02*
X1764Y907D01*
X2716Y907D02*
X2766Y907D01*
X1716Y906D02*
X1763Y906D01*
X2718Y906D02*
X2764Y906D01*
X1718Y905D02*
X1761Y905D01*
X2719Y905D02*
X2763Y905D01*
X1719Y904D02*
X1760Y904D01*
X2721Y904D02*
X2761Y904D01*
X1721Y903D02*
X1758Y903D01*
X2723Y903D02*
X2759Y903D01*
X1723Y902D02*
X1756Y902D01*
X2725Y902D02*
X2757Y902D01*
X1726Y901D02*
X1753Y901D01*
X2727Y901D02*
X2754Y901D01*
X1729Y900D02*
X1750Y900D01*
X2731Y900D02*
X2751Y900D01*
X1734Y899D02*
X1745Y899D01*
X2736Y899D02*
X2746Y899D01*
X1734Y882D02*
X1745Y882D01*
X2736Y882D02*
X2746Y882D01*
X1729Y881D02*
X1750Y881D01*
X2731Y881D02*
X2751Y881D01*
X1726Y880D02*
X1753Y880D01*
X2727Y880D02*
X2754Y880D01*
X1723Y879D02*
X1756Y879D01*
X2725Y879D02*
X2757Y879D01*
X1721Y878D02*
X1758Y878D01*
X2723Y878D02*
X2759Y878D01*
X1719Y877D02*
X1760Y877D01*
X2721Y877D02*
X2761Y877D01*
X1718Y876D02*
X1761Y876D01*
X2719Y876D02*
X2763Y876D01*
X1716Y875D02*
X1763Y875D01*
X2718Y875D02*
X2764Y875D01*
X1715Y874D02*
X1764Y874D01*
X2716Y874D02*
X2765Y874D01*
X1713Y873D02*
X1765Y873D01*
X2715Y873D02*
X2767Y873D01*
X1712Y872D02*
X1767Y872D01*
X2714Y872D02*
X2768Y872D01*
X1711Y871D02*
X1768Y871D01*
X2713Y871D02*
X2769Y871D01*
X1710Y870D02*
X1769Y870D01*
X2711Y870D02*
X2770Y870D01*
X1709Y869D02*
X1770Y869D01*
X2711Y869D02*
X2771Y869D01*
X1708Y868D02*
X1771Y868D01*
X2710Y868D02*
X2772Y868D01*
X1707Y867D02*
X1771Y867D01*
X2709Y867D02*
X2773Y867D01*
X1707Y866D02*
X1772Y866D01*
X2708Y866D02*
X2774Y866D01*
X1706Y865D02*
X1773Y865D01*
X2707Y865D02*
X2774Y865D01*
X1705Y864D02*
X1774Y864D01*
X2707Y864D02*
X2775Y864D01*
X1705Y863D02*
X1774Y863D01*
X2706Y863D02*
X2776Y863D01*
X1704Y862D02*
X1775Y862D01*
X2705Y862D02*
X2776Y862D01*
X1703Y861D02*
X1776Y861D01*
X2705Y861D02*
X2777Y861D01*
X1703Y860D02*
X1776Y860D01*
X2704Y860D02*
X2778Y860D01*
X1702Y859D02*
X1777Y859D01*
X2704Y859D02*
X2778Y859D01*
X1702Y858D02*
X1777Y858D01*
X2703Y858D02*
X2779Y858D01*
X1701Y857D02*
X1778Y857D01*
X2703Y857D02*
X2779Y857D01*
X1701Y856D02*
X1778Y856D01*
X2702Y856D02*
X2779Y856D01*
X1701Y855D02*
X1778Y855D01*
X2702Y855D02*
X2780Y855D01*
X1700Y854D02*
X1779Y854D01*
X2702Y854D02*
X2780Y854D01*
X1700Y853D02*
X1779Y853D01*
X2701Y853D02*
X2780Y853D01*
X1700Y852D02*
X1779Y852D01*
X2701Y852D02*
X2781Y852D01*
X1699Y851D02*
X1780Y851D01*
X2701Y851D02*
X2781Y851D01*
X1699Y850D02*
X1780Y850D01*
X2701Y850D02*
X2781Y850D01*
X1699Y849D02*
X1780Y849D01*
X2700Y849D02*
X2781Y849D01*
X1699Y848D02*
X1780Y848D01*
X2700Y848D02*
X2782Y848D01*
X1699Y847D02*
X1780Y847D01*
X2700Y847D02*
X2782Y847D01*
X1698Y846D02*
X1781Y846D01*
X2700Y846D02*
X2782Y846D01*
X1698Y845D02*
X1781Y845D01*
X2700Y845D02*
X2782Y845D01*
X1698Y844D02*
X1781Y844D01*
X2700Y844D02*
X2782Y844D01*
X1698Y843D02*
X1781Y843D01*
X2699Y843D02*
X2782Y843D01*
X1698Y842D02*
X1781Y842D01*
X2699Y842D02*
X2782Y842D01*
X1698Y841D02*
X1781Y841D01*
X2699Y841D02*
X2782Y841D01*
X1698Y840D02*
X1781Y840D01*
X2699Y840D02*
X2782Y840D01*
X1698Y839D02*
X1781Y839D01*
X2699Y839D02*
X2782Y839D01*
X1698Y838D02*
X1781Y838D01*
X2699Y838D02*
X2782Y838D01*
X1698Y837D02*
X1781Y837D01*
X2699Y837D02*
X2782Y837D01*
X1698Y836D02*
X1781Y836D01*
X2700Y836D02*
X2782Y836D01*
X1698Y835D02*
X1781Y835D01*
X2700Y835D02*
X2782Y835D01*
X1698Y834D02*
X1780Y834D01*
X2700Y834D02*
X2782Y834D01*
X1699Y833D02*
X1780Y833D01*
X2700Y833D02*
X2782Y833D01*
X1699Y832D02*
X1780Y832D01*
X2700Y832D02*
X2781Y832D01*
X1699Y831D02*
X1780Y831D01*
X2700Y831D02*
X2781Y831D01*
X1699Y830D02*
X1780Y830D01*
X2701Y830D02*
X2781Y830D01*
X1700Y829D02*
X1779Y829D01*
X2701Y829D02*
X2781Y829D01*
X1700Y828D02*
X1779Y828D01*
X2701Y828D02*
X2780Y828D01*
X1700Y827D02*
X1779Y827D01*
X2702Y827D02*
X2780Y827D01*
X1700Y826D02*
X1778Y826D01*
X2702Y826D02*
X2780Y826D01*
X1701Y825D02*
X1778Y825D01*
X2702Y825D02*
X2779Y825D01*
X1701Y824D02*
X1778Y824D01*
X2703Y824D02*
X2779Y824D01*
X1702Y823D02*
X1777Y823D01*
X2703Y823D02*
X2779Y823D01*
X1702Y822D02*
X1777Y822D01*
X2704Y822D02*
X2778Y822D01*
X1703Y821D02*
X1776Y821D01*
X2704Y821D02*
X2778Y821D01*
X1703Y820D02*
X1776Y820D01*
X2705Y820D02*
X2777Y820D01*
X1704Y819D02*
X1775Y819D01*
X2705Y819D02*
X2776Y819D01*
X1704Y818D02*
X1774Y818D01*
X2706Y818D02*
X2776Y818D01*
X1705Y817D02*
X1774Y817D01*
X2707Y817D02*
X2775Y817D01*
X1706Y816D02*
X1773Y816D01*
X2707Y816D02*
X2774Y816D01*
X1707Y815D02*
X1772Y815D01*
X2708Y815D02*
X2774Y815D01*
X1707Y814D02*
X1772Y814D01*
X2709Y814D02*
X2773Y814D01*
X1708Y813D02*
X1771Y813D01*
X2710Y813D02*
X2772Y813D01*
X1709Y812D02*
X1770Y812D01*
X2710Y812D02*
X2771Y812D01*
X1710Y811D02*
X1769Y811D01*
X2711Y811D02*
X2770Y811D01*
X1711Y810D02*
X1768Y810D01*
X2712Y810D02*
X2769Y810D01*
X1712Y809D02*
X1767Y809D01*
X2714Y809D02*
X2768Y809D01*
X1713Y808D02*
X1766Y808D01*
X2715Y808D02*
X2767Y808D01*
X1715Y807D02*
X1764Y807D01*
X2716Y807D02*
X2766Y807D01*
X1716Y806D02*
X1763Y806D01*
X2717Y806D02*
X2764Y806D01*
X1717Y805D02*
X1761Y805D01*
X2719Y805D02*
X2763Y805D01*
X1719Y804D02*
X1760Y804D01*
X2721Y804D02*
X2761Y804D01*
X1721Y803D02*
X1758Y803D01*
X2722Y803D02*
X2759Y803D01*
X1723Y802D02*
X1756Y802D01*
X2724Y802D02*
X2757Y802D01*
X1725Y801D02*
X1753Y801D01*
X2727Y801D02*
X2755Y801D01*
X1729Y800D02*
X1750Y800D01*
X2730Y800D02*
X2752Y800D01*
X1733Y799D02*
X1745Y799D01*
X2735Y799D02*
X2747Y799D01*
X1735Y782D02*
X1744Y782D01*
X2737Y782D02*
X2745Y782D01*
X1730Y781D02*
X1749Y781D01*
X2731Y781D02*
X2750Y781D01*
X1726Y780D02*
X1753Y780D01*
X2728Y780D02*
X2754Y780D01*
X1724Y779D02*
X1755Y779D01*
X2725Y779D02*
X2757Y779D01*
X1721Y778D02*
X1757Y778D01*
X2723Y778D02*
X2759Y778D01*
X1720Y777D02*
X1759Y777D01*
X2721Y777D02*
X2761Y777D01*
X1718Y776D02*
X1761Y776D01*
X2719Y776D02*
X2762Y776D01*
X1716Y775D02*
X1763Y775D01*
X2718Y775D02*
X2764Y775D01*
X1715Y774D02*
X1764Y774D01*
X2716Y774D02*
X2765Y774D01*
X1714Y773D02*
X1765Y773D01*
X2715Y773D02*
X2767Y773D01*
X1712Y772D02*
X1766Y772D01*
X2714Y772D02*
X2768Y772D01*
X1711Y771D02*
X1768Y771D01*
X2713Y771D02*
X2769Y771D01*
X1710Y770D02*
X1769Y770D01*
X2712Y770D02*
X2770Y770D01*
X1709Y769D02*
X1770Y769D01*
X2711Y769D02*
X2771Y769D01*
X1708Y768D02*
X1770Y768D01*
X2710Y768D02*
X2772Y768D01*
X1708Y767D02*
X1771Y767D01*
X2709Y767D02*
X2773Y767D01*
X1707Y766D02*
X1772Y766D01*
X2708Y766D02*
X2774Y766D01*
X1706Y765D02*
X1773Y765D01*
X2707Y765D02*
X2774Y765D01*
X1705Y764D02*
X1774Y764D01*
X2707Y764D02*
X2775Y764D01*
X1705Y763D02*
X1774Y763D01*
X2706Y763D02*
X2776Y763D01*
X1704Y762D02*
X1775Y762D01*
X2705Y762D02*
X2776Y762D01*
X1703Y761D02*
X1775Y761D01*
X2705Y761D02*
X2777Y761D01*
X1703Y760D02*
X1776Y760D01*
X2704Y760D02*
X2777Y760D01*
X1702Y759D02*
X1777Y759D01*
X2704Y759D02*
X2778Y759D01*
X1702Y758D02*
X1777Y758D01*
X2703Y758D02*
X2778Y758D01*
X1701Y757D02*
X1778Y757D01*
X2703Y757D02*
X2779Y757D01*
X1701Y756D02*
X1778Y756D01*
X2702Y756D02*
X2779Y756D01*
X1701Y755D02*
X1778Y755D01*
X2702Y755D02*
X2780Y755D01*
X1700Y754D02*
X1779Y754D01*
X2702Y754D02*
X2780Y754D01*
X1700Y753D02*
X1779Y753D01*
X2701Y753D02*
X2780Y753D01*
X1700Y752D02*
X1779Y752D01*
X2701Y752D02*
X2781Y752D01*
X1699Y751D02*
X1779Y751D01*
X2701Y751D02*
X2781Y751D01*
X1699Y750D02*
X1780Y750D01*
X2701Y750D02*
X2781Y750D01*
X1699Y749D02*
X1780Y749D01*
X2700Y749D02*
X2781Y749D01*
X1699Y748D02*
X1780Y748D01*
X2700Y748D02*
X2782Y748D01*
X1699Y747D02*
X1780Y747D01*
X2700Y747D02*
X2782Y747D01*
X1698Y746D02*
X1780Y746D01*
X2700Y746D02*
X2782Y746D01*
X1698Y745D02*
X1781Y745D01*
X2700Y745D02*
X2782Y745D01*
X1698Y744D02*
X1781Y744D01*
X2700Y744D02*
X2782Y744D01*
X1698Y743D02*
X1781Y743D01*
X2699Y743D02*
X2782Y743D01*
X1698Y742D02*
X1781Y742D01*
X2699Y742D02*
X2782Y742D01*
X1698Y741D02*
X1781Y741D01*
X2699Y741D02*
X2782Y741D01*
X1698Y740D02*
X1781Y740D01*
X2699Y740D02*
X2782Y740D01*
X1698Y739D02*
X1781Y739D01*
X2699Y739D02*
X2782Y739D01*
X1698Y738D02*
X1781Y738D01*
X2699Y738D02*
X2782Y738D01*
X1698Y737D02*
X1781Y737D01*
X2699Y737D02*
X2782Y737D01*
X1698Y736D02*
X1781Y736D01*
X2700Y736D02*
X2782Y736D01*
X1698Y735D02*
X1781Y735D01*
X2700Y735D02*
X2782Y735D01*
X1698Y734D02*
X1780Y734D01*
X2700Y734D02*
X2782Y734D01*
X1699Y733D02*
X1780Y733D01*
X2700Y733D02*
X2782Y733D01*
X1699Y732D02*
X1780Y732D01*
X2700Y732D02*
X2781Y732D01*
X1699Y731D02*
X1780Y731D01*
X2700Y731D02*
X2781Y731D01*
X1699Y730D02*
X1780Y730D01*
X2701Y730D02*
X2781Y730D01*
X1700Y729D02*
X1779Y729D01*
X2701Y729D02*
X2781Y729D01*
X1700Y728D02*
X1779Y728D01*
X2701Y728D02*
X2781Y728D01*
X1700Y727D02*
X1779Y727D01*
X2702Y727D02*
X2780Y727D01*
X1700Y726D02*
X1778Y726D01*
X2702Y726D02*
X2780Y726D01*
X1701Y725D02*
X1778Y725D01*
X2702Y725D02*
X2779Y725D01*
X1701Y724D02*
X1778Y724D01*
X2703Y724D02*
X2779Y724D01*
X1702Y723D02*
X1777Y723D01*
X2703Y723D02*
X2779Y723D01*
X1702Y722D02*
X1777Y722D01*
X2704Y722D02*
X2778Y722D01*
X1703Y721D02*
X1776Y721D01*
X2704Y721D02*
X2778Y721D01*
X1703Y720D02*
X1776Y720D01*
X2705Y720D02*
X2777Y720D01*
X1704Y719D02*
X1775Y719D01*
X2705Y719D02*
X2777Y719D01*
X1704Y718D02*
X1774Y718D01*
X2706Y718D02*
X2776Y718D01*
X1705Y717D02*
X1774Y717D01*
X2706Y717D02*
X2775Y717D01*
X1706Y716D02*
X1773Y716D01*
X2707Y716D02*
X2775Y716D01*
X1706Y715D02*
X1772Y715D01*
X2708Y715D02*
X2774Y715D01*
X1707Y714D02*
X1772Y714D01*
X2709Y714D02*
X2773Y714D01*
X1708Y713D02*
X1771Y713D01*
X2709Y713D02*
X2772Y713D01*
X1709Y712D02*
X1770Y712D01*
X2710Y712D02*
X2771Y712D01*
X1710Y711D02*
X1769Y711D01*
X2711Y711D02*
X2770Y711D01*
X1711Y710D02*
X1768Y710D01*
X2712Y710D02*
X2769Y710D01*
X1712Y709D02*
X1767Y709D01*
X2713Y709D02*
X2768Y709D01*
X1713Y708D02*
X1766Y708D01*
X2714Y708D02*
X2767Y708D01*
X1714Y707D02*
X1764Y707D01*
X2716Y707D02*
X2766Y707D01*
X1716Y706D02*
X1763Y706D01*
X2717Y706D02*
X2765Y706D01*
X1717Y705D02*
X1762Y705D01*
X2719Y705D02*
X2763Y705D01*
X1719Y704D02*
X1760Y704D01*
X2720Y704D02*
X2761Y704D01*
X1721Y703D02*
X1758Y703D01*
X2722Y703D02*
X2760Y703D01*
X1723Y702D02*
X1756Y702D01*
X2724Y702D02*
X2758Y702D01*
X1725Y701D02*
X1754Y701D01*
X2727Y701D02*
X2755Y701D01*
X1728Y700D02*
X1751Y700D01*
X2730Y700D02*
X2752Y700D01*
X1733Y699D02*
X1746Y699D01*
X2734Y699D02*
X2748Y699D01*
X1736Y682D02*
X1743Y682D01*
X2738Y682D02*
X2744Y682D01*
X1730Y681D02*
X1749Y681D01*
X2732Y681D02*
X2750Y681D01*
X1727Y680D02*
X1752Y680D01*
X2728Y680D02*
X2754Y680D01*
X1724Y679D02*
X1755Y679D01*
X2725Y679D02*
X2756Y679D01*
X1722Y678D02*
X1757Y678D01*
X2723Y678D02*
X2759Y678D01*
X1720Y677D02*
X1759Y677D01*
X2721Y677D02*
X2761Y677D01*
X1718Y676D02*
X1761Y676D01*
X2720Y676D02*
X2762Y676D01*
X1716Y675D02*
X1762Y675D01*
X2718Y675D02*
X2764Y675D01*
X1715Y674D02*
X1764Y674D01*
X2717Y674D02*
X2765Y674D01*
X1714Y673D02*
X1765Y673D01*
X2715Y673D02*
X2766Y673D01*
X1713Y672D02*
X1766Y672D01*
X2714Y672D02*
X2768Y672D01*
X1711Y671D02*
X1767Y671D01*
X2713Y671D02*
X2769Y671D01*
X1710Y670D02*
X1769Y670D01*
X2712Y670D02*
X2770Y670D01*
X1709Y669D02*
X1769Y669D01*
X2711Y669D02*
X2771Y669D01*
X1708Y668D02*
X1770Y668D01*
X2710Y668D02*
X2772Y668D01*
X1708Y667D02*
X1771Y667D01*
X2709Y667D02*
X2773Y667D01*
X1707Y666D02*
X1772Y666D01*
X2708Y666D02*
X2773Y666D01*
X1706Y665D02*
X1773Y665D01*
X2708Y665D02*
X2774Y665D01*
X1705Y664D02*
X1773Y664D01*
X2707Y664D02*
X2775Y664D01*
X1705Y663D02*
X1774Y663D01*
X2706Y663D02*
X2776Y663D01*
X1704Y662D02*
X1775Y662D01*
X2706Y662D02*
X2776Y662D01*
X1703Y661D02*
X1775Y661D01*
X2705Y661D02*
X2777Y661D01*
X1703Y660D02*
X1776Y660D01*
X2704Y660D02*
X2777Y660D01*
X1702Y659D02*
X1776Y659D01*
X2704Y659D02*
X2778Y659D01*
X1702Y658D02*
X1777Y658D01*
X2703Y658D02*
X2778Y658D01*
X1701Y657D02*
X1777Y657D01*
X2703Y657D02*
X2779Y657D01*
X1701Y656D02*
X1778Y656D01*
X2702Y656D02*
X2779Y656D01*
X1701Y655D02*
X1778Y655D01*
X2702Y655D02*
X2780Y655D01*
X1700Y654D02*
X1779Y654D01*
X2702Y654D02*
X2780Y654D01*
X1700Y653D02*
X1779Y653D01*
X2701Y653D02*
X2780Y653D01*
X1700Y652D02*
X1779Y652D01*
X2701Y652D02*
X2781Y652D01*
X1699Y651D02*
X1779Y651D01*
X2701Y651D02*
X2781Y651D01*
X1699Y650D02*
X1780Y650D01*
X2701Y650D02*
X2781Y650D01*
X1699Y649D02*
X1780Y649D01*
X2700Y649D02*
X2781Y649D01*
X1699Y648D02*
X1780Y648D01*
X2700Y648D02*
X2782Y648D01*
X1699Y647D02*
X1780Y647D01*
X2700Y647D02*
X2782Y647D01*
X1698Y646D02*
X1780Y646D01*
X2700Y646D02*
X2782Y646D01*
X1698Y645D02*
X1781Y645D01*
X2700Y645D02*
X2782Y645D01*
X1698Y644D02*
X1781Y644D01*
X2700Y644D02*
X2782Y644D01*
X1698Y643D02*
X1781Y643D01*
X2699Y643D02*
X2782Y643D01*
X1698Y642D02*
X1781Y642D01*
X2699Y642D02*
X2782Y642D01*
X1698Y641D02*
X1781Y641D01*
X2699Y641D02*
X2782Y641D01*
X1698Y640D02*
X1781Y640D01*
X2699Y640D02*
X2782Y640D01*
X1698Y639D02*
X1781Y639D01*
X2699Y639D02*
X2782Y639D01*
X1698Y638D02*
X1781Y638D01*
X2699Y638D02*
X2782Y638D01*
X1698Y637D02*
X1781Y637D01*
X2699Y637D02*
X2782Y637D01*
X1698Y636D02*
X1781Y636D01*
X2700Y636D02*
X2782Y636D01*
X1698Y635D02*
X1781Y635D01*
X2700Y635D02*
X2782Y635D01*
X1698Y634D02*
X1780Y634D01*
X2700Y634D02*
X2782Y634D01*
X1699Y633D02*
X1780Y633D01*
X2700Y633D02*
X2782Y633D01*
X1699Y632D02*
X1780Y632D01*
X2700Y632D02*
X2782Y632D01*
X1699Y631D02*
X1780Y631D01*
X2700Y631D02*
X2781Y631D01*
X1699Y630D02*
X1780Y630D01*
X2701Y630D02*
X2781Y630D01*
X1699Y629D02*
X1779Y629D01*
X2701Y629D02*
X2781Y629D01*
X1700Y628D02*
X1779Y628D01*
X2701Y628D02*
X2781Y628D01*
X1700Y627D02*
X1779Y627D01*
X2701Y627D02*
X2780Y627D01*
X1700Y626D02*
X1778Y626D01*
X2702Y626D02*
X2780Y626D01*
X1701Y625D02*
X1778Y625D01*
X2702Y625D02*
X2780Y625D01*
X1701Y624D02*
X1778Y624D01*
X2703Y624D02*
X2779Y624D01*
X1702Y623D02*
X1777Y623D01*
X2703Y623D02*
X2779Y623D01*
X1702Y622D02*
X1777Y622D01*
X2703Y622D02*
X2778Y622D01*
X1703Y621D02*
X1776Y621D01*
X2704Y621D02*
X2778Y621D01*
X1703Y620D02*
X1776Y620D01*
X2705Y620D02*
X2777Y620D01*
X1704Y619D02*
X1775Y619D01*
X2705Y619D02*
X2777Y619D01*
X1704Y618D02*
X1775Y618D01*
X2706Y618D02*
X2776Y618D01*
X1705Y617D02*
X1774Y617D01*
X2706Y617D02*
X2775Y617D01*
X1706Y616D02*
X1773Y616D01*
X2707Y616D02*
X2775Y616D01*
X1706Y615D02*
X1772Y615D01*
X2708Y615D02*
X2774Y615D01*
X1707Y614D02*
X1772Y614D01*
X2709Y614D02*
X2773Y614D01*
X1708Y613D02*
X1771Y613D01*
X2709Y613D02*
X2772Y613D01*
X1709Y612D02*
X1770Y612D01*
X2710Y612D02*
X2771Y612D01*
X1710Y611D02*
X1769Y611D01*
X2711Y611D02*
X2771Y611D01*
X1711Y610D02*
X1768Y610D01*
X2712Y610D02*
X2770Y610D01*
X1712Y609D02*
X1767Y609D01*
X2713Y609D02*
X2768Y609D01*
X1713Y608D02*
X1766Y608D01*
X2714Y608D02*
X2767Y608D01*
X1714Y607D02*
X1765Y607D01*
X2716Y607D02*
X2766Y607D01*
X1716Y606D02*
X1763Y606D01*
X2717Y606D02*
X2765Y606D01*
X1717Y605D02*
X1762Y605D01*
X2718Y605D02*
X2763Y605D01*
X1719Y604D02*
X1760Y604D01*
X2720Y604D02*
X2762Y604D01*
X1720Y603D02*
X1758Y603D01*
X2722Y603D02*
X2760Y603D01*
X1722Y602D02*
X1756Y602D01*
X2724Y602D02*
X2758Y602D01*
X1725Y601D02*
X1754Y601D01*
X2726Y601D02*
X2756Y601D01*
X1728Y600D02*
X1751Y600D01*
X2729Y600D02*
X2753Y600D01*
X1732Y599D02*
X1747Y599D01*
X2733Y599D02*
X2749Y599D01*
X1738Y582D02*
X1740Y582D01*
X2740Y582D02*
X2742Y582D01*
X1731Y581D02*
X1748Y581D01*
X2732Y581D02*
X2749Y581D01*
X1727Y580D02*
X1752Y580D01*
X2728Y580D02*
X2753Y580D01*
X1724Y579D02*
X1755Y579D01*
X2726Y579D02*
X2756Y579D01*
X1722Y578D02*
X1757Y578D01*
X2723Y578D02*
X2758Y578D01*
X1720Y577D02*
X1759Y577D01*
X2721Y577D02*
X2760Y577D01*
X1718Y576D02*
X1761Y576D01*
X2720Y576D02*
X2762Y576D01*
X1717Y575D02*
X1762Y575D01*
X2718Y575D02*
X2764Y575D01*
X1715Y574D02*
X1764Y574D01*
X2717Y574D02*
X2765Y574D01*
X1714Y573D02*
X1765Y573D01*
X2715Y573D02*
X2766Y573D01*
X1713Y572D02*
X1766Y572D01*
X2714Y572D02*
X2768Y572D01*
X1712Y571D02*
X1767Y571D01*
X2713Y571D02*
X2769Y571D01*
X1710Y570D02*
X1768Y570D01*
X2712Y570D02*
X2770Y570D01*
X1710Y569D02*
X1769Y569D01*
X2711Y569D02*
X2771Y569D01*
X1709Y568D02*
X1770Y568D01*
X2710Y568D02*
X2772Y568D01*
X1708Y567D02*
X1771Y567D01*
X2709Y567D02*
X2773Y567D01*
X1707Y566D02*
X1772Y566D01*
X2708Y566D02*
X2773Y566D01*
X1706Y565D02*
X1773Y565D01*
X2708Y565D02*
X2774Y565D01*
X1705Y564D02*
X1773Y564D01*
X2707Y564D02*
X2775Y564D01*
X1705Y563D02*
X1774Y563D01*
X2706Y563D02*
X2775Y563D01*
X1704Y562D02*
X1775Y562D01*
X2706Y562D02*
X2776Y562D01*
X1704Y561D02*
X1775Y561D01*
X2705Y561D02*
X2777Y561D01*
X1703Y560D02*
X1776Y560D01*
X2704Y560D02*
X2777Y560D01*
X1702Y559D02*
X1776Y559D01*
X2704Y559D02*
X2778Y559D01*
X1702Y558D02*
X1777Y558D01*
X2703Y558D02*
X2778Y558D01*
X1701Y557D02*
X1777Y557D01*
X2703Y557D02*
X2779Y557D01*
X1701Y556D02*
X1778Y556D01*
X2702Y556D02*
X2779Y556D01*
X1701Y555D02*
X1778Y555D01*
X2702Y555D02*
X2780Y555D01*
X1700Y554D02*
X1779Y554D01*
X2702Y554D02*
X2780Y554D01*
X1700Y553D02*
X1779Y553D01*
X2701Y553D02*
X2780Y553D01*
X1700Y552D02*
X1779Y552D01*
X2701Y552D02*
X2781Y552D01*
X1699Y551D02*
X1779Y551D01*
X2701Y551D02*
X2781Y551D01*
X1699Y550D02*
X1780Y550D01*
X2701Y550D02*
X2781Y550D01*
X1699Y549D02*
X1780Y549D01*
X2700Y549D02*
X2781Y549D01*
X1699Y548D02*
X1780Y548D01*
X2700Y548D02*
X2782Y548D01*
X1699Y547D02*
X1780Y547D01*
X2700Y547D02*
X2782Y547D01*
X1698Y546D02*
X1780Y546D01*
X2700Y546D02*
X2782Y546D01*
X1698Y545D02*
X1781Y545D01*
X2700Y545D02*
X2782Y545D01*
X1698Y544D02*
X1781Y544D01*
X2700Y544D02*
X2782Y544D01*
X1698Y543D02*
X1781Y543D01*
X2699Y543D02*
X2782Y543D01*
X1698Y542D02*
X1781Y542D01*
X2699Y542D02*
X2782Y542D01*
X1698Y541D02*
X1781Y541D01*
X2699Y541D02*
X2782Y541D01*
X1698Y540D02*
X1781Y540D01*
X2699Y540D02*
X2782Y540D01*
X1698Y539D02*
X1781Y539D01*
X2699Y539D02*
X2782Y539D01*
X1698Y538D02*
X1781Y538D01*
X2699Y538D02*
X2782Y538D01*
X1698Y537D02*
X1781Y537D01*
X2699Y537D02*
X2782Y537D01*
X1698Y536D02*
X1781Y536D01*
X2700Y536D02*
X2782Y536D01*
X1698Y535D02*
X1781Y535D01*
X2700Y535D02*
X2782Y535D01*
X1698Y534D02*
X1780Y534D01*
X2700Y534D02*
X2782Y534D01*
X1699Y533D02*
X1780Y533D01*
X2700Y533D02*
X2782Y533D01*
X1699Y532D02*
X1780Y532D01*
X2700Y532D02*
X2782Y532D01*
X1699Y531D02*
X1780Y531D01*
X2700Y531D02*
X2781Y531D01*
X1699Y530D02*
X1780Y530D01*
X2701Y530D02*
X2781Y530D01*
X1699Y529D02*
X1779Y529D01*
X2701Y529D02*
X2781Y529D01*
X1700Y528D02*
X1779Y528D01*
X2701Y528D02*
X2781Y528D01*
X1700Y527D02*
X1779Y527D01*
X2701Y527D02*
X2780Y527D01*
X1700Y526D02*
X1779Y526D01*
X2702Y526D02*
X2780Y526D01*
X1701Y525D02*
X1778Y525D01*
X2702Y525D02*
X2780Y525D01*
X1701Y524D02*
X1778Y524D01*
X2702Y524D02*
X2779Y524D01*
X1702Y523D02*
X1777Y523D01*
X2703Y523D02*
X2779Y523D01*
X1702Y522D02*
X1777Y522D01*
X2703Y522D02*
X2778Y522D01*
X1703Y521D02*
X1776Y521D01*
X2704Y521D02*
X2778Y521D01*
X1703Y520D02*
X1776Y520D01*
X2704Y520D02*
X2777Y520D01*
X1704Y519D02*
X1775Y519D01*
X2705Y519D02*
X2777Y519D01*
X1704Y518D02*
X1775Y518D01*
X2706Y518D02*
X2776Y518D01*
X1705Y517D02*
X1774Y517D01*
X2706Y517D02*
X2775Y517D01*
X1706Y516D02*
X1773Y516D01*
X2707Y516D02*
X2775Y516D01*
X1706Y515D02*
X1773Y515D01*
X2708Y515D02*
X2774Y515D01*
X1707Y514D02*
X1772Y514D01*
X2708Y514D02*
X2773Y514D01*
X1708Y513D02*
X1771Y513D01*
X2709Y513D02*
X2772Y513D01*
X1709Y512D02*
X1770Y512D01*
X2710Y512D02*
X2772Y512D01*
X1710Y511D02*
X1769Y511D01*
X2711Y511D02*
X2771Y511D01*
X1711Y510D02*
X1768Y510D01*
X2712Y510D02*
X2770Y510D01*
X1712Y509D02*
X1767Y509D01*
X2713Y509D02*
X2769Y509D01*
X1713Y508D02*
X1766Y508D01*
X2714Y508D02*
X2768Y508D01*
X1714Y507D02*
X1765Y507D01*
X2715Y507D02*
X2766Y507D01*
X1715Y506D02*
X1763Y506D01*
X2717Y506D02*
X2765Y506D01*
X1717Y505D02*
X1762Y505D01*
X2718Y505D02*
X2763Y505D01*
X1718Y504D02*
X1760Y504D01*
X2720Y504D02*
X2762Y504D01*
X1720Y503D02*
X1759Y503D01*
X2722Y503D02*
X2760Y503D01*
X1722Y502D02*
X1757Y502D01*
X2724Y502D02*
X2758Y502D01*
X1724Y501D02*
X1754Y501D01*
X2726Y501D02*
X2756Y501D01*
X1727Y500D02*
X1752Y500D01*
X2729Y500D02*
X2753Y500D01*
X1731Y499D02*
X1748Y499D01*
X2733Y499D02*
X2749Y499D01*
X2741Y498D02*
X2741Y498D01*
X1731Y481D02*
X1747Y481D01*
X2733Y481D02*
X2749Y481D01*
X1727Y480D02*
X1751Y480D01*
X2729Y480D02*
X2753Y480D01*
X1725Y479D02*
X1754Y479D01*
X2726Y479D02*
X2756Y479D01*
X1722Y478D02*
X1757Y478D01*
X2724Y478D02*
X2758Y478D01*
X1720Y477D02*
X1759Y477D01*
X2722Y477D02*
X2760Y477D01*
X1719Y476D02*
X1760Y476D01*
X2720Y476D02*
X2762Y476D01*
X1717Y475D02*
X1762Y475D01*
X2718Y475D02*
X2763Y475D01*
X1715Y474D02*
X1763Y474D01*
X2717Y474D02*
X2765Y474D01*
X1714Y473D02*
X1765Y473D01*
X2716Y473D02*
X2766Y473D01*
X1713Y472D02*
X1766Y472D01*
X2714Y472D02*
X2767Y472D01*
X1712Y471D02*
X1767Y471D01*
X2713Y471D02*
X2769Y471D01*
X1711Y470D02*
X1768Y470D01*
X2712Y470D02*
X2770Y470D01*
X1710Y469D02*
X1769Y469D01*
X2711Y469D02*
X2771Y469D01*
X1709Y468D02*
X1770Y468D01*
X2710Y468D02*
X2772Y468D01*
X1708Y467D02*
X1771Y467D01*
X2709Y467D02*
X2772Y467D01*
X1707Y466D02*
X1772Y466D01*
X2708Y466D02*
X2773Y466D01*
X1706Y465D02*
X1773Y465D01*
X2708Y465D02*
X2774Y465D01*
X1706Y464D02*
X1773Y464D01*
X2707Y464D02*
X2775Y464D01*
X1705Y463D02*
X1774Y463D01*
X2706Y463D02*
X2775Y463D01*
X1704Y462D02*
X1775Y462D01*
X2706Y462D02*
X2776Y462D01*
X1704Y461D02*
X1775Y461D01*
X2705Y461D02*
X2777Y461D01*
X1703Y460D02*
X1776Y460D01*
X2704Y460D02*
X2777Y460D01*
X1703Y459D02*
X1776Y459D01*
X2704Y459D02*
X2778Y459D01*
X1702Y458D02*
X1777Y458D01*
X2703Y458D02*
X2778Y458D01*
X1702Y457D02*
X1777Y457D01*
X2703Y457D02*
X2779Y457D01*
X1701Y456D02*
X1778Y456D01*
X2703Y456D02*
X2779Y456D01*
X1701Y455D02*
X1778Y455D01*
X2702Y455D02*
X2780Y455D01*
X1700Y454D02*
X1778Y454D01*
X2702Y454D02*
X2780Y454D01*
X1700Y453D02*
X1779Y453D01*
X2701Y453D02*
X2780Y453D01*
X1700Y452D02*
X1779Y452D01*
X2701Y452D02*
X2781Y452D01*
X1699Y451D02*
X1779Y451D01*
X2701Y451D02*
X2781Y451D01*
X1699Y450D02*
X1780Y450D01*
X2701Y450D02*
X2781Y450D01*
X1699Y449D02*
X1780Y449D01*
X2700Y449D02*
X2781Y449D01*
X1699Y448D02*
X1780Y448D01*
X2700Y448D02*
X2782Y448D01*
X1699Y447D02*
X1780Y447D01*
X2700Y447D02*
X2782Y447D01*
X1698Y446D02*
X1780Y446D01*
X2700Y446D02*
X2782Y446D01*
X1698Y445D02*
X1781Y445D01*
X2700Y445D02*
X2782Y445D01*
X1698Y444D02*
X1781Y444D01*
X2700Y444D02*
X2782Y444D01*
X1698Y443D02*
X1781Y443D01*
X2699Y443D02*
X2782Y443D01*
X1698Y442D02*
X1781Y442D01*
X2699Y442D02*
X2782Y442D01*
X1698Y441D02*
X1781Y441D01*
X2699Y441D02*
X2782Y441D01*
X1698Y440D02*
X1781Y440D01*
X2699Y440D02*
X2782Y440D01*
X1698Y439D02*
X1781Y439D01*
X2699Y439D02*
X2782Y439D01*
X1698Y438D02*
X1781Y438D01*
X2699Y438D02*
X2782Y438D01*
X1698Y437D02*
X1781Y437D01*
X2699Y437D02*
X2782Y437D01*
X1698Y436D02*
X1781Y436D01*
X2700Y436D02*
X2782Y436D01*
X1698Y435D02*
X1781Y435D01*
X2700Y435D02*
X2782Y435D01*
X1698Y434D02*
X1780Y434D01*
X2700Y434D02*
X2782Y434D01*
X1699Y433D02*
X1780Y433D01*
X2700Y433D02*
X2782Y433D01*
X1699Y432D02*
X1780Y432D01*
X2700Y432D02*
X2782Y432D01*
X1699Y431D02*
X1780Y431D01*
X2700Y431D02*
X2781Y431D01*
X1699Y430D02*
X1780Y430D01*
X2701Y430D02*
X2781Y430D01*
X1699Y429D02*
X1779Y429D01*
X2701Y429D02*
X2781Y429D01*
X1700Y428D02*
X1779Y428D01*
X2701Y428D02*
X2781Y428D01*
X1700Y427D02*
X1779Y427D01*
X2701Y427D02*
X2780Y427D01*
X1700Y426D02*
X1779Y426D01*
X2702Y426D02*
X2780Y426D01*
X1701Y425D02*
X1778Y425D01*
X2702Y425D02*
X2780Y425D01*
X1701Y424D02*
X1778Y424D01*
X2702Y424D02*
X2779Y424D01*
X1701Y423D02*
X1777Y423D01*
X2703Y423D02*
X2779Y423D01*
X1702Y422D02*
X1777Y422D01*
X2703Y422D02*
X2778Y422D01*
X1702Y421D02*
X1776Y421D01*
X2704Y421D02*
X2778Y421D01*
X1703Y420D02*
X1776Y420D01*
X2704Y420D02*
X2777Y420D01*
X1704Y419D02*
X1775Y419D01*
X2705Y419D02*
X2777Y419D01*
X1704Y418D02*
X1775Y418D01*
X2706Y418D02*
X2776Y418D01*
X1705Y417D02*
X1774Y417D01*
X2706Y417D02*
X2776Y417D01*
X1705Y416D02*
X1773Y416D01*
X2707Y416D02*
X2775Y416D01*
X1706Y415D02*
X1773Y415D01*
X2708Y415D02*
X2774Y415D01*
X1707Y414D02*
X1772Y414D01*
X2708Y414D02*
X2773Y414D01*
X1708Y413D02*
X1771Y413D01*
X2709Y413D02*
X2773Y413D01*
X1709Y412D02*
X1770Y412D01*
X2710Y412D02*
X2772Y412D01*
X1709Y411D02*
X1769Y411D01*
X2711Y411D02*
X2771Y411D01*
X1710Y410D02*
X1768Y410D01*
X2712Y410D02*
X2770Y410D01*
X1711Y409D02*
X1767Y409D01*
X2713Y409D02*
X2769Y409D01*
X1713Y408D02*
X1766Y408D01*
X2714Y408D02*
X2768Y408D01*
X1714Y407D02*
X1765Y407D01*
X2715Y407D02*
X2766Y407D01*
X1715Y406D02*
X1764Y406D01*
X2717Y406D02*
X2765Y406D01*
X1717Y405D02*
X1762Y405D01*
X2718Y405D02*
X2764Y405D01*
X1718Y404D02*
X1761Y404D01*
X2720Y404D02*
X2762Y404D01*
X1720Y403D02*
X1759Y403D01*
X2721Y403D02*
X2760Y403D01*
X1722Y402D02*
X1757Y402D01*
X2723Y402D02*
X2758Y402D01*
X1724Y401D02*
X1755Y401D01*
X2725Y401D02*
X2756Y401D01*
X1727Y400D02*
X1752Y400D01*
X2728Y400D02*
X2753Y400D01*
X1731Y399D02*
X1748Y399D01*
X2732Y399D02*
X2750Y399D01*
X1738Y398D02*
X1741Y398D01*
X2739Y398D02*
X2743Y398D01*
D02*
G04 End of Mask0*
M02*