G04 MADE WITH FRITZING*
G04 WWW.FRITZING.ORG*
G04 DOUBLE SIDED*
G04 HOLES PLATED*
G04 CONTOUR ON CENTER OF CONTOUR VECTOR*
%ASAXBY*%
%FSLAX23Y23*%
%MOIN*%
%OFA0B0*%
%SFA1.0B1.0*%
%ADD10C,0.078000*%
%ADD11C,0.075000*%
%ADD12C,0.074106*%
%ADD13C,0.099000*%
%ADD14C,0.062992*%
%ADD15C,0.074803*%
%ADD16C,0.052000*%
%ADD17C,0.070000*%
%ADD18R,0.078000X0.078000*%
%ADD19R,0.075000X0.075000*%
%ADD20R,0.099000X0.099000*%
%ADD21R,0.062992X0.062992*%
%ADD22R,0.001000X0.001000*%
%LNCOPPER1*%
G90*
G70*
G54D10*
X1439Y2439D03*
X1067Y2439D03*
X1556Y3265D03*
X928Y3265D03*
X1791Y3265D03*
X2066Y3265D03*
X166Y3215D03*
X266Y3215D03*
X366Y3215D03*
X1191Y2290D03*
X1091Y2290D03*
X641Y3215D03*
X741Y3215D03*
G54D11*
X2066Y2540D03*
X3468Y2538D03*
G54D10*
X1866Y2290D03*
X1866Y2190D03*
X2941Y2140D03*
X2941Y2040D03*
X2066Y2290D03*
X2066Y2190D03*
X1966Y2290D03*
X1966Y2190D03*
X2541Y3265D03*
X2641Y3265D03*
X2741Y3265D03*
X2841Y3265D03*
G54D11*
X2591Y1440D03*
X2591Y2965D03*
X2666Y1740D03*
X2666Y3040D03*
X3016Y2340D03*
X3016Y2890D03*
G54D10*
X4841Y2090D03*
X4941Y2090D03*
G54D11*
X3466Y3115D03*
X3366Y3115D03*
G54D12*
X2741Y439D03*
X2741Y540D03*
X2741Y640D03*
X2741Y740D03*
X2741Y840D03*
X2741Y940D03*
X2741Y1040D03*
X2741Y1140D03*
X2741Y1241D03*
X2741Y1341D03*
X2741Y1441D03*
X2741Y1541D03*
X2741Y1641D03*
X2741Y1741D03*
X2741Y1841D03*
X1740Y439D03*
X1740Y540D03*
X1740Y640D03*
X1740Y740D03*
X1740Y840D03*
X1740Y940D03*
X1740Y1040D03*
X1740Y1140D03*
X1740Y1241D03*
X1740Y1341D03*
X1740Y1441D03*
X1740Y1541D03*
X1740Y1641D03*
X1740Y1741D03*
X1740Y1841D03*
G54D10*
X1291Y1840D03*
X1291Y1740D03*
X1291Y1640D03*
X1291Y1540D03*
X1291Y1440D03*
X1291Y1340D03*
X1291Y1240D03*
X1291Y1140D03*
X1291Y1040D03*
X1291Y940D03*
X1291Y840D03*
X1291Y740D03*
X1291Y640D03*
X1191Y1840D03*
X1191Y1740D03*
X1191Y1640D03*
X1191Y1540D03*
X1191Y1440D03*
X1191Y1340D03*
X1191Y1240D03*
X1191Y1140D03*
X1191Y1040D03*
X1191Y940D03*
X1191Y840D03*
X1191Y740D03*
X1191Y640D03*
X1091Y1840D03*
X1091Y1740D03*
X1091Y1640D03*
X1091Y1540D03*
X1091Y1440D03*
X1091Y1340D03*
X1091Y1240D03*
X1091Y1140D03*
X1091Y1040D03*
X1091Y940D03*
X1091Y840D03*
X1091Y740D03*
X1091Y640D03*
X1541Y1840D03*
X1541Y1740D03*
X1541Y1640D03*
X1541Y1540D03*
X1541Y1440D03*
X1541Y1340D03*
X1541Y1240D03*
X1541Y1140D03*
X1541Y1040D03*
X1541Y940D03*
X1541Y840D03*
X1541Y740D03*
X1541Y640D03*
X3291Y1840D03*
X3291Y1740D03*
X3291Y1640D03*
X3291Y1540D03*
X3291Y1440D03*
X3291Y1340D03*
X3291Y1240D03*
X3291Y1140D03*
X3291Y1040D03*
X3291Y940D03*
X3291Y840D03*
X3291Y740D03*
X3291Y640D03*
X3391Y1840D03*
X3391Y1740D03*
X3391Y1640D03*
X3391Y1540D03*
X3391Y1440D03*
X3391Y1340D03*
X3391Y1240D03*
X3391Y1140D03*
X3391Y1040D03*
X3391Y940D03*
X3391Y840D03*
X3391Y740D03*
X3391Y640D03*
X3191Y1840D03*
X3191Y1740D03*
X3191Y1640D03*
X3191Y1540D03*
X3191Y1440D03*
X3191Y1340D03*
X3191Y1240D03*
X3191Y1140D03*
X3191Y1040D03*
X3191Y940D03*
X3191Y840D03*
X3191Y740D03*
X3191Y640D03*
X2941Y1840D03*
X2941Y1740D03*
X2941Y1640D03*
X2941Y1540D03*
X2941Y1440D03*
X2941Y1340D03*
X2941Y1240D03*
X2941Y1140D03*
X2941Y1040D03*
X2941Y940D03*
X2941Y840D03*
X2941Y740D03*
X2941Y640D03*
G54D13*
X4841Y2515D03*
X5041Y2515D03*
X4941Y2315D03*
G54D14*
X3793Y3065D03*
X3793Y3163D03*
X3968Y3065D03*
X3968Y3163D03*
X4143Y3065D03*
X4143Y3163D03*
X4318Y3063D03*
X4318Y3162D03*
G54D11*
X5068Y2713D03*
X4812Y2713D03*
X5068Y2891D03*
X4812Y2891D03*
X5068Y2988D03*
X4812Y2988D03*
X5068Y3166D03*
X4812Y3166D03*
G54D15*
X3267Y2238D03*
X3768Y2238D03*
X3668Y2238D03*
X3568Y2238D03*
X3468Y2238D03*
X3368Y2238D03*
X3267Y2638D03*
X3768Y2638D03*
X3668Y2638D03*
X3568Y2638D03*
X3468Y2638D03*
X3368Y2638D03*
G54D10*
X3668Y2788D03*
X3568Y2788D03*
X3468Y2788D03*
X3368Y2788D03*
X3668Y2088D03*
X3568Y2088D03*
X3468Y2088D03*
X3368Y2088D03*
X3918Y2563D03*
X4018Y2563D03*
X4118Y2563D03*
X4218Y2563D03*
X3918Y2663D03*
X4018Y2663D03*
X4118Y2663D03*
X4218Y2663D03*
G54D16*
X4618Y3163D03*
X4518Y3163D03*
X4518Y2863D03*
X4618Y2863D03*
X4618Y3163D03*
X4518Y3163D03*
X4518Y2863D03*
X4618Y2863D03*
G54D10*
X4418Y2663D03*
X4518Y2663D03*
X4618Y2663D03*
X4718Y2663D03*
X4418Y2563D03*
X4518Y2563D03*
X4618Y2563D03*
X4718Y2563D03*
G54D17*
X4441Y2140D03*
X4186Y2140D03*
X4441Y2140D03*
X4186Y2140D03*
G54D18*
X166Y3215D03*
X1191Y2290D03*
G54D19*
X3466Y3115D03*
G54D20*
X5041Y2515D03*
G54D21*
X3793Y3065D03*
X3968Y3065D03*
X4143Y3065D03*
X4318Y3063D03*
G54D22*
X4512Y3215D02*
X4522Y3215D01*
X4612Y3215D02*
X4622Y3215D01*
X4509Y3214D02*
X4525Y3214D01*
X4609Y3214D02*
X4625Y3214D01*
X4506Y3213D02*
X4528Y3213D01*
X4606Y3213D02*
X4627Y3213D01*
X4505Y3212D02*
X4529Y3212D01*
X4605Y3212D02*
X4629Y3212D01*
X4503Y3211D02*
X4531Y3211D01*
X4603Y3211D02*
X4631Y3211D01*
X4502Y3210D02*
X4532Y3210D01*
X4602Y3210D02*
X4632Y3210D01*
X4500Y3209D02*
X4534Y3209D01*
X4600Y3209D02*
X4634Y3209D01*
X4499Y3208D02*
X4535Y3208D01*
X4599Y3208D02*
X4635Y3208D01*
X4498Y3207D02*
X4536Y3207D01*
X4598Y3207D02*
X4636Y3207D01*
X4498Y3206D02*
X4536Y3206D01*
X4598Y3206D02*
X4636Y3206D01*
X4497Y3205D02*
X4537Y3205D01*
X4597Y3205D02*
X4637Y3205D01*
X4496Y3204D02*
X4538Y3204D01*
X4596Y3204D02*
X4638Y3204D01*
X4495Y3203D02*
X4539Y3203D01*
X4595Y3203D02*
X4639Y3203D01*
X4495Y3202D02*
X4539Y3202D01*
X4595Y3202D02*
X4639Y3202D01*
X4494Y3201D02*
X4540Y3201D01*
X4594Y3201D02*
X4640Y3201D01*
X4494Y3200D02*
X4540Y3200D01*
X4594Y3200D02*
X4640Y3200D01*
X4493Y3199D02*
X4541Y3199D01*
X4593Y3199D02*
X4641Y3199D01*
X4493Y3198D02*
X4541Y3198D01*
X4593Y3198D02*
X4641Y3198D01*
X4493Y3197D02*
X4541Y3197D01*
X4593Y3197D02*
X4641Y3197D01*
X4492Y3196D02*
X4542Y3196D01*
X4592Y3196D02*
X4642Y3196D01*
X4492Y3195D02*
X4542Y3195D01*
X4592Y3195D02*
X4642Y3195D01*
X4492Y3194D02*
X4542Y3194D01*
X4592Y3194D02*
X4642Y3194D01*
X4492Y3193D02*
X4542Y3193D01*
X4592Y3193D02*
X4642Y3193D01*
X4492Y3192D02*
X4542Y3192D01*
X4592Y3192D02*
X4642Y3192D01*
X4492Y3191D02*
X4542Y3191D01*
X4592Y3191D02*
X4642Y3191D01*
X4492Y3190D02*
X4542Y3190D01*
X4592Y3190D02*
X4642Y3190D01*
X4491Y3189D02*
X4542Y3189D01*
X4591Y3189D02*
X4642Y3189D01*
X4491Y3188D02*
X4542Y3188D01*
X4591Y3188D02*
X4642Y3188D01*
X4491Y3187D02*
X4542Y3187D01*
X4591Y3187D02*
X4642Y3187D01*
X4491Y3186D02*
X4542Y3186D01*
X4591Y3186D02*
X4642Y3186D01*
X4491Y3185D02*
X4542Y3185D01*
X4591Y3185D02*
X4642Y3185D01*
X4491Y3184D02*
X4542Y3184D01*
X4591Y3184D02*
X4642Y3184D01*
X4491Y3183D02*
X4542Y3183D01*
X4591Y3183D02*
X4642Y3183D01*
X4491Y3182D02*
X4542Y3182D01*
X4591Y3182D02*
X4642Y3182D01*
X4491Y3181D02*
X4542Y3181D01*
X4591Y3181D02*
X4642Y3181D01*
X4491Y3180D02*
X4542Y3180D01*
X4591Y3180D02*
X4642Y3180D01*
X4491Y3179D02*
X4513Y3179D01*
X4521Y3179D02*
X4542Y3179D01*
X4591Y3179D02*
X4613Y3179D01*
X4621Y3179D02*
X4642Y3179D01*
X4491Y3178D02*
X4510Y3178D01*
X4524Y3178D02*
X4542Y3178D01*
X4591Y3178D02*
X4610Y3178D01*
X4624Y3178D02*
X4642Y3178D01*
X4491Y3177D02*
X4508Y3177D01*
X4526Y3177D02*
X4542Y3177D01*
X4591Y3177D02*
X4608Y3177D01*
X4626Y3177D02*
X4642Y3177D01*
X4491Y3176D02*
X4507Y3176D01*
X4527Y3176D02*
X4542Y3176D01*
X4591Y3176D02*
X4607Y3176D01*
X4627Y3176D02*
X4642Y3176D01*
X4491Y3175D02*
X4505Y3175D01*
X4529Y3175D02*
X4542Y3175D01*
X4591Y3175D02*
X4605Y3175D01*
X4629Y3175D02*
X4642Y3175D01*
X4491Y3174D02*
X4504Y3174D01*
X4529Y3174D02*
X4542Y3174D01*
X4591Y3174D02*
X4604Y3174D01*
X4629Y3174D02*
X4642Y3174D01*
X4491Y3173D02*
X4504Y3173D01*
X4530Y3173D02*
X4542Y3173D01*
X4591Y3173D02*
X4604Y3173D01*
X4630Y3173D02*
X4642Y3173D01*
X4491Y3172D02*
X4503Y3172D01*
X4531Y3172D02*
X4542Y3172D01*
X4591Y3172D02*
X4603Y3172D01*
X4631Y3172D02*
X4642Y3172D01*
X4491Y3171D02*
X4502Y3171D01*
X4532Y3171D02*
X4542Y3171D01*
X4591Y3171D02*
X4602Y3171D01*
X4632Y3171D02*
X4642Y3171D01*
X4491Y3170D02*
X4502Y3170D01*
X4532Y3170D02*
X4542Y3170D01*
X4591Y3170D02*
X4602Y3170D01*
X4632Y3170D02*
X4642Y3170D01*
X4491Y3169D02*
X4502Y3169D01*
X4532Y3169D02*
X4542Y3169D01*
X4591Y3169D02*
X4602Y3169D01*
X4632Y3169D02*
X4642Y3169D01*
X4491Y3168D02*
X4501Y3168D01*
X4533Y3168D02*
X4542Y3168D01*
X4591Y3168D02*
X4601Y3168D01*
X4633Y3168D02*
X4642Y3168D01*
X4491Y3167D02*
X4501Y3167D01*
X4533Y3167D02*
X4542Y3167D01*
X4591Y3167D02*
X4601Y3167D01*
X4633Y3167D02*
X4642Y3167D01*
X4491Y3166D02*
X4501Y3166D01*
X4533Y3166D02*
X4542Y3166D01*
X4591Y3166D02*
X4601Y3166D01*
X4633Y3166D02*
X4642Y3166D01*
X4491Y3165D02*
X4501Y3165D01*
X4533Y3165D02*
X4542Y3165D01*
X4591Y3165D02*
X4601Y3165D01*
X4633Y3165D02*
X4642Y3165D01*
X4491Y3164D02*
X4501Y3164D01*
X4533Y3164D02*
X4542Y3164D01*
X4591Y3164D02*
X4601Y3164D01*
X4633Y3164D02*
X4642Y3164D01*
X4491Y3163D02*
X4501Y3163D01*
X4533Y3163D02*
X4542Y3163D01*
X4591Y3163D02*
X4601Y3163D01*
X4633Y3163D02*
X4642Y3163D01*
X4491Y3162D02*
X4501Y3162D01*
X4533Y3162D02*
X4542Y3162D01*
X4591Y3162D02*
X4601Y3162D01*
X4633Y3162D02*
X4642Y3162D01*
X4491Y3161D02*
X4501Y3161D01*
X4533Y3161D02*
X4542Y3161D01*
X4591Y3161D02*
X4601Y3161D01*
X4633Y3161D02*
X4642Y3161D01*
X4491Y3160D02*
X4501Y3160D01*
X4533Y3160D02*
X4542Y3160D01*
X4591Y3160D02*
X4601Y3160D01*
X4633Y3160D02*
X4642Y3160D01*
X4491Y3159D02*
X4501Y3159D01*
X4533Y3159D02*
X4542Y3159D01*
X4591Y3159D02*
X4601Y3159D01*
X4633Y3159D02*
X4642Y3159D01*
X4491Y3158D02*
X4502Y3158D01*
X4532Y3158D02*
X4542Y3158D01*
X4591Y3158D02*
X4602Y3158D01*
X4632Y3158D02*
X4642Y3158D01*
X4491Y3157D02*
X4502Y3157D01*
X4532Y3157D02*
X4542Y3157D01*
X4591Y3157D02*
X4602Y3157D01*
X4632Y3157D02*
X4642Y3157D01*
X4491Y3156D02*
X4502Y3156D01*
X4532Y3156D02*
X4542Y3156D01*
X4591Y3156D02*
X4602Y3156D01*
X4632Y3156D02*
X4642Y3156D01*
X4491Y3155D02*
X4503Y3155D01*
X4531Y3155D02*
X4542Y3155D01*
X4591Y3155D02*
X4603Y3155D01*
X4631Y3155D02*
X4642Y3155D01*
X4491Y3154D02*
X4504Y3154D01*
X4530Y3154D02*
X4542Y3154D01*
X4591Y3154D02*
X4604Y3154D01*
X4630Y3154D02*
X4642Y3154D01*
X4491Y3153D02*
X4505Y3153D01*
X4529Y3153D02*
X4542Y3153D01*
X4591Y3153D02*
X4605Y3153D01*
X4629Y3153D02*
X4642Y3153D01*
X4491Y3152D02*
X4505Y3152D01*
X4528Y3152D02*
X4542Y3152D01*
X4591Y3152D02*
X4605Y3152D01*
X4628Y3152D02*
X4642Y3152D01*
X4491Y3151D02*
X4507Y3151D01*
X4527Y3151D02*
X4542Y3151D01*
X4591Y3151D02*
X4607Y3151D01*
X4627Y3151D02*
X4642Y3151D01*
X4491Y3150D02*
X4508Y3150D01*
X4526Y3150D02*
X4542Y3150D01*
X4591Y3150D02*
X4608Y3150D01*
X4626Y3150D02*
X4642Y3150D01*
X4491Y3149D02*
X4510Y3149D01*
X4524Y3149D02*
X4542Y3149D01*
X4591Y3149D02*
X4610Y3149D01*
X4624Y3149D02*
X4642Y3149D01*
X4491Y3148D02*
X4513Y3148D01*
X4521Y3148D02*
X4542Y3148D01*
X4591Y3148D02*
X4613Y3148D01*
X4621Y3148D02*
X4642Y3148D01*
X4491Y3147D02*
X4542Y3147D01*
X4591Y3147D02*
X4642Y3147D01*
X4491Y3146D02*
X4542Y3146D01*
X4591Y3146D02*
X4642Y3146D01*
X4491Y3145D02*
X4542Y3145D01*
X4591Y3145D02*
X4642Y3145D01*
X4491Y3144D02*
X4542Y3144D01*
X4591Y3144D02*
X4642Y3144D01*
X4491Y3143D02*
X4542Y3143D01*
X4591Y3143D02*
X4642Y3143D01*
X4491Y3142D02*
X4542Y3142D01*
X4591Y3142D02*
X4642Y3142D01*
X4491Y3141D02*
X4542Y3141D01*
X4591Y3141D02*
X4642Y3141D01*
X4491Y3140D02*
X4542Y3140D01*
X4591Y3140D02*
X4642Y3140D01*
X4491Y3139D02*
X4542Y3139D01*
X4591Y3139D02*
X4642Y3139D01*
X4491Y3138D02*
X4542Y3138D01*
X4591Y3138D02*
X4642Y3138D01*
X4492Y3137D02*
X4542Y3137D01*
X4592Y3137D02*
X4642Y3137D01*
X4492Y3136D02*
X4542Y3136D01*
X4592Y3136D02*
X4642Y3136D01*
X4492Y3135D02*
X4542Y3135D01*
X4592Y3135D02*
X4642Y3135D01*
X4492Y3134D02*
X4542Y3134D01*
X4592Y3134D02*
X4642Y3134D01*
X4492Y3133D02*
X4542Y3133D01*
X4592Y3133D02*
X4642Y3133D01*
X4492Y3132D02*
X4542Y3132D01*
X4592Y3132D02*
X4642Y3132D01*
X4492Y3131D02*
X4542Y3131D01*
X4592Y3131D02*
X4642Y3131D01*
X4493Y3130D02*
X4541Y3130D01*
X4593Y3130D02*
X4641Y3130D01*
X4493Y3129D02*
X4541Y3129D01*
X4593Y3129D02*
X4641Y3129D01*
X4493Y3128D02*
X4541Y3128D01*
X4593Y3128D02*
X4641Y3128D01*
X4494Y3127D02*
X4540Y3127D01*
X4594Y3127D02*
X4640Y3127D01*
X4494Y3126D02*
X4540Y3126D01*
X4594Y3126D02*
X4640Y3126D01*
X4495Y3125D02*
X4539Y3125D01*
X4595Y3125D02*
X4639Y3125D01*
X4495Y3124D02*
X4539Y3124D01*
X4595Y3124D02*
X4639Y3124D01*
X4496Y3123D02*
X4538Y3123D01*
X4596Y3123D02*
X4638Y3123D01*
X4497Y3122D02*
X4537Y3122D01*
X4597Y3122D02*
X4637Y3122D01*
X4498Y3121D02*
X4536Y3121D01*
X4598Y3121D02*
X4636Y3121D01*
X4498Y3120D02*
X4536Y3120D01*
X4598Y3120D02*
X4636Y3120D01*
X4499Y3119D02*
X4535Y3119D01*
X4599Y3119D02*
X4635Y3119D01*
X4500Y3118D02*
X4533Y3118D01*
X4600Y3118D02*
X4633Y3118D01*
X4502Y3117D02*
X4532Y3117D01*
X4602Y3117D02*
X4632Y3117D01*
X4503Y3116D02*
X4531Y3116D01*
X4603Y3116D02*
X4631Y3116D01*
X4505Y3115D02*
X4529Y3115D01*
X4605Y3115D02*
X4629Y3115D01*
X4507Y3114D02*
X4527Y3114D01*
X4607Y3114D02*
X4627Y3114D01*
X4509Y3113D02*
X4525Y3113D01*
X4609Y3113D02*
X4625Y3113D01*
X4513Y3112D02*
X4521Y3112D01*
X4613Y3112D02*
X4621Y3112D01*
X4512Y2915D02*
X4522Y2915D01*
X4612Y2915D02*
X4622Y2915D01*
X4509Y2914D02*
X4525Y2914D01*
X4609Y2914D02*
X4625Y2914D01*
X4506Y2913D02*
X4528Y2913D01*
X4606Y2913D02*
X4628Y2913D01*
X4505Y2912D02*
X4529Y2912D01*
X4605Y2912D02*
X4629Y2912D01*
X4503Y2911D02*
X4531Y2911D01*
X4603Y2911D02*
X4631Y2911D01*
X4502Y2910D02*
X4532Y2910D01*
X4602Y2910D02*
X4632Y2910D01*
X4500Y2909D02*
X4534Y2909D01*
X4600Y2909D02*
X4634Y2909D01*
X4499Y2908D02*
X4535Y2908D01*
X4599Y2908D02*
X4635Y2908D01*
X4498Y2907D02*
X4536Y2907D01*
X4598Y2907D02*
X4636Y2907D01*
X4497Y2906D02*
X4536Y2906D01*
X4597Y2906D02*
X4636Y2906D01*
X4497Y2905D02*
X4537Y2905D01*
X4597Y2905D02*
X4637Y2905D01*
X4496Y2904D02*
X4538Y2904D01*
X4596Y2904D02*
X4638Y2904D01*
X4495Y2903D02*
X4539Y2903D01*
X4595Y2903D02*
X4639Y2903D01*
X4495Y2902D02*
X4539Y2902D01*
X4595Y2902D02*
X4639Y2902D01*
X4494Y2901D02*
X4540Y2901D01*
X4594Y2901D02*
X4640Y2901D01*
X4494Y2900D02*
X4540Y2900D01*
X4594Y2900D02*
X4640Y2900D01*
X4493Y2899D02*
X4541Y2899D01*
X4593Y2899D02*
X4641Y2899D01*
X4493Y2898D02*
X4541Y2898D01*
X4593Y2898D02*
X4641Y2898D01*
X4493Y2897D02*
X4541Y2897D01*
X4593Y2897D02*
X4641Y2897D01*
X4492Y2896D02*
X4542Y2896D01*
X4592Y2896D02*
X4642Y2896D01*
X4492Y2895D02*
X4542Y2895D01*
X4592Y2895D02*
X4642Y2895D01*
X4492Y2894D02*
X4542Y2894D01*
X4592Y2894D02*
X4642Y2894D01*
X4492Y2893D02*
X4542Y2893D01*
X4592Y2893D02*
X4642Y2893D01*
X4492Y2892D02*
X4542Y2892D01*
X4592Y2892D02*
X4642Y2892D01*
X4492Y2891D02*
X4542Y2891D01*
X4592Y2891D02*
X4642Y2891D01*
X4492Y2890D02*
X4542Y2890D01*
X4592Y2890D02*
X4642Y2890D01*
X4491Y2889D02*
X4542Y2889D01*
X4591Y2889D02*
X4642Y2889D01*
X4491Y2888D02*
X4542Y2888D01*
X4591Y2888D02*
X4642Y2888D01*
X4491Y2887D02*
X4542Y2887D01*
X4591Y2887D02*
X4642Y2887D01*
X4491Y2886D02*
X4542Y2886D01*
X4591Y2886D02*
X4642Y2886D01*
X4491Y2885D02*
X4542Y2885D01*
X4591Y2885D02*
X4642Y2885D01*
X4491Y2884D02*
X4542Y2884D01*
X4591Y2884D02*
X4642Y2884D01*
X4491Y2883D02*
X4542Y2883D01*
X4591Y2883D02*
X4642Y2883D01*
X4491Y2882D02*
X4542Y2882D01*
X4591Y2882D02*
X4642Y2882D01*
X4491Y2881D02*
X4542Y2881D01*
X4591Y2881D02*
X4642Y2881D01*
X4491Y2880D02*
X4542Y2880D01*
X4591Y2880D02*
X4642Y2880D01*
X4491Y2879D02*
X4512Y2879D01*
X4522Y2879D02*
X4542Y2879D01*
X4591Y2879D02*
X4612Y2879D01*
X4622Y2879D02*
X4642Y2879D01*
X4491Y2878D02*
X4510Y2878D01*
X4524Y2878D02*
X4542Y2878D01*
X4591Y2878D02*
X4610Y2878D01*
X4624Y2878D02*
X4642Y2878D01*
X4491Y2877D02*
X4508Y2877D01*
X4526Y2877D02*
X4542Y2877D01*
X4591Y2877D02*
X4608Y2877D01*
X4626Y2877D02*
X4642Y2877D01*
X4491Y2876D02*
X4507Y2876D01*
X4527Y2876D02*
X4542Y2876D01*
X4591Y2876D02*
X4607Y2876D01*
X4627Y2876D02*
X4642Y2876D01*
X4491Y2875D02*
X4505Y2875D01*
X4529Y2875D02*
X4542Y2875D01*
X4591Y2875D02*
X4605Y2875D01*
X4629Y2875D02*
X4642Y2875D01*
X4491Y2874D02*
X4504Y2874D01*
X4530Y2874D02*
X4542Y2874D01*
X4591Y2874D02*
X4604Y2874D01*
X4630Y2874D02*
X4642Y2874D01*
X4491Y2873D02*
X4504Y2873D01*
X4530Y2873D02*
X4542Y2873D01*
X4591Y2873D02*
X4604Y2873D01*
X4630Y2873D02*
X4642Y2873D01*
X4491Y2872D02*
X4503Y2872D01*
X4531Y2872D02*
X4542Y2872D01*
X4591Y2872D02*
X4603Y2872D01*
X4631Y2872D02*
X4642Y2872D01*
X4491Y2871D02*
X4502Y2871D01*
X4532Y2871D02*
X4542Y2871D01*
X4591Y2871D02*
X4602Y2871D01*
X4632Y2871D02*
X4642Y2871D01*
X4491Y2870D02*
X4502Y2870D01*
X4532Y2870D02*
X4542Y2870D01*
X4591Y2870D02*
X4602Y2870D01*
X4632Y2870D02*
X4642Y2870D01*
X4491Y2869D02*
X4501Y2869D01*
X4532Y2869D02*
X4542Y2869D01*
X4591Y2869D02*
X4601Y2869D01*
X4632Y2869D02*
X4642Y2869D01*
X4491Y2868D02*
X4501Y2868D01*
X4533Y2868D02*
X4542Y2868D01*
X4591Y2868D02*
X4601Y2868D01*
X4633Y2868D02*
X4642Y2868D01*
X4491Y2867D02*
X4501Y2867D01*
X4533Y2867D02*
X4542Y2867D01*
X4591Y2867D02*
X4601Y2867D01*
X4633Y2867D02*
X4642Y2867D01*
X4491Y2866D02*
X4501Y2866D01*
X4533Y2866D02*
X4542Y2866D01*
X4591Y2866D02*
X4601Y2866D01*
X4633Y2866D02*
X4642Y2866D01*
X4491Y2865D02*
X4501Y2865D01*
X4533Y2865D02*
X4542Y2865D01*
X4591Y2865D02*
X4601Y2865D01*
X4633Y2865D02*
X4642Y2865D01*
X4491Y2864D02*
X4501Y2864D01*
X4533Y2864D02*
X4542Y2864D01*
X4591Y2864D02*
X4601Y2864D01*
X4633Y2864D02*
X4642Y2864D01*
X4491Y2863D02*
X4501Y2863D01*
X4533Y2863D02*
X4542Y2863D01*
X4591Y2863D02*
X4601Y2863D01*
X4633Y2863D02*
X4642Y2863D01*
X4491Y2862D02*
X4501Y2862D01*
X4533Y2862D02*
X4542Y2862D01*
X4591Y2862D02*
X4601Y2862D01*
X4633Y2862D02*
X4642Y2862D01*
X4491Y2861D02*
X4501Y2861D01*
X4533Y2861D02*
X4542Y2861D01*
X4591Y2861D02*
X4601Y2861D01*
X4633Y2861D02*
X4642Y2861D01*
X4491Y2860D02*
X4501Y2860D01*
X4533Y2860D02*
X4542Y2860D01*
X4591Y2860D02*
X4601Y2860D01*
X4633Y2860D02*
X4642Y2860D01*
X4491Y2859D02*
X4501Y2859D01*
X4533Y2859D02*
X4542Y2859D01*
X4591Y2859D02*
X4601Y2859D01*
X4633Y2859D02*
X4642Y2859D01*
X4491Y2858D02*
X4502Y2858D01*
X4532Y2858D02*
X4542Y2858D01*
X4591Y2858D02*
X4602Y2858D01*
X4632Y2858D02*
X4642Y2858D01*
X4491Y2857D02*
X4502Y2857D01*
X4532Y2857D02*
X4542Y2857D01*
X4591Y2857D02*
X4602Y2857D01*
X4632Y2857D02*
X4642Y2857D01*
X4491Y2856D02*
X4502Y2856D01*
X4531Y2856D02*
X4542Y2856D01*
X4591Y2856D02*
X4602Y2856D01*
X4631Y2856D02*
X4642Y2856D01*
X4491Y2855D02*
X4503Y2855D01*
X4531Y2855D02*
X4542Y2855D01*
X4591Y2855D02*
X4603Y2855D01*
X4631Y2855D02*
X4642Y2855D01*
X4491Y2854D02*
X4504Y2854D01*
X4530Y2854D02*
X4542Y2854D01*
X4591Y2854D02*
X4604Y2854D01*
X4630Y2854D02*
X4642Y2854D01*
X4491Y2853D02*
X4505Y2853D01*
X4529Y2853D02*
X4542Y2853D01*
X4591Y2853D02*
X4605Y2853D01*
X4629Y2853D02*
X4642Y2853D01*
X4491Y2852D02*
X4506Y2852D01*
X4528Y2852D02*
X4542Y2852D01*
X4591Y2852D02*
X4606Y2852D01*
X4628Y2852D02*
X4642Y2852D01*
X4491Y2851D02*
X4507Y2851D01*
X4527Y2851D02*
X4542Y2851D01*
X4591Y2851D02*
X4607Y2851D01*
X4627Y2851D02*
X4642Y2851D01*
X4491Y2850D02*
X4508Y2850D01*
X4526Y2850D02*
X4542Y2850D01*
X4591Y2850D02*
X4608Y2850D01*
X4626Y2850D02*
X4642Y2850D01*
X4491Y2849D02*
X4510Y2849D01*
X4524Y2849D02*
X4542Y2849D01*
X4591Y2849D02*
X4610Y2849D01*
X4624Y2849D02*
X4642Y2849D01*
X4491Y2848D02*
X4513Y2848D01*
X4521Y2848D02*
X4542Y2848D01*
X4591Y2848D02*
X4613Y2848D01*
X4621Y2848D02*
X4642Y2848D01*
X4491Y2847D02*
X4542Y2847D01*
X4591Y2847D02*
X4642Y2847D01*
X4491Y2846D02*
X4542Y2846D01*
X4591Y2846D02*
X4642Y2846D01*
X4491Y2845D02*
X4542Y2845D01*
X4591Y2845D02*
X4642Y2845D01*
X4491Y2844D02*
X4542Y2844D01*
X4591Y2844D02*
X4642Y2844D01*
X4491Y2843D02*
X4542Y2843D01*
X4591Y2843D02*
X4642Y2843D01*
X4491Y2842D02*
X4542Y2842D01*
X4591Y2842D02*
X4642Y2842D01*
X4491Y2841D02*
X4542Y2841D01*
X4591Y2841D02*
X4642Y2841D01*
X4491Y2840D02*
X4542Y2840D01*
X4591Y2840D02*
X4642Y2840D01*
X4491Y2839D02*
X4542Y2839D01*
X4591Y2839D02*
X4642Y2839D01*
X4491Y2838D02*
X4542Y2838D01*
X4591Y2838D02*
X4642Y2838D01*
X4492Y2837D02*
X4542Y2837D01*
X4592Y2837D02*
X4642Y2837D01*
X4492Y2836D02*
X4542Y2836D01*
X4592Y2836D02*
X4642Y2836D01*
X4492Y2835D02*
X4542Y2835D01*
X4592Y2835D02*
X4642Y2835D01*
X4492Y2834D02*
X4542Y2834D01*
X4592Y2834D02*
X4642Y2834D01*
X4492Y2833D02*
X4542Y2833D01*
X4592Y2833D02*
X4642Y2833D01*
X4492Y2832D02*
X4542Y2832D01*
X4592Y2832D02*
X4642Y2832D01*
X4492Y2831D02*
X4542Y2831D01*
X4592Y2831D02*
X4642Y2831D01*
X4493Y2830D02*
X4541Y2830D01*
X4593Y2830D02*
X4641Y2830D01*
X4493Y2829D02*
X4541Y2829D01*
X4593Y2829D02*
X4641Y2829D01*
X4493Y2828D02*
X4541Y2828D01*
X4593Y2828D02*
X4641Y2828D01*
X4494Y2827D02*
X4540Y2827D01*
X4594Y2827D02*
X4640Y2827D01*
X4494Y2826D02*
X4540Y2826D01*
X4594Y2826D02*
X4640Y2826D01*
X4495Y2825D02*
X4539Y2825D01*
X4595Y2825D02*
X4639Y2825D01*
X4495Y2824D02*
X4539Y2824D01*
X4595Y2824D02*
X4639Y2824D01*
X4496Y2823D02*
X4538Y2823D01*
X4596Y2823D02*
X4638Y2823D01*
X4497Y2822D02*
X4537Y2822D01*
X4597Y2822D02*
X4637Y2822D01*
X4498Y2821D02*
X4536Y2821D01*
X4598Y2821D02*
X4636Y2821D01*
X4498Y2820D02*
X4536Y2820D01*
X4598Y2820D02*
X4636Y2820D01*
X4499Y2819D02*
X4535Y2819D01*
X4599Y2819D02*
X4635Y2819D01*
X4501Y2818D02*
X4533Y2818D01*
X4601Y2818D02*
X4633Y2818D01*
X4502Y2817D02*
X4532Y2817D01*
X4602Y2817D02*
X4632Y2817D01*
X4503Y2816D02*
X4531Y2816D01*
X4603Y2816D02*
X4631Y2816D01*
X4505Y2815D02*
X4529Y2815D01*
X4605Y2815D02*
X4629Y2815D01*
X4507Y2814D02*
X4527Y2814D01*
X4607Y2814D02*
X4627Y2814D01*
X4509Y2813D02*
X4525Y2813D01*
X4609Y2813D02*
X4625Y2813D01*
X4513Y2812D02*
X4521Y2812D01*
X4613Y2812D02*
X4621Y2812D01*
X1733Y1878D02*
X1746Y1878D01*
X2734Y1878D02*
X2747Y1878D01*
X1729Y1877D02*
X1750Y1877D01*
X2731Y1877D02*
X2751Y1877D01*
X1726Y1876D02*
X1752Y1876D01*
X2728Y1876D02*
X2754Y1876D01*
X1724Y1875D02*
X1755Y1875D01*
X2726Y1875D02*
X2756Y1875D01*
X1722Y1874D02*
X1757Y1874D01*
X2723Y1874D02*
X2758Y1874D01*
X1720Y1873D02*
X1758Y1873D01*
X2722Y1873D02*
X2760Y1873D01*
X1719Y1872D02*
X1760Y1872D01*
X2720Y1872D02*
X2762Y1872D01*
X1717Y1871D02*
X1761Y1871D01*
X2719Y1871D02*
X2763Y1871D01*
X1716Y1870D02*
X1763Y1870D01*
X2717Y1870D02*
X2764Y1870D01*
X1715Y1869D02*
X1764Y1869D01*
X2716Y1869D02*
X2765Y1869D01*
X1714Y1868D02*
X1765Y1868D01*
X2715Y1868D02*
X2766Y1868D01*
X1713Y1867D02*
X1766Y1867D01*
X2714Y1867D02*
X2767Y1867D01*
X1712Y1866D02*
X1767Y1866D01*
X2713Y1866D02*
X2768Y1866D01*
X1711Y1865D02*
X1768Y1865D01*
X2713Y1865D02*
X2769Y1865D01*
X1710Y1864D02*
X1768Y1864D01*
X2712Y1864D02*
X2770Y1864D01*
X1710Y1863D02*
X1769Y1863D01*
X2711Y1863D02*
X2771Y1863D01*
X1709Y1862D02*
X1770Y1862D01*
X2710Y1862D02*
X2771Y1862D01*
X1708Y1861D02*
X1770Y1861D01*
X2710Y1861D02*
X2772Y1861D01*
X1708Y1860D02*
X1771Y1860D01*
X2709Y1860D02*
X2772Y1860D01*
X1707Y1859D02*
X1736Y1859D01*
X1743Y1859D02*
X1772Y1859D01*
X2709Y1859D02*
X2737Y1859D01*
X2745Y1859D02*
X2773Y1859D01*
X1707Y1858D02*
X1732Y1858D01*
X1747Y1858D02*
X1772Y1858D01*
X2708Y1858D02*
X2733Y1858D01*
X2748Y1858D02*
X2773Y1858D01*
X1706Y1857D02*
X1730Y1857D01*
X1749Y1857D02*
X1772Y1857D01*
X2708Y1857D02*
X2732Y1857D01*
X2750Y1857D02*
X2774Y1857D01*
X1706Y1856D02*
X1729Y1856D01*
X1750Y1856D02*
X1773Y1856D01*
X2707Y1856D02*
X2730Y1856D01*
X2752Y1856D02*
X2774Y1856D01*
X1706Y1855D02*
X1728Y1855D01*
X1751Y1855D02*
X1773Y1855D01*
X2707Y1855D02*
X2729Y1855D01*
X2753Y1855D02*
X2775Y1855D01*
X1705Y1854D02*
X1726Y1854D01*
X1752Y1854D02*
X1774Y1854D01*
X2707Y1854D02*
X2728Y1854D01*
X2754Y1854D02*
X2775Y1854D01*
X1705Y1853D02*
X1726Y1853D01*
X1753Y1853D02*
X1774Y1853D01*
X2706Y1853D02*
X2727Y1853D01*
X2755Y1853D02*
X2775Y1853D01*
X1705Y1852D02*
X1725Y1852D01*
X1754Y1852D02*
X1774Y1852D01*
X2706Y1852D02*
X2726Y1852D01*
X2756Y1852D02*
X2776Y1852D01*
X1704Y1851D02*
X1724Y1851D01*
X1755Y1851D02*
X1775Y1851D01*
X2706Y1851D02*
X2725Y1851D01*
X2756Y1851D02*
X2776Y1851D01*
X1704Y1850D02*
X1723Y1850D01*
X1755Y1850D02*
X1775Y1850D01*
X2705Y1850D02*
X2725Y1850D01*
X2757Y1850D02*
X2776Y1850D01*
X1704Y1849D02*
X1723Y1849D01*
X1756Y1849D02*
X1775Y1849D01*
X2705Y1849D02*
X2724Y1849D01*
X2757Y1849D02*
X2777Y1849D01*
X1704Y1848D02*
X1722Y1848D01*
X1756Y1848D02*
X1775Y1848D01*
X2705Y1848D02*
X2724Y1848D01*
X2758Y1848D02*
X2777Y1848D01*
X1703Y1847D02*
X1722Y1847D01*
X1757Y1847D02*
X1775Y1847D01*
X2705Y1847D02*
X2724Y1847D01*
X2758Y1847D02*
X2777Y1847D01*
X1703Y1846D02*
X1722Y1846D01*
X1757Y1846D02*
X1776Y1846D01*
X2705Y1846D02*
X2723Y1846D01*
X2758Y1846D02*
X2777Y1846D01*
X1703Y1845D02*
X1722Y1845D01*
X1757Y1845D02*
X1776Y1845D01*
X2704Y1845D02*
X2723Y1845D01*
X2759Y1845D02*
X2777Y1845D01*
X1703Y1844D02*
X1722Y1844D01*
X1757Y1844D02*
X1776Y1844D01*
X2704Y1844D02*
X2723Y1844D01*
X2759Y1844D02*
X2777Y1844D01*
X1703Y1843D02*
X1722Y1843D01*
X1757Y1843D02*
X1776Y1843D01*
X2704Y1843D02*
X2723Y1843D01*
X2759Y1843D02*
X2777Y1843D01*
X1703Y1842D02*
X1721Y1842D01*
X1757Y1842D02*
X1776Y1842D01*
X2704Y1842D02*
X2723Y1842D01*
X2759Y1842D02*
X2777Y1842D01*
X1703Y1841D02*
X1721Y1841D01*
X1757Y1841D02*
X1776Y1841D01*
X2704Y1841D02*
X2723Y1841D01*
X2759Y1841D02*
X2777Y1841D01*
X1703Y1840D02*
X1722Y1840D01*
X1757Y1840D02*
X1776Y1840D01*
X2704Y1840D02*
X2723Y1840D01*
X2759Y1840D02*
X2777Y1840D01*
X1703Y1839D02*
X1722Y1839D01*
X1757Y1839D02*
X1776Y1839D01*
X2704Y1839D02*
X2723Y1839D01*
X2759Y1839D02*
X2777Y1839D01*
X1703Y1838D02*
X1722Y1838D01*
X1757Y1838D02*
X1776Y1838D01*
X2705Y1838D02*
X2723Y1838D01*
X2759Y1838D02*
X2777Y1838D01*
X1703Y1837D02*
X1722Y1837D01*
X1757Y1837D02*
X1776Y1837D01*
X2705Y1837D02*
X2723Y1837D01*
X2758Y1837D02*
X2777Y1837D01*
X1703Y1836D02*
X1722Y1836D01*
X1757Y1836D02*
X1775Y1836D01*
X2705Y1836D02*
X2724Y1836D01*
X2758Y1836D02*
X2777Y1836D01*
X1704Y1835D02*
X1723Y1835D01*
X1756Y1835D02*
X1775Y1835D01*
X2705Y1835D02*
X2724Y1835D01*
X2758Y1835D02*
X2777Y1835D01*
X1704Y1834D02*
X1723Y1834D01*
X1756Y1834D02*
X1775Y1834D01*
X2705Y1834D02*
X2725Y1834D01*
X2757Y1834D02*
X2776Y1834D01*
X1704Y1833D02*
X1724Y1833D01*
X1755Y1833D02*
X1775Y1833D01*
X2706Y1833D02*
X2725Y1833D01*
X2757Y1833D02*
X2776Y1833D01*
X1704Y1832D02*
X1724Y1832D01*
X1755Y1832D02*
X1774Y1832D01*
X2706Y1832D02*
X2726Y1832D01*
X2756Y1832D02*
X2776Y1832D01*
X1705Y1831D02*
X1725Y1831D01*
X1754Y1831D02*
X1774Y1831D01*
X2706Y1831D02*
X2727Y1831D01*
X2755Y1831D02*
X2776Y1831D01*
X1705Y1830D02*
X1726Y1830D01*
X1753Y1830D02*
X1774Y1830D01*
X2706Y1830D02*
X2727Y1830D01*
X2754Y1830D02*
X2775Y1830D01*
X1705Y1829D02*
X1727Y1829D01*
X1752Y1829D02*
X1774Y1829D01*
X2707Y1829D02*
X2728Y1829D01*
X2753Y1829D02*
X2775Y1829D01*
X1706Y1828D02*
X1728Y1828D01*
X1751Y1828D02*
X1773Y1828D01*
X2707Y1828D02*
X2730Y1828D01*
X2752Y1828D02*
X2775Y1828D01*
X1706Y1827D02*
X1729Y1827D01*
X1750Y1827D02*
X1773Y1827D01*
X2708Y1827D02*
X2731Y1827D01*
X2751Y1827D02*
X2774Y1827D01*
X1707Y1826D02*
X1731Y1826D01*
X1748Y1826D02*
X1772Y1826D01*
X2708Y1826D02*
X2732Y1826D01*
X2749Y1826D02*
X2774Y1826D01*
X1707Y1825D02*
X1733Y1825D01*
X1745Y1825D02*
X1772Y1825D01*
X2709Y1825D02*
X2735Y1825D01*
X2747Y1825D02*
X2773Y1825D01*
X1708Y1824D02*
X1771Y1824D01*
X2709Y1824D02*
X2773Y1824D01*
X1708Y1823D02*
X1771Y1823D01*
X2710Y1823D02*
X2772Y1823D01*
X1709Y1822D02*
X1770Y1822D01*
X2710Y1822D02*
X2772Y1822D01*
X1709Y1821D02*
X1769Y1821D01*
X2711Y1821D02*
X2771Y1821D01*
X1710Y1820D02*
X1769Y1820D01*
X2711Y1820D02*
X2770Y1820D01*
X1711Y1819D02*
X1768Y1819D01*
X2712Y1819D02*
X2769Y1819D01*
X1712Y1818D02*
X1767Y1818D01*
X2713Y1818D02*
X2769Y1818D01*
X1712Y1817D02*
X1766Y1817D01*
X2714Y1817D02*
X2768Y1817D01*
X1713Y1816D02*
X1766Y1816D01*
X2715Y1816D02*
X2767Y1816D01*
X1714Y1815D02*
X1765Y1815D01*
X2716Y1815D02*
X2766Y1815D01*
X1715Y1814D02*
X1763Y1814D01*
X2717Y1814D02*
X2765Y1814D01*
X1717Y1813D02*
X1762Y1813D01*
X2718Y1813D02*
X2764Y1813D01*
X1718Y1812D02*
X1761Y1812D01*
X2719Y1812D02*
X2762Y1812D01*
X1719Y1811D02*
X1759Y1811D01*
X2721Y1811D02*
X2761Y1811D01*
X1721Y1810D02*
X1758Y1810D01*
X2723Y1810D02*
X2759Y1810D01*
X1723Y1809D02*
X1756Y1809D01*
X2724Y1809D02*
X2757Y1809D01*
X1725Y1808D02*
X1754Y1808D01*
X2727Y1808D02*
X2755Y1808D01*
X1728Y1807D02*
X1751Y1807D01*
X2729Y1807D02*
X2753Y1807D01*
X1731Y1806D02*
X1748Y1806D01*
X2732Y1806D02*
X2749Y1806D01*
X1736Y1805D02*
X1743Y1805D01*
X2737Y1805D02*
X2745Y1805D01*
X1734Y1778D02*
X1745Y1778D01*
X2735Y1778D02*
X2747Y1778D01*
X1730Y1777D02*
X1749Y1777D01*
X2731Y1777D02*
X2751Y1777D01*
X1727Y1776D02*
X1752Y1776D01*
X2728Y1776D02*
X2754Y1776D01*
X1724Y1775D02*
X1754Y1775D01*
X2726Y1775D02*
X2756Y1775D01*
X1722Y1774D02*
X1757Y1774D01*
X2724Y1774D02*
X2758Y1774D01*
X1721Y1773D02*
X1758Y1773D01*
X2722Y1773D02*
X2760Y1773D01*
X1719Y1772D02*
X1760Y1772D01*
X2720Y1772D02*
X2761Y1772D01*
X1718Y1771D02*
X1761Y1771D01*
X2719Y1771D02*
X2763Y1771D01*
X1716Y1770D02*
X1763Y1770D01*
X2718Y1770D02*
X2764Y1770D01*
X1715Y1769D02*
X1764Y1769D01*
X2716Y1769D02*
X2765Y1769D01*
X1714Y1768D02*
X1765Y1768D01*
X2715Y1768D02*
X2766Y1768D01*
X1713Y1767D02*
X1766Y1767D01*
X2714Y1767D02*
X2767Y1767D01*
X1712Y1766D02*
X1767Y1766D01*
X2714Y1766D02*
X2768Y1766D01*
X1711Y1765D02*
X1768Y1765D01*
X2713Y1765D02*
X2769Y1765D01*
X1711Y1764D02*
X1768Y1764D01*
X2712Y1764D02*
X2770Y1764D01*
X1710Y1763D02*
X1769Y1763D01*
X2711Y1763D02*
X2770Y1763D01*
X1709Y1762D02*
X1770Y1762D01*
X2711Y1762D02*
X2771Y1762D01*
X1709Y1761D02*
X1770Y1761D01*
X2710Y1761D02*
X2772Y1761D01*
X1708Y1760D02*
X1771Y1760D01*
X2709Y1760D02*
X2772Y1760D01*
X1707Y1759D02*
X1737Y1759D01*
X1742Y1759D02*
X1771Y1759D01*
X2709Y1759D02*
X2739Y1759D01*
X2743Y1759D02*
X2773Y1759D01*
X1707Y1758D02*
X1732Y1758D01*
X1747Y1758D02*
X1772Y1758D01*
X2708Y1758D02*
X2734Y1758D01*
X2748Y1758D02*
X2773Y1758D01*
X1706Y1757D02*
X1730Y1757D01*
X1748Y1757D02*
X1772Y1757D01*
X2708Y1757D02*
X2732Y1757D01*
X2750Y1757D02*
X2774Y1757D01*
X1706Y1756D02*
X1729Y1756D01*
X1750Y1756D02*
X1773Y1756D01*
X2707Y1756D02*
X2730Y1756D01*
X2751Y1756D02*
X2774Y1756D01*
X1706Y1755D02*
X1728Y1755D01*
X1751Y1755D02*
X1773Y1755D01*
X2707Y1755D02*
X2729Y1755D01*
X2753Y1755D02*
X2775Y1755D01*
X1705Y1754D02*
X1727Y1754D01*
X1752Y1754D02*
X1774Y1754D01*
X2707Y1754D02*
X2728Y1754D01*
X2754Y1754D02*
X2775Y1754D01*
X1705Y1753D02*
X1726Y1753D01*
X1753Y1753D02*
X1774Y1753D01*
X2706Y1753D02*
X2727Y1753D01*
X2755Y1753D02*
X2775Y1753D01*
X1705Y1752D02*
X1725Y1752D01*
X1754Y1752D02*
X1774Y1752D01*
X2706Y1752D02*
X2726Y1752D01*
X2755Y1752D02*
X2776Y1752D01*
X1704Y1751D02*
X1724Y1751D01*
X1755Y1751D02*
X1775Y1751D01*
X2706Y1751D02*
X2725Y1751D01*
X2756Y1751D02*
X2776Y1751D01*
X1704Y1750D02*
X1723Y1750D01*
X1755Y1750D02*
X1775Y1750D01*
X2705Y1750D02*
X2725Y1750D01*
X2757Y1750D02*
X2776Y1750D01*
X1704Y1749D02*
X1723Y1749D01*
X1756Y1749D02*
X1775Y1749D01*
X2705Y1749D02*
X2724Y1749D01*
X2757Y1749D02*
X2777Y1749D01*
X1704Y1748D02*
X1722Y1748D01*
X1756Y1748D02*
X1775Y1748D01*
X2705Y1748D02*
X2724Y1748D01*
X2758Y1748D02*
X2777Y1748D01*
X1703Y1747D02*
X1722Y1747D01*
X1757Y1747D02*
X1775Y1747D01*
X2705Y1747D02*
X2724Y1747D01*
X2758Y1747D02*
X2777Y1747D01*
X1703Y1746D02*
X1722Y1746D01*
X1757Y1746D02*
X1776Y1746D01*
X2705Y1746D02*
X2723Y1746D01*
X2758Y1746D02*
X2777Y1746D01*
X1703Y1745D02*
X1722Y1745D01*
X1757Y1745D02*
X1776Y1745D01*
X2705Y1745D02*
X2723Y1745D01*
X2759Y1745D02*
X2777Y1745D01*
X1703Y1744D02*
X1722Y1744D01*
X1757Y1744D02*
X1776Y1744D01*
X2704Y1744D02*
X2723Y1744D01*
X2759Y1744D02*
X2777Y1744D01*
X1703Y1743D02*
X1722Y1743D01*
X1757Y1743D02*
X1776Y1743D01*
X2704Y1743D02*
X2723Y1743D01*
X2759Y1743D02*
X2777Y1743D01*
X1703Y1742D02*
X1721Y1742D01*
X1757Y1742D02*
X1776Y1742D01*
X2704Y1742D02*
X2723Y1742D01*
X2759Y1742D02*
X2777Y1742D01*
X1703Y1741D02*
X1721Y1741D01*
X1757Y1741D02*
X1776Y1741D01*
X2704Y1741D02*
X2723Y1741D01*
X2759Y1741D02*
X2777Y1741D01*
X1703Y1740D02*
X1722Y1740D01*
X1757Y1740D02*
X1776Y1740D01*
X2704Y1740D02*
X2723Y1740D01*
X2759Y1740D02*
X2777Y1740D01*
X1703Y1739D02*
X1722Y1739D01*
X1757Y1739D02*
X1776Y1739D01*
X2704Y1739D02*
X2723Y1739D01*
X2759Y1739D02*
X2777Y1739D01*
X1703Y1738D02*
X1722Y1738D01*
X1757Y1738D02*
X1776Y1738D01*
X2705Y1738D02*
X2723Y1738D01*
X2759Y1738D02*
X2777Y1738D01*
X1703Y1737D02*
X1722Y1737D01*
X1757Y1737D02*
X1776Y1737D01*
X2705Y1737D02*
X2723Y1737D01*
X2758Y1737D02*
X2777Y1737D01*
X1703Y1736D02*
X1722Y1736D01*
X1757Y1736D02*
X1775Y1736D01*
X2705Y1736D02*
X2724Y1736D01*
X2758Y1736D02*
X2777Y1736D01*
X1704Y1735D02*
X1723Y1735D01*
X1756Y1735D02*
X1775Y1735D01*
X2705Y1735D02*
X2724Y1735D01*
X2758Y1735D02*
X2777Y1735D01*
X1704Y1734D02*
X1723Y1734D01*
X1756Y1734D02*
X1775Y1734D01*
X2705Y1734D02*
X2724Y1734D01*
X2757Y1734D02*
X2776Y1734D01*
X1704Y1733D02*
X1724Y1733D01*
X1755Y1733D02*
X1775Y1733D01*
X2705Y1733D02*
X2725Y1733D01*
X2757Y1733D02*
X2776Y1733D01*
X1704Y1732D02*
X1724Y1732D01*
X1755Y1732D02*
X1775Y1732D01*
X2706Y1732D02*
X2726Y1732D01*
X2756Y1732D02*
X2776Y1732D01*
X1705Y1731D02*
X1725Y1731D01*
X1754Y1731D02*
X1774Y1731D01*
X2706Y1731D02*
X2726Y1731D01*
X2755Y1731D02*
X2776Y1731D01*
X1705Y1730D02*
X1726Y1730D01*
X1753Y1730D02*
X1774Y1730D01*
X2706Y1730D02*
X2727Y1730D01*
X2754Y1730D02*
X2775Y1730D01*
X1705Y1729D02*
X1727Y1729D01*
X1752Y1729D02*
X1774Y1729D01*
X2707Y1729D02*
X2728Y1729D01*
X2753Y1729D02*
X2775Y1729D01*
X1706Y1728D02*
X1728Y1728D01*
X1751Y1728D02*
X1773Y1728D01*
X2707Y1728D02*
X2729Y1728D01*
X2752Y1728D02*
X2775Y1728D01*
X1706Y1727D02*
X1729Y1727D01*
X1750Y1727D02*
X1773Y1727D01*
X2707Y1727D02*
X2731Y1727D01*
X2751Y1727D02*
X2774Y1727D01*
X1707Y1726D02*
X1731Y1726D01*
X1748Y1726D02*
X1772Y1726D01*
X2708Y1726D02*
X2732Y1726D01*
X2750Y1726D02*
X2774Y1726D01*
X1707Y1725D02*
X1733Y1725D01*
X1746Y1725D02*
X1772Y1725D01*
X2708Y1725D02*
X2734Y1725D01*
X2747Y1725D02*
X2773Y1725D01*
X1708Y1724D02*
X1771Y1724D01*
X2709Y1724D02*
X2773Y1724D01*
X1708Y1723D02*
X1771Y1723D01*
X2710Y1723D02*
X2772Y1723D01*
X1709Y1722D02*
X1770Y1722D01*
X2710Y1722D02*
X2772Y1722D01*
X1709Y1721D02*
X1770Y1721D01*
X2711Y1721D02*
X2771Y1721D01*
X1710Y1720D02*
X1769Y1720D01*
X2711Y1720D02*
X2770Y1720D01*
X1711Y1719D02*
X1768Y1719D01*
X2712Y1719D02*
X2770Y1719D01*
X1711Y1718D02*
X1767Y1718D01*
X2713Y1718D02*
X2769Y1718D01*
X1712Y1717D02*
X1767Y1717D01*
X2714Y1717D02*
X2768Y1717D01*
X1713Y1716D02*
X1766Y1716D01*
X2715Y1716D02*
X2767Y1716D01*
X1714Y1715D02*
X1765Y1715D01*
X2716Y1715D02*
X2766Y1715D01*
X1715Y1714D02*
X1764Y1714D01*
X2717Y1714D02*
X2765Y1714D01*
X1716Y1713D02*
X1762Y1713D01*
X2718Y1713D02*
X2764Y1713D01*
X1718Y1712D02*
X1761Y1712D01*
X2719Y1712D02*
X2762Y1712D01*
X1719Y1711D02*
X1760Y1711D01*
X2721Y1711D02*
X2761Y1711D01*
X1721Y1710D02*
X1758Y1710D01*
X2722Y1710D02*
X2759Y1710D01*
X1723Y1709D02*
X1756Y1709D01*
X2724Y1709D02*
X2758Y1709D01*
X1725Y1708D02*
X1754Y1708D01*
X2726Y1708D02*
X2755Y1708D01*
X1727Y1707D02*
X1752Y1707D01*
X2729Y1707D02*
X2753Y1707D01*
X1730Y1706D02*
X1749Y1706D01*
X2732Y1706D02*
X2750Y1706D01*
X1735Y1705D02*
X1744Y1705D01*
X2736Y1705D02*
X2745Y1705D01*
X1734Y1678D02*
X1744Y1678D01*
X2736Y1678D02*
X2746Y1678D01*
X1730Y1677D02*
X1749Y1677D01*
X2731Y1677D02*
X2750Y1677D01*
X1727Y1676D02*
X1752Y1676D01*
X2729Y1676D02*
X2753Y1676D01*
X1725Y1675D02*
X1754Y1675D01*
X2726Y1675D02*
X2756Y1675D01*
X1723Y1674D02*
X1756Y1674D01*
X2724Y1674D02*
X2758Y1674D01*
X1721Y1673D02*
X1758Y1673D01*
X2722Y1673D02*
X2759Y1673D01*
X1719Y1672D02*
X1760Y1672D01*
X2721Y1672D02*
X2761Y1672D01*
X1718Y1671D02*
X1761Y1671D01*
X2719Y1671D02*
X2763Y1671D01*
X1716Y1670D02*
X1762Y1670D01*
X2718Y1670D02*
X2764Y1670D01*
X1715Y1669D02*
X1764Y1669D01*
X2717Y1669D02*
X2765Y1669D01*
X1714Y1668D02*
X1765Y1668D01*
X2716Y1668D02*
X2766Y1668D01*
X1713Y1667D02*
X1766Y1667D01*
X2715Y1667D02*
X2767Y1667D01*
X1712Y1666D02*
X1767Y1666D01*
X2714Y1666D02*
X2768Y1666D01*
X1711Y1665D02*
X1767Y1665D01*
X2713Y1665D02*
X2769Y1665D01*
X1711Y1664D02*
X1768Y1664D01*
X2712Y1664D02*
X2770Y1664D01*
X1710Y1663D02*
X1769Y1663D01*
X2711Y1663D02*
X2770Y1663D01*
X1709Y1662D02*
X1770Y1662D01*
X2711Y1662D02*
X2771Y1662D01*
X1709Y1661D02*
X1770Y1661D01*
X2710Y1661D02*
X2772Y1661D01*
X1708Y1660D02*
X1771Y1660D01*
X2709Y1660D02*
X2772Y1660D01*
X1707Y1659D02*
X1771Y1659D01*
X2709Y1659D02*
X2773Y1659D01*
X1707Y1658D02*
X1733Y1658D01*
X1746Y1658D02*
X1772Y1658D01*
X2708Y1658D02*
X2734Y1658D01*
X2748Y1658D02*
X2773Y1658D01*
X1707Y1657D02*
X1731Y1657D01*
X1748Y1657D02*
X1772Y1657D01*
X2708Y1657D02*
X2732Y1657D01*
X2750Y1657D02*
X2774Y1657D01*
X1706Y1656D02*
X1729Y1656D01*
X1750Y1656D02*
X1773Y1656D01*
X2707Y1656D02*
X2730Y1656D01*
X2751Y1656D02*
X2774Y1656D01*
X1706Y1655D02*
X1728Y1655D01*
X1751Y1655D02*
X1773Y1655D01*
X2707Y1655D02*
X2729Y1655D01*
X2752Y1655D02*
X2775Y1655D01*
X1705Y1654D02*
X1727Y1654D01*
X1752Y1654D02*
X1774Y1654D01*
X2707Y1654D02*
X2728Y1654D01*
X2754Y1654D02*
X2775Y1654D01*
X1705Y1653D02*
X1726Y1653D01*
X1753Y1653D02*
X1774Y1653D01*
X2706Y1653D02*
X2727Y1653D01*
X2754Y1653D02*
X2775Y1653D01*
X1705Y1652D02*
X1725Y1652D01*
X1754Y1652D02*
X1774Y1652D01*
X2706Y1652D02*
X2726Y1652D01*
X2755Y1652D02*
X2776Y1652D01*
X1704Y1651D02*
X1724Y1651D01*
X1755Y1651D02*
X1775Y1651D01*
X2706Y1651D02*
X2726Y1651D01*
X2756Y1651D02*
X2776Y1651D01*
X1704Y1650D02*
X1724Y1650D01*
X1755Y1650D02*
X1775Y1650D01*
X2705Y1650D02*
X2725Y1650D01*
X2757Y1650D02*
X2776Y1650D01*
X1704Y1649D02*
X1723Y1649D01*
X1756Y1649D02*
X1775Y1649D01*
X2705Y1649D02*
X2724Y1649D01*
X2757Y1649D02*
X2777Y1649D01*
X1704Y1648D02*
X1723Y1648D01*
X1756Y1648D02*
X1775Y1648D01*
X2705Y1648D02*
X2724Y1648D01*
X2758Y1648D02*
X2777Y1648D01*
X1703Y1647D02*
X1722Y1647D01*
X1757Y1647D02*
X1775Y1647D01*
X2705Y1647D02*
X2724Y1647D01*
X2758Y1647D02*
X2777Y1647D01*
X1703Y1646D02*
X1722Y1646D01*
X1757Y1646D02*
X1776Y1646D01*
X2705Y1646D02*
X2723Y1646D01*
X2758Y1646D02*
X2777Y1646D01*
X1703Y1645D02*
X1722Y1645D01*
X1757Y1645D02*
X1776Y1645D01*
X2705Y1645D02*
X2723Y1645D01*
X2759Y1645D02*
X2777Y1645D01*
X1703Y1644D02*
X1722Y1644D01*
X1757Y1644D02*
X1776Y1644D01*
X2704Y1644D02*
X2723Y1644D01*
X2759Y1644D02*
X2777Y1644D01*
X1703Y1643D02*
X1722Y1643D01*
X1757Y1643D02*
X1776Y1643D01*
X2704Y1643D02*
X2723Y1643D01*
X2759Y1643D02*
X2777Y1643D01*
X1703Y1642D02*
X1721Y1642D01*
X1757Y1642D02*
X1776Y1642D01*
X2704Y1642D02*
X2723Y1642D01*
X2759Y1642D02*
X2777Y1642D01*
X1703Y1641D02*
X1721Y1641D01*
X1757Y1641D02*
X1776Y1641D01*
X2704Y1641D02*
X2723Y1641D01*
X2759Y1641D02*
X2777Y1641D01*
X1703Y1640D02*
X1722Y1640D01*
X1757Y1640D02*
X1776Y1640D01*
X2704Y1640D02*
X2723Y1640D01*
X2759Y1640D02*
X2777Y1640D01*
X1703Y1639D02*
X1722Y1639D01*
X1757Y1639D02*
X1776Y1639D01*
X2704Y1639D02*
X2723Y1639D01*
X2759Y1639D02*
X2777Y1639D01*
X1703Y1638D02*
X1722Y1638D01*
X1757Y1638D02*
X1776Y1638D01*
X2705Y1638D02*
X2723Y1638D01*
X2759Y1638D02*
X2777Y1638D01*
X1703Y1637D02*
X1722Y1637D01*
X1757Y1637D02*
X1776Y1637D01*
X2705Y1637D02*
X2723Y1637D01*
X2758Y1637D02*
X2777Y1637D01*
X1703Y1636D02*
X1722Y1636D01*
X1757Y1636D02*
X1775Y1636D01*
X2705Y1636D02*
X2724Y1636D01*
X2758Y1636D02*
X2777Y1636D01*
X1704Y1635D02*
X1722Y1635D01*
X1756Y1635D02*
X1775Y1635D01*
X2705Y1635D02*
X2724Y1635D01*
X2758Y1635D02*
X2777Y1635D01*
X1704Y1634D02*
X1723Y1634D01*
X1756Y1634D02*
X1775Y1634D01*
X2705Y1634D02*
X2724Y1634D01*
X2757Y1634D02*
X2777Y1634D01*
X1704Y1633D02*
X1724Y1633D01*
X1755Y1633D02*
X1775Y1633D01*
X2705Y1633D02*
X2725Y1633D01*
X2757Y1633D02*
X2776Y1633D01*
X1704Y1632D02*
X1724Y1632D01*
X1755Y1632D02*
X1775Y1632D01*
X2706Y1632D02*
X2726Y1632D01*
X2756Y1632D02*
X2776Y1632D01*
X1705Y1631D02*
X1725Y1631D01*
X1754Y1631D02*
X1774Y1631D01*
X2706Y1631D02*
X2726Y1631D01*
X2755Y1631D02*
X2776Y1631D01*
X1705Y1630D02*
X1726Y1630D01*
X1753Y1630D02*
X1774Y1630D01*
X2706Y1630D02*
X2727Y1630D01*
X2755Y1630D02*
X2775Y1630D01*
X1705Y1629D02*
X1727Y1629D01*
X1752Y1629D02*
X1774Y1629D01*
X2707Y1629D02*
X2728Y1629D01*
X2754Y1629D02*
X2775Y1629D01*
X1706Y1628D02*
X1728Y1628D01*
X1751Y1628D02*
X1773Y1628D01*
X2707Y1628D02*
X2729Y1628D01*
X2752Y1628D02*
X2775Y1628D01*
X1706Y1627D02*
X1729Y1627D01*
X1750Y1627D02*
X1773Y1627D01*
X2707Y1627D02*
X2730Y1627D01*
X2751Y1627D02*
X2774Y1627D01*
X1706Y1626D02*
X1731Y1626D01*
X1748Y1626D02*
X1772Y1626D01*
X2708Y1626D02*
X2732Y1626D01*
X2750Y1626D02*
X2774Y1626D01*
X1707Y1625D02*
X1733Y1625D01*
X1746Y1625D02*
X1772Y1625D01*
X2708Y1625D02*
X2734Y1625D01*
X2748Y1625D02*
X2773Y1625D01*
X1707Y1624D02*
X1738Y1624D01*
X1741Y1624D02*
X1771Y1624D01*
X2709Y1624D02*
X2740Y1624D01*
X2742Y1624D02*
X2773Y1624D01*
X1708Y1623D02*
X1771Y1623D01*
X2709Y1623D02*
X2772Y1623D01*
X1709Y1622D02*
X1770Y1622D01*
X2710Y1622D02*
X2772Y1622D01*
X1709Y1621D02*
X1770Y1621D01*
X2711Y1621D02*
X2771Y1621D01*
X1710Y1620D02*
X1769Y1620D01*
X2711Y1620D02*
X2770Y1620D01*
X1711Y1619D02*
X1768Y1619D01*
X2712Y1619D02*
X2770Y1619D01*
X1711Y1618D02*
X1768Y1618D01*
X2713Y1618D02*
X2769Y1618D01*
X1712Y1617D02*
X1767Y1617D01*
X2714Y1617D02*
X2768Y1617D01*
X1713Y1616D02*
X1766Y1616D01*
X2714Y1616D02*
X2767Y1616D01*
X1714Y1615D02*
X1765Y1615D01*
X2715Y1615D02*
X2766Y1615D01*
X1715Y1614D02*
X1764Y1614D01*
X2717Y1614D02*
X2765Y1614D01*
X1716Y1613D02*
X1763Y1613D01*
X2718Y1613D02*
X2764Y1613D01*
X1718Y1612D02*
X1761Y1612D01*
X2719Y1612D02*
X2763Y1612D01*
X1719Y1611D02*
X1760Y1611D01*
X2720Y1611D02*
X2761Y1611D01*
X1721Y1610D02*
X1758Y1610D01*
X2722Y1610D02*
X2760Y1610D01*
X1722Y1609D02*
X1756Y1609D01*
X2724Y1609D02*
X2758Y1609D01*
X1725Y1608D02*
X1754Y1608D01*
X2726Y1608D02*
X2756Y1608D01*
X1727Y1607D02*
X1752Y1607D01*
X2728Y1607D02*
X2753Y1607D01*
X1730Y1606D02*
X1749Y1606D01*
X2731Y1606D02*
X2750Y1606D01*
X1734Y1605D02*
X1745Y1605D01*
X2735Y1605D02*
X2746Y1605D01*
X1735Y1578D02*
X1744Y1578D01*
X2737Y1578D02*
X2745Y1578D01*
X1731Y1577D02*
X1748Y1577D01*
X2732Y1577D02*
X2750Y1577D01*
X1727Y1576D02*
X1751Y1576D01*
X2729Y1576D02*
X2753Y1576D01*
X1725Y1575D02*
X1754Y1575D01*
X2726Y1575D02*
X2755Y1575D01*
X1723Y1574D02*
X1756Y1574D01*
X2724Y1574D02*
X2757Y1574D01*
X1721Y1573D02*
X1758Y1573D01*
X2722Y1573D02*
X2759Y1573D01*
X1719Y1572D02*
X1760Y1572D01*
X2721Y1572D02*
X2761Y1572D01*
X1718Y1571D02*
X1761Y1571D01*
X2719Y1571D02*
X2762Y1571D01*
X1717Y1570D02*
X1762Y1570D01*
X2718Y1570D02*
X2764Y1570D01*
X1715Y1569D02*
X1763Y1569D01*
X2717Y1569D02*
X2765Y1569D01*
X1714Y1568D02*
X1765Y1568D01*
X2716Y1568D02*
X2766Y1568D01*
X1713Y1567D02*
X1766Y1567D01*
X2715Y1567D02*
X2767Y1567D01*
X1712Y1566D02*
X1766Y1566D01*
X2714Y1566D02*
X2768Y1566D01*
X1711Y1565D02*
X1767Y1565D01*
X2713Y1565D02*
X2769Y1565D01*
X1711Y1564D02*
X1768Y1564D01*
X2712Y1564D02*
X2770Y1564D01*
X1710Y1563D02*
X1769Y1563D01*
X2711Y1563D02*
X2770Y1563D01*
X1709Y1562D02*
X1770Y1562D01*
X2711Y1562D02*
X2771Y1562D01*
X1709Y1561D02*
X1770Y1561D01*
X2710Y1561D02*
X2772Y1561D01*
X1708Y1560D02*
X1771Y1560D01*
X2710Y1560D02*
X2772Y1560D01*
X1708Y1559D02*
X1771Y1559D01*
X2709Y1559D02*
X2773Y1559D01*
X1707Y1558D02*
X1733Y1558D01*
X1746Y1558D02*
X1772Y1558D01*
X2708Y1558D02*
X2735Y1558D01*
X2747Y1558D02*
X2773Y1558D01*
X1707Y1557D02*
X1731Y1557D01*
X1748Y1557D02*
X1772Y1557D01*
X2708Y1557D02*
X2732Y1557D01*
X2749Y1557D02*
X2774Y1557D01*
X1706Y1556D02*
X1729Y1556D01*
X1750Y1556D02*
X1773Y1556D01*
X2708Y1556D02*
X2731Y1556D01*
X2751Y1556D02*
X2774Y1556D01*
X1706Y1555D02*
X1728Y1555D01*
X1751Y1555D02*
X1773Y1555D01*
X2707Y1555D02*
X2729Y1555D01*
X2752Y1555D02*
X2775Y1555D01*
X1705Y1554D02*
X1727Y1554D01*
X1752Y1554D02*
X1774Y1554D01*
X2707Y1554D02*
X2728Y1554D01*
X2753Y1554D02*
X2775Y1554D01*
X1705Y1553D02*
X1726Y1553D01*
X1753Y1553D02*
X1774Y1553D01*
X2706Y1553D02*
X2727Y1553D01*
X2754Y1553D02*
X2775Y1553D01*
X1705Y1552D02*
X1725Y1552D01*
X1754Y1552D02*
X1774Y1552D01*
X2706Y1552D02*
X2726Y1552D01*
X2755Y1552D02*
X2776Y1552D01*
X1704Y1551D02*
X1724Y1551D01*
X1755Y1551D02*
X1775Y1551D01*
X2706Y1551D02*
X2726Y1551D01*
X2756Y1551D02*
X2776Y1551D01*
X1704Y1550D02*
X1724Y1550D01*
X1755Y1550D02*
X1775Y1550D01*
X2705Y1550D02*
X2725Y1550D01*
X2757Y1550D02*
X2776Y1550D01*
X1704Y1549D02*
X1723Y1549D01*
X1756Y1549D02*
X1775Y1549D01*
X2705Y1549D02*
X2724Y1549D01*
X2757Y1549D02*
X2776Y1549D01*
X1704Y1548D02*
X1723Y1548D01*
X1756Y1548D02*
X1775Y1548D01*
X2705Y1548D02*
X2724Y1548D01*
X2758Y1548D02*
X2777Y1548D01*
X1703Y1547D02*
X1722Y1547D01*
X1757Y1547D02*
X1775Y1547D01*
X2705Y1547D02*
X2724Y1547D01*
X2758Y1547D02*
X2777Y1547D01*
X1703Y1546D02*
X1722Y1546D01*
X1757Y1546D02*
X1776Y1546D01*
X2705Y1546D02*
X2723Y1546D01*
X2758Y1546D02*
X2777Y1546D01*
X1703Y1545D02*
X1722Y1545D01*
X1757Y1545D02*
X1776Y1545D01*
X2705Y1545D02*
X2723Y1545D01*
X2759Y1545D02*
X2777Y1545D01*
X1703Y1544D02*
X1722Y1544D01*
X1757Y1544D02*
X1776Y1544D01*
X2704Y1544D02*
X2723Y1544D01*
X2759Y1544D02*
X2777Y1544D01*
X1703Y1543D02*
X1722Y1543D01*
X1757Y1543D02*
X1776Y1543D01*
X2704Y1543D02*
X2723Y1543D01*
X2759Y1543D02*
X2777Y1543D01*
X1703Y1542D02*
X1721Y1542D01*
X1757Y1542D02*
X1776Y1542D01*
X2704Y1542D02*
X2723Y1542D01*
X2759Y1542D02*
X2777Y1542D01*
X1703Y1541D02*
X1721Y1541D01*
X1757Y1541D02*
X1776Y1541D01*
X2704Y1541D02*
X2723Y1541D01*
X2759Y1541D02*
X2777Y1541D01*
X1703Y1540D02*
X1722Y1540D01*
X1757Y1540D02*
X1776Y1540D01*
X2704Y1540D02*
X2723Y1540D01*
X2759Y1540D02*
X2777Y1540D01*
X1703Y1539D02*
X1722Y1539D01*
X1757Y1539D02*
X1776Y1539D01*
X2704Y1539D02*
X2723Y1539D01*
X2759Y1539D02*
X2777Y1539D01*
X1703Y1538D02*
X1722Y1538D01*
X1757Y1538D02*
X1776Y1538D01*
X2704Y1538D02*
X2723Y1538D01*
X2759Y1538D02*
X2777Y1538D01*
X1703Y1537D02*
X1722Y1537D01*
X1757Y1537D02*
X1776Y1537D01*
X2705Y1537D02*
X2723Y1537D01*
X2758Y1537D02*
X2777Y1537D01*
X1703Y1536D02*
X1722Y1536D01*
X1757Y1536D02*
X1775Y1536D01*
X2705Y1536D02*
X2724Y1536D01*
X2758Y1536D02*
X2777Y1536D01*
X1704Y1535D02*
X1722Y1535D01*
X1756Y1535D02*
X1775Y1535D01*
X2705Y1535D02*
X2724Y1535D01*
X2758Y1535D02*
X2777Y1535D01*
X1704Y1534D02*
X1723Y1534D01*
X1756Y1534D02*
X1775Y1534D01*
X2705Y1534D02*
X2724Y1534D01*
X2757Y1534D02*
X2777Y1534D01*
X1704Y1533D02*
X1723Y1533D01*
X1755Y1533D02*
X1775Y1533D01*
X2705Y1533D02*
X2725Y1533D01*
X2757Y1533D02*
X2776Y1533D01*
X1704Y1532D02*
X1724Y1532D01*
X1755Y1532D02*
X1775Y1532D01*
X2706Y1532D02*
X2725Y1532D01*
X2756Y1532D02*
X2776Y1532D01*
X1705Y1531D02*
X1725Y1531D01*
X1754Y1531D02*
X1774Y1531D01*
X2706Y1531D02*
X2726Y1531D01*
X2756Y1531D02*
X2776Y1531D01*
X1705Y1530D02*
X1726Y1530D01*
X1753Y1530D02*
X1774Y1530D01*
X2706Y1530D02*
X2727Y1530D01*
X2755Y1530D02*
X2775Y1530D01*
X1705Y1529D02*
X1727Y1529D01*
X1752Y1529D02*
X1774Y1529D01*
X2707Y1529D02*
X2728Y1529D01*
X2754Y1529D02*
X2775Y1529D01*
X1706Y1528D02*
X1728Y1528D01*
X1751Y1528D02*
X1773Y1528D01*
X2707Y1528D02*
X2729Y1528D01*
X2753Y1528D02*
X2775Y1528D01*
X1706Y1527D02*
X1729Y1527D01*
X1750Y1527D02*
X1773Y1527D01*
X2707Y1527D02*
X2730Y1527D01*
X2751Y1527D02*
X2774Y1527D01*
X1706Y1526D02*
X1730Y1526D01*
X1749Y1526D02*
X1772Y1526D01*
X2708Y1526D02*
X2732Y1526D01*
X2750Y1526D02*
X2774Y1526D01*
X1707Y1525D02*
X1732Y1525D01*
X1747Y1525D02*
X1772Y1525D01*
X2708Y1525D02*
X2734Y1525D01*
X2748Y1525D02*
X2773Y1525D01*
X1707Y1524D02*
X1737Y1524D01*
X1742Y1524D02*
X1771Y1524D01*
X2709Y1524D02*
X2738Y1524D01*
X2744Y1524D02*
X2773Y1524D01*
X1708Y1523D02*
X1771Y1523D01*
X2709Y1523D02*
X2772Y1523D01*
X1709Y1522D02*
X1770Y1522D01*
X2710Y1522D02*
X2772Y1522D01*
X1709Y1521D02*
X1770Y1521D01*
X2711Y1521D02*
X2771Y1521D01*
X1710Y1520D02*
X1769Y1520D01*
X2711Y1520D02*
X2770Y1520D01*
X1710Y1519D02*
X1768Y1519D01*
X2712Y1519D02*
X2770Y1519D01*
X1711Y1518D02*
X1768Y1518D01*
X2713Y1518D02*
X2769Y1518D01*
X1712Y1517D02*
X1767Y1517D01*
X2713Y1517D02*
X2768Y1517D01*
X1713Y1516D02*
X1766Y1516D01*
X2714Y1516D02*
X2767Y1516D01*
X1714Y1515D02*
X1765Y1515D01*
X2715Y1515D02*
X2766Y1515D01*
X1715Y1514D02*
X1764Y1514D01*
X2716Y1514D02*
X2765Y1514D01*
X1716Y1513D02*
X1763Y1513D01*
X2718Y1513D02*
X2764Y1513D01*
X1717Y1512D02*
X1761Y1512D01*
X2719Y1512D02*
X2763Y1512D01*
X1719Y1511D02*
X1760Y1511D01*
X2720Y1511D02*
X2761Y1511D01*
X1720Y1510D02*
X1758Y1510D01*
X2722Y1510D02*
X2760Y1510D01*
X1722Y1509D02*
X1757Y1509D01*
X2724Y1509D02*
X2758Y1509D01*
X1724Y1508D02*
X1755Y1508D01*
X2726Y1508D02*
X2756Y1508D01*
X1727Y1507D02*
X1752Y1507D01*
X2728Y1507D02*
X2754Y1507D01*
X1729Y1506D02*
X1749Y1506D01*
X2731Y1506D02*
X2751Y1506D01*
X1733Y1505D02*
X1746Y1505D01*
X2735Y1505D02*
X2747Y1505D01*
X1736Y1478D02*
X1743Y1478D01*
X2737Y1478D02*
X2744Y1478D01*
X1731Y1477D02*
X1748Y1477D01*
X2732Y1477D02*
X2749Y1477D01*
X1728Y1476D02*
X1751Y1476D01*
X2729Y1476D02*
X2752Y1476D01*
X1725Y1475D02*
X1754Y1475D01*
X2727Y1475D02*
X2755Y1475D01*
X1723Y1474D02*
X1756Y1474D01*
X2725Y1474D02*
X2757Y1474D01*
X1721Y1473D02*
X1758Y1473D01*
X2723Y1473D02*
X2759Y1473D01*
X1720Y1472D02*
X1759Y1472D01*
X2721Y1472D02*
X2761Y1472D01*
X1718Y1471D02*
X1761Y1471D01*
X2720Y1471D02*
X2762Y1471D01*
X1717Y1470D02*
X1762Y1470D01*
X2718Y1470D02*
X2764Y1470D01*
X1716Y1469D02*
X1763Y1469D01*
X2717Y1469D02*
X2765Y1469D01*
X1714Y1468D02*
X1764Y1468D01*
X2716Y1468D02*
X2766Y1468D01*
X1713Y1467D02*
X1765Y1467D01*
X2715Y1467D02*
X2767Y1467D01*
X1712Y1466D02*
X1766Y1466D01*
X2714Y1466D02*
X2768Y1466D01*
X1712Y1465D02*
X1767Y1465D01*
X2713Y1465D02*
X2769Y1465D01*
X1711Y1464D02*
X1768Y1464D01*
X2712Y1464D02*
X2769Y1464D01*
X1710Y1463D02*
X1769Y1463D01*
X2712Y1463D02*
X2770Y1463D01*
X1709Y1462D02*
X1769Y1462D01*
X2711Y1462D02*
X2771Y1462D01*
X1709Y1461D02*
X1770Y1461D01*
X2710Y1461D02*
X2771Y1461D01*
X1708Y1460D02*
X1771Y1460D01*
X2710Y1460D02*
X2772Y1460D01*
X1708Y1459D02*
X1771Y1459D01*
X2709Y1459D02*
X2773Y1459D01*
X1707Y1458D02*
X1734Y1458D01*
X1745Y1458D02*
X1772Y1458D01*
X2709Y1458D02*
X2735Y1458D01*
X2747Y1458D02*
X2773Y1458D01*
X1707Y1457D02*
X1731Y1457D01*
X1748Y1457D02*
X1772Y1457D01*
X2708Y1457D02*
X2733Y1457D01*
X2749Y1457D02*
X2774Y1457D01*
X1706Y1456D02*
X1729Y1456D01*
X1749Y1456D02*
X1773Y1456D01*
X2708Y1456D02*
X2731Y1456D01*
X2751Y1456D02*
X2774Y1456D01*
X1706Y1455D02*
X1728Y1455D01*
X1751Y1455D02*
X1773Y1455D01*
X2707Y1455D02*
X2730Y1455D01*
X2752Y1455D02*
X2775Y1455D01*
X1705Y1454D02*
X1727Y1454D01*
X1752Y1454D02*
X1773Y1454D01*
X2707Y1454D02*
X2728Y1454D01*
X2753Y1454D02*
X2775Y1454D01*
X1705Y1453D02*
X1726Y1453D01*
X1753Y1453D02*
X1774Y1453D01*
X2706Y1453D02*
X2727Y1453D01*
X2754Y1453D02*
X2775Y1453D01*
X1705Y1452D02*
X1725Y1452D01*
X1754Y1452D02*
X1774Y1452D01*
X2706Y1452D02*
X2727Y1452D01*
X2755Y1452D02*
X2776Y1452D01*
X1704Y1451D02*
X1724Y1451D01*
X1755Y1451D02*
X1774Y1451D01*
X2706Y1451D02*
X2726Y1451D01*
X2756Y1451D02*
X2776Y1451D01*
X1704Y1450D02*
X1724Y1450D01*
X1755Y1450D02*
X1775Y1450D01*
X2706Y1450D02*
X2725Y1450D01*
X2757Y1450D02*
X2776Y1450D01*
X1704Y1449D02*
X1723Y1449D01*
X1756Y1449D02*
X1775Y1449D01*
X2705Y1449D02*
X2725Y1449D01*
X2757Y1449D02*
X2776Y1449D01*
X1704Y1448D02*
X1723Y1448D01*
X1756Y1448D02*
X1775Y1448D01*
X2705Y1448D02*
X2724Y1448D01*
X2758Y1448D02*
X2777Y1448D01*
X1703Y1447D02*
X1722Y1447D01*
X1757Y1447D02*
X1775Y1447D01*
X2705Y1447D02*
X2724Y1447D01*
X2758Y1447D02*
X2777Y1447D01*
X1703Y1446D02*
X1722Y1446D01*
X1757Y1446D02*
X1776Y1446D01*
X2705Y1446D02*
X2723Y1446D01*
X2758Y1446D02*
X2777Y1446D01*
X1703Y1445D02*
X1722Y1445D01*
X1757Y1445D02*
X1776Y1445D01*
X2705Y1445D02*
X2723Y1445D01*
X2759Y1445D02*
X2777Y1445D01*
X1703Y1444D02*
X1722Y1444D01*
X1757Y1444D02*
X1776Y1444D01*
X2704Y1444D02*
X2723Y1444D01*
X2759Y1444D02*
X2777Y1444D01*
X1703Y1443D02*
X1722Y1443D01*
X1757Y1443D02*
X1776Y1443D01*
X2704Y1443D02*
X2723Y1443D01*
X2759Y1443D02*
X2777Y1443D01*
X1703Y1442D02*
X1721Y1442D01*
X1757Y1442D02*
X1776Y1442D01*
X2704Y1442D02*
X2723Y1442D01*
X2759Y1442D02*
X2777Y1442D01*
X1703Y1441D02*
X1721Y1441D01*
X1757Y1441D02*
X1776Y1441D01*
X2704Y1441D02*
X2723Y1441D01*
X2759Y1441D02*
X2777Y1441D01*
X1703Y1440D02*
X1721Y1440D01*
X1757Y1440D02*
X1776Y1440D01*
X2704Y1440D02*
X2723Y1440D01*
X2759Y1440D02*
X2777Y1440D01*
X1703Y1439D02*
X1722Y1439D01*
X1757Y1439D02*
X1776Y1439D01*
X2704Y1439D02*
X2723Y1439D01*
X2759Y1439D02*
X2777Y1439D01*
X1703Y1438D02*
X1722Y1438D01*
X1757Y1438D02*
X1776Y1438D01*
X2704Y1438D02*
X2723Y1438D01*
X2759Y1438D02*
X2777Y1438D01*
X1703Y1437D02*
X1722Y1437D01*
X1757Y1437D02*
X1776Y1437D01*
X2705Y1437D02*
X2723Y1437D01*
X2758Y1437D02*
X2777Y1437D01*
X1703Y1436D02*
X1722Y1436D01*
X1757Y1436D02*
X1776Y1436D01*
X2705Y1436D02*
X2724Y1436D01*
X2758Y1436D02*
X2777Y1436D01*
X1704Y1435D02*
X1722Y1435D01*
X1756Y1435D02*
X1775Y1435D01*
X2705Y1435D02*
X2724Y1435D01*
X2758Y1435D02*
X2777Y1435D01*
X1704Y1434D02*
X1723Y1434D01*
X1756Y1434D02*
X1775Y1434D01*
X2705Y1434D02*
X2724Y1434D01*
X2757Y1434D02*
X2777Y1434D01*
X1704Y1433D02*
X1723Y1433D01*
X1755Y1433D02*
X1775Y1433D01*
X2705Y1433D02*
X2725Y1433D01*
X2757Y1433D02*
X2776Y1433D01*
X1704Y1432D02*
X1724Y1432D01*
X1755Y1432D02*
X1775Y1432D01*
X2706Y1432D02*
X2725Y1432D01*
X2756Y1432D02*
X2776Y1432D01*
X1704Y1431D02*
X1725Y1431D01*
X1754Y1431D02*
X1774Y1431D01*
X2706Y1431D02*
X2726Y1431D01*
X2756Y1431D02*
X2776Y1431D01*
X1705Y1430D02*
X1726Y1430D01*
X1753Y1430D02*
X1774Y1430D01*
X2706Y1430D02*
X2727Y1430D01*
X2755Y1430D02*
X2775Y1430D01*
X1705Y1429D02*
X1726Y1429D01*
X1752Y1429D02*
X1774Y1429D01*
X2707Y1429D02*
X2728Y1429D01*
X2754Y1429D02*
X2775Y1429D01*
X1706Y1428D02*
X1727Y1428D01*
X1751Y1428D02*
X1773Y1428D01*
X2707Y1428D02*
X2729Y1428D01*
X2753Y1428D02*
X2775Y1428D01*
X1706Y1427D02*
X1729Y1427D01*
X1750Y1427D02*
X1773Y1427D01*
X2707Y1427D02*
X2730Y1427D01*
X2752Y1427D02*
X2774Y1427D01*
X1706Y1426D02*
X1730Y1426D01*
X1749Y1426D02*
X1772Y1426D01*
X2708Y1426D02*
X2732Y1426D01*
X2750Y1426D02*
X2774Y1426D01*
X1707Y1425D02*
X1732Y1425D01*
X1747Y1425D02*
X1772Y1425D01*
X2708Y1425D02*
X2733Y1425D01*
X2748Y1425D02*
X2773Y1425D01*
X1707Y1424D02*
X1735Y1424D01*
X1744Y1424D02*
X1772Y1424D01*
X2709Y1424D02*
X2737Y1424D01*
X2745Y1424D02*
X2773Y1424D01*
X1708Y1423D02*
X1771Y1423D01*
X2709Y1423D02*
X2772Y1423D01*
X1708Y1422D02*
X1770Y1422D01*
X2710Y1422D02*
X2772Y1422D01*
X1709Y1421D02*
X1770Y1421D01*
X2710Y1421D02*
X2771Y1421D01*
X1710Y1420D02*
X1769Y1420D01*
X2711Y1420D02*
X2771Y1420D01*
X1710Y1419D02*
X1768Y1419D01*
X2712Y1419D02*
X2770Y1419D01*
X1711Y1418D02*
X1768Y1418D01*
X2713Y1418D02*
X2769Y1418D01*
X1712Y1417D02*
X1767Y1417D01*
X2713Y1417D02*
X2768Y1417D01*
X1713Y1416D02*
X1766Y1416D01*
X2714Y1416D02*
X2767Y1416D01*
X1714Y1415D02*
X1765Y1415D01*
X2715Y1415D02*
X2767Y1415D01*
X1715Y1414D02*
X1764Y1414D01*
X2716Y1414D02*
X2765Y1414D01*
X1716Y1413D02*
X1763Y1413D01*
X2717Y1413D02*
X2764Y1413D01*
X1717Y1412D02*
X1762Y1412D01*
X2719Y1412D02*
X2763Y1412D01*
X1719Y1411D02*
X1760Y1411D01*
X2720Y1411D02*
X2762Y1411D01*
X1720Y1410D02*
X1759Y1410D01*
X2722Y1410D02*
X2760Y1410D01*
X1722Y1409D02*
X1757Y1409D01*
X2723Y1409D02*
X2758Y1409D01*
X1724Y1408D02*
X1755Y1408D01*
X2725Y1408D02*
X2756Y1408D01*
X1726Y1407D02*
X1753Y1407D01*
X2728Y1407D02*
X2754Y1407D01*
X1729Y1406D02*
X1750Y1406D01*
X2730Y1406D02*
X2751Y1406D01*
X1733Y1405D02*
X1746Y1405D01*
X2734Y1405D02*
X2748Y1405D01*
X1738Y1378D02*
X1741Y1378D01*
X2739Y1378D02*
X2743Y1378D01*
X1732Y1377D02*
X1747Y1377D01*
X2733Y1377D02*
X2749Y1377D01*
X1728Y1376D02*
X1751Y1376D01*
X2730Y1376D02*
X2752Y1376D01*
X1725Y1375D02*
X1753Y1375D01*
X2727Y1375D02*
X2755Y1375D01*
X1723Y1374D02*
X1755Y1374D01*
X2725Y1374D02*
X2757Y1374D01*
X1721Y1373D02*
X1757Y1373D01*
X2723Y1373D02*
X2759Y1373D01*
X1720Y1372D02*
X1759Y1372D01*
X2721Y1372D02*
X2761Y1372D01*
X1718Y1371D02*
X1761Y1371D01*
X2720Y1371D02*
X2762Y1371D01*
X1717Y1370D02*
X1762Y1370D01*
X2718Y1370D02*
X2763Y1370D01*
X1716Y1369D02*
X1763Y1369D01*
X2717Y1369D02*
X2765Y1369D01*
X1715Y1368D02*
X1764Y1368D01*
X2716Y1368D02*
X2766Y1368D01*
X1713Y1367D02*
X1765Y1367D01*
X2715Y1367D02*
X2767Y1367D01*
X1713Y1366D02*
X1766Y1366D01*
X2714Y1366D02*
X2768Y1366D01*
X1712Y1365D02*
X1767Y1365D01*
X2713Y1365D02*
X2769Y1365D01*
X1711Y1364D02*
X1768Y1364D01*
X2712Y1364D02*
X2769Y1364D01*
X1710Y1363D02*
X1769Y1363D01*
X2712Y1363D02*
X2770Y1363D01*
X1709Y1362D02*
X1769Y1362D01*
X2711Y1362D02*
X2771Y1362D01*
X1709Y1361D02*
X1770Y1361D01*
X2710Y1361D02*
X2771Y1361D01*
X1708Y1360D02*
X1771Y1360D01*
X2710Y1360D02*
X2772Y1360D01*
X1708Y1359D02*
X1771Y1359D01*
X2709Y1359D02*
X2773Y1359D01*
X1707Y1358D02*
X1734Y1358D01*
X1745Y1358D02*
X1772Y1358D01*
X2709Y1358D02*
X2736Y1358D01*
X2746Y1358D02*
X2773Y1358D01*
X1707Y1357D02*
X1731Y1357D01*
X1748Y1357D02*
X1772Y1357D01*
X2708Y1357D02*
X2733Y1357D01*
X2749Y1357D02*
X2774Y1357D01*
X1706Y1356D02*
X1730Y1356D01*
X1749Y1356D02*
X1773Y1356D01*
X2708Y1356D02*
X2731Y1356D01*
X2751Y1356D02*
X2774Y1356D01*
X1706Y1355D02*
X1728Y1355D01*
X1751Y1355D02*
X1773Y1355D01*
X2707Y1355D02*
X2730Y1355D01*
X2752Y1355D02*
X2774Y1355D01*
X1705Y1354D02*
X1727Y1354D01*
X1752Y1354D02*
X1773Y1354D01*
X2707Y1354D02*
X2729Y1354D01*
X2753Y1354D02*
X2775Y1354D01*
X1705Y1353D02*
X1726Y1353D01*
X1753Y1353D02*
X1774Y1353D01*
X2706Y1353D02*
X2728Y1353D01*
X2754Y1353D02*
X2775Y1353D01*
X1705Y1352D02*
X1725Y1352D01*
X1754Y1352D02*
X1774Y1352D01*
X2706Y1352D02*
X2727Y1352D01*
X2755Y1352D02*
X2776Y1352D01*
X1704Y1351D02*
X1724Y1351D01*
X1754Y1351D02*
X1774Y1351D01*
X2706Y1351D02*
X2726Y1351D01*
X2756Y1351D02*
X2776Y1351D01*
X1704Y1350D02*
X1724Y1350D01*
X1755Y1350D02*
X1775Y1350D01*
X2706Y1350D02*
X2725Y1350D01*
X2757Y1350D02*
X2776Y1350D01*
X1704Y1349D02*
X1723Y1349D01*
X1756Y1349D02*
X1775Y1349D01*
X2705Y1349D02*
X2725Y1349D01*
X2757Y1349D02*
X2776Y1349D01*
X1704Y1348D02*
X1723Y1348D01*
X1756Y1348D02*
X1775Y1348D01*
X2705Y1348D02*
X2724Y1348D01*
X2758Y1348D02*
X2777Y1348D01*
X1703Y1347D02*
X1722Y1347D01*
X1757Y1347D02*
X1775Y1347D01*
X2705Y1347D02*
X2724Y1347D01*
X2758Y1347D02*
X2777Y1347D01*
X1703Y1346D02*
X1722Y1346D01*
X1757Y1346D02*
X1776Y1346D01*
X2705Y1346D02*
X2723Y1346D01*
X2758Y1346D02*
X2777Y1346D01*
X1703Y1345D02*
X1722Y1345D01*
X1757Y1345D02*
X1776Y1345D01*
X2705Y1345D02*
X2723Y1345D01*
X2759Y1345D02*
X2777Y1345D01*
X1703Y1344D02*
X1722Y1344D01*
X1757Y1344D02*
X1776Y1344D01*
X2704Y1344D02*
X2723Y1344D01*
X2759Y1344D02*
X2777Y1344D01*
X1703Y1343D02*
X1722Y1343D01*
X1757Y1343D02*
X1776Y1343D01*
X2704Y1343D02*
X2723Y1343D01*
X2759Y1343D02*
X2777Y1343D01*
X1703Y1342D02*
X1721Y1342D01*
X1757Y1342D02*
X1776Y1342D01*
X2704Y1342D02*
X2723Y1342D01*
X2759Y1342D02*
X2777Y1342D01*
X1703Y1341D02*
X1721Y1341D01*
X1757Y1341D02*
X1776Y1341D01*
X2704Y1341D02*
X2723Y1341D01*
X2759Y1341D02*
X2777Y1341D01*
X1703Y1340D02*
X1721Y1340D01*
X1757Y1340D02*
X1776Y1340D01*
X2704Y1340D02*
X2723Y1340D01*
X2759Y1340D02*
X2777Y1340D01*
X1703Y1339D02*
X1722Y1339D01*
X1757Y1339D02*
X1776Y1339D01*
X2704Y1339D02*
X2723Y1339D01*
X2759Y1339D02*
X2777Y1339D01*
X1703Y1338D02*
X1722Y1338D01*
X1757Y1338D02*
X1776Y1338D01*
X2704Y1338D02*
X2723Y1338D01*
X2759Y1338D02*
X2777Y1338D01*
X1703Y1337D02*
X1722Y1337D01*
X1757Y1337D02*
X1776Y1337D01*
X2705Y1337D02*
X2723Y1337D01*
X2758Y1337D02*
X2777Y1337D01*
X1703Y1336D02*
X1722Y1336D01*
X1757Y1336D02*
X1776Y1336D01*
X2705Y1336D02*
X2724Y1336D01*
X2758Y1336D02*
X2777Y1336D01*
X1703Y1335D02*
X1722Y1335D01*
X1756Y1335D02*
X1775Y1335D01*
X2705Y1335D02*
X2724Y1335D01*
X2758Y1335D02*
X2777Y1335D01*
X1704Y1334D02*
X1723Y1334D01*
X1756Y1334D02*
X1775Y1334D01*
X2705Y1334D02*
X2724Y1334D01*
X2758Y1334D02*
X2777Y1334D01*
X1704Y1333D02*
X1723Y1333D01*
X1756Y1333D02*
X1775Y1333D01*
X2705Y1333D02*
X2725Y1333D01*
X2757Y1333D02*
X2776Y1333D01*
X1704Y1332D02*
X1724Y1332D01*
X1755Y1332D02*
X1775Y1332D01*
X2706Y1332D02*
X2725Y1332D01*
X2756Y1332D02*
X2776Y1332D01*
X1704Y1331D02*
X1725Y1331D01*
X1754Y1331D02*
X1774Y1331D01*
X2706Y1331D02*
X2726Y1331D01*
X2756Y1331D02*
X2776Y1331D01*
X1705Y1330D02*
X1725Y1330D01*
X1753Y1330D02*
X1774Y1330D01*
X2706Y1330D02*
X2727Y1330D01*
X2755Y1330D02*
X2776Y1330D01*
X1705Y1329D02*
X1726Y1329D01*
X1753Y1329D02*
X1774Y1329D01*
X2707Y1329D02*
X2728Y1329D01*
X2754Y1329D02*
X2775Y1329D01*
X1705Y1328D02*
X1727Y1328D01*
X1752Y1328D02*
X1773Y1328D01*
X2707Y1328D02*
X2729Y1328D01*
X2753Y1328D02*
X2775Y1328D01*
X1706Y1327D02*
X1728Y1327D01*
X1750Y1327D02*
X1773Y1327D01*
X2707Y1327D02*
X2730Y1327D01*
X2752Y1327D02*
X2774Y1327D01*
X1706Y1326D02*
X1730Y1326D01*
X1749Y1326D02*
X1773Y1326D01*
X2708Y1326D02*
X2731Y1326D01*
X2750Y1326D02*
X2774Y1326D01*
X1707Y1325D02*
X1732Y1325D01*
X1747Y1325D02*
X1772Y1325D01*
X2708Y1325D02*
X2733Y1325D01*
X2749Y1325D02*
X2774Y1325D01*
X1707Y1324D02*
X1735Y1324D01*
X1744Y1324D02*
X1772Y1324D01*
X2709Y1324D02*
X2736Y1324D01*
X2746Y1324D02*
X2773Y1324D01*
X1708Y1323D02*
X1771Y1323D01*
X2709Y1323D02*
X2773Y1323D01*
X1708Y1322D02*
X1770Y1322D01*
X2710Y1322D02*
X2772Y1322D01*
X1709Y1321D02*
X1770Y1321D01*
X2710Y1321D02*
X2771Y1321D01*
X1710Y1320D02*
X1769Y1320D01*
X2711Y1320D02*
X2771Y1320D01*
X1710Y1319D02*
X1769Y1319D01*
X2712Y1319D02*
X2770Y1319D01*
X1711Y1318D02*
X1768Y1318D01*
X2712Y1318D02*
X2769Y1318D01*
X1712Y1317D02*
X1767Y1317D01*
X2713Y1317D02*
X2768Y1317D01*
X1713Y1316D02*
X1766Y1316D01*
X2714Y1316D02*
X2768Y1316D01*
X1714Y1315D02*
X1765Y1315D01*
X2715Y1315D02*
X2767Y1315D01*
X1715Y1314D02*
X1764Y1314D01*
X2716Y1314D02*
X2766Y1314D01*
X1716Y1313D02*
X1763Y1313D01*
X2717Y1313D02*
X2764Y1313D01*
X1717Y1312D02*
X1762Y1312D01*
X2719Y1312D02*
X2763Y1312D01*
X1718Y1311D02*
X1760Y1311D01*
X2720Y1311D02*
X2762Y1311D01*
X1720Y1310D02*
X1759Y1310D01*
X2721Y1310D02*
X2760Y1310D01*
X1722Y1309D02*
X1757Y1309D01*
X2723Y1309D02*
X2759Y1309D01*
X1724Y1308D02*
X1755Y1308D01*
X2725Y1308D02*
X2757Y1308D01*
X1726Y1307D02*
X1753Y1307D01*
X2727Y1307D02*
X2754Y1307D01*
X1729Y1306D02*
X1750Y1306D01*
X2730Y1306D02*
X2752Y1306D01*
X1732Y1305D02*
X1747Y1305D01*
X2734Y1305D02*
X2748Y1305D01*
X1732Y1277D02*
X1747Y1277D01*
X2733Y1277D02*
X2748Y1277D01*
X1728Y1276D02*
X1750Y1276D01*
X2730Y1276D02*
X2752Y1276D01*
X1726Y1275D02*
X1753Y1275D01*
X2727Y1275D02*
X2754Y1275D01*
X1724Y1274D02*
X1755Y1274D01*
X2725Y1274D02*
X2757Y1274D01*
X1722Y1273D02*
X1757Y1273D01*
X2723Y1273D02*
X2759Y1273D01*
X1720Y1272D02*
X1759Y1272D01*
X2721Y1272D02*
X2760Y1272D01*
X1718Y1271D02*
X1760Y1271D01*
X2720Y1271D02*
X2762Y1271D01*
X1717Y1270D02*
X1762Y1270D01*
X2718Y1270D02*
X2763Y1270D01*
X1716Y1269D02*
X1763Y1269D01*
X2717Y1269D02*
X2764Y1269D01*
X1715Y1268D02*
X1764Y1268D01*
X2716Y1268D02*
X2766Y1268D01*
X1714Y1267D02*
X1765Y1267D01*
X2715Y1267D02*
X2767Y1267D01*
X1713Y1266D02*
X1766Y1266D01*
X2714Y1266D02*
X2768Y1266D01*
X1712Y1265D02*
X1767Y1265D01*
X2713Y1265D02*
X2768Y1265D01*
X1711Y1264D02*
X1768Y1264D01*
X2712Y1264D02*
X2769Y1264D01*
X1710Y1263D02*
X1769Y1263D01*
X2712Y1263D02*
X2770Y1263D01*
X1710Y1262D02*
X1769Y1262D01*
X2711Y1262D02*
X2771Y1262D01*
X1709Y1261D02*
X1770Y1261D01*
X2710Y1261D02*
X2771Y1261D01*
X1708Y1260D02*
X1771Y1260D01*
X2710Y1260D02*
X2772Y1260D01*
X1708Y1259D02*
X1771Y1259D01*
X2709Y1259D02*
X2773Y1259D01*
X1707Y1258D02*
X1735Y1258D01*
X1744Y1258D02*
X1772Y1258D01*
X2709Y1258D02*
X2736Y1258D01*
X2746Y1258D02*
X2773Y1258D01*
X1707Y1257D02*
X1732Y1257D01*
X1747Y1257D02*
X1772Y1257D01*
X2708Y1257D02*
X2733Y1257D01*
X2749Y1257D02*
X2774Y1257D01*
X1706Y1256D02*
X1730Y1256D01*
X1749Y1256D02*
X1773Y1256D01*
X2708Y1256D02*
X2731Y1256D01*
X2750Y1256D02*
X2774Y1256D01*
X1706Y1255D02*
X1728Y1255D01*
X1750Y1255D02*
X1773Y1255D01*
X2707Y1255D02*
X2730Y1255D01*
X2752Y1255D02*
X2774Y1255D01*
X1705Y1254D02*
X1727Y1254D01*
X1752Y1254D02*
X1773Y1254D01*
X2707Y1254D02*
X2729Y1254D01*
X2753Y1254D02*
X2775Y1254D01*
X1705Y1253D02*
X1726Y1253D01*
X1753Y1253D02*
X1774Y1253D01*
X2707Y1253D02*
X2728Y1253D01*
X2754Y1253D02*
X2775Y1253D01*
X1705Y1252D02*
X1725Y1252D01*
X1753Y1252D02*
X1774Y1252D01*
X2706Y1252D02*
X2727Y1252D01*
X2755Y1252D02*
X2776Y1252D01*
X1704Y1251D02*
X1725Y1251D01*
X1754Y1251D02*
X1774Y1251D01*
X2706Y1251D02*
X2726Y1251D01*
X2756Y1251D02*
X2776Y1251D01*
X1704Y1250D02*
X1724Y1250D01*
X1755Y1250D02*
X1775Y1250D01*
X2706Y1250D02*
X2725Y1250D01*
X2756Y1250D02*
X2776Y1250D01*
X1704Y1249D02*
X1723Y1249D01*
X1756Y1249D02*
X1775Y1249D01*
X2705Y1249D02*
X2725Y1249D01*
X2757Y1249D02*
X2776Y1249D01*
X1704Y1248D02*
X1723Y1248D01*
X1756Y1248D02*
X1775Y1248D01*
X2705Y1248D02*
X2724Y1248D01*
X2758Y1248D02*
X2777Y1248D01*
X1703Y1247D02*
X1722Y1247D01*
X1756Y1247D02*
X1775Y1247D01*
X2705Y1247D02*
X2724Y1247D01*
X2758Y1247D02*
X2777Y1247D01*
X1703Y1246D02*
X1722Y1246D01*
X1757Y1246D02*
X1776Y1246D01*
X2705Y1246D02*
X2723Y1246D01*
X2758Y1246D02*
X2777Y1246D01*
X1703Y1245D02*
X1722Y1245D01*
X1757Y1245D02*
X1776Y1245D01*
X2705Y1245D02*
X2723Y1245D01*
X2758Y1245D02*
X2777Y1245D01*
X1703Y1244D02*
X1722Y1244D01*
X1757Y1244D02*
X1776Y1244D01*
X2704Y1244D02*
X2723Y1244D01*
X2759Y1244D02*
X2777Y1244D01*
X1703Y1243D02*
X1722Y1243D01*
X1757Y1243D02*
X1776Y1243D01*
X2704Y1243D02*
X2723Y1243D01*
X2759Y1243D02*
X2777Y1243D01*
X1703Y1242D02*
X1721Y1242D01*
X1757Y1242D02*
X1776Y1242D01*
X2704Y1242D02*
X2723Y1242D01*
X2759Y1242D02*
X2777Y1242D01*
X1703Y1241D02*
X1721Y1241D01*
X1757Y1241D02*
X1776Y1241D01*
X2704Y1241D02*
X2723Y1241D01*
X2759Y1241D02*
X2777Y1241D01*
X1703Y1240D02*
X1721Y1240D01*
X1757Y1240D02*
X1776Y1240D01*
X2704Y1240D02*
X2723Y1240D01*
X2759Y1240D02*
X2777Y1240D01*
X1703Y1239D02*
X1722Y1239D01*
X1757Y1239D02*
X1776Y1239D01*
X2704Y1239D02*
X2723Y1239D01*
X2759Y1239D02*
X2777Y1239D01*
X1703Y1238D02*
X1722Y1238D01*
X1757Y1238D02*
X1776Y1238D01*
X2704Y1238D02*
X2723Y1238D01*
X2759Y1238D02*
X2777Y1238D01*
X1703Y1237D02*
X1722Y1237D01*
X1757Y1237D02*
X1776Y1237D01*
X2705Y1237D02*
X2723Y1237D01*
X2759Y1237D02*
X2777Y1237D01*
X1703Y1236D02*
X1722Y1236D01*
X1757Y1236D02*
X1776Y1236D01*
X2705Y1236D02*
X2723Y1236D01*
X2758Y1236D02*
X2777Y1236D01*
X1703Y1235D02*
X1722Y1235D01*
X1757Y1235D02*
X1775Y1235D01*
X2705Y1235D02*
X2724Y1235D01*
X2758Y1235D02*
X2777Y1235D01*
X1704Y1234D02*
X1723Y1234D01*
X1756Y1234D02*
X1775Y1234D01*
X2705Y1234D02*
X2724Y1234D01*
X2758Y1234D02*
X2777Y1234D01*
X1704Y1233D02*
X1723Y1233D01*
X1756Y1233D02*
X1775Y1233D01*
X2705Y1233D02*
X2725Y1233D01*
X2757Y1233D02*
X2776Y1233D01*
X1704Y1232D02*
X1724Y1232D01*
X1755Y1232D02*
X1775Y1232D01*
X2706Y1232D02*
X2725Y1232D01*
X2756Y1232D02*
X2776Y1232D01*
X1704Y1231D02*
X1724Y1231D01*
X1754Y1231D02*
X1774Y1231D01*
X2706Y1231D02*
X2726Y1231D01*
X2756Y1231D02*
X2776Y1231D01*
X1705Y1230D02*
X1725Y1230D01*
X1754Y1230D02*
X1774Y1230D01*
X2706Y1230D02*
X2727Y1230D01*
X2755Y1230D02*
X2776Y1230D01*
X1705Y1229D02*
X1726Y1229D01*
X1753Y1229D02*
X1774Y1229D01*
X2706Y1229D02*
X2728Y1229D01*
X2754Y1229D02*
X2775Y1229D01*
X1705Y1228D02*
X1727Y1228D01*
X1752Y1228D02*
X1773Y1228D01*
X2707Y1228D02*
X2729Y1228D01*
X2753Y1228D02*
X2775Y1228D01*
X1706Y1227D02*
X1728Y1227D01*
X1751Y1227D02*
X1773Y1227D01*
X2707Y1227D02*
X2730Y1227D01*
X2752Y1227D02*
X2774Y1227D01*
X1706Y1226D02*
X1730Y1226D01*
X1749Y1226D02*
X1773Y1226D01*
X2708Y1226D02*
X2731Y1226D01*
X2751Y1226D02*
X2774Y1226D01*
X1707Y1225D02*
X1731Y1225D01*
X1747Y1225D02*
X1772Y1225D01*
X2708Y1225D02*
X2733Y1225D01*
X2749Y1225D02*
X2774Y1225D01*
X1707Y1224D02*
X1734Y1224D01*
X1745Y1224D02*
X1772Y1224D01*
X2709Y1224D02*
X2736Y1224D01*
X2746Y1224D02*
X2773Y1224D01*
X1708Y1223D02*
X1771Y1223D01*
X2709Y1223D02*
X2773Y1223D01*
X1708Y1222D02*
X1771Y1222D01*
X2710Y1222D02*
X2772Y1222D01*
X1709Y1221D02*
X1770Y1221D01*
X2710Y1221D02*
X2771Y1221D01*
X1709Y1220D02*
X1769Y1220D01*
X2711Y1220D02*
X2771Y1220D01*
X1710Y1219D02*
X1769Y1219D01*
X2712Y1219D02*
X2770Y1219D01*
X1711Y1218D02*
X1768Y1218D01*
X2712Y1218D02*
X2769Y1218D01*
X1712Y1217D02*
X1767Y1217D01*
X2713Y1217D02*
X2769Y1217D01*
X1713Y1216D02*
X1766Y1216D01*
X2714Y1216D02*
X2768Y1216D01*
X1714Y1215D02*
X1765Y1215D01*
X2715Y1215D02*
X2767Y1215D01*
X1715Y1214D02*
X1764Y1214D01*
X2716Y1214D02*
X2766Y1214D01*
X1716Y1213D02*
X1763Y1213D01*
X2717Y1213D02*
X2765Y1213D01*
X1717Y1212D02*
X1762Y1212D01*
X2718Y1212D02*
X2763Y1212D01*
X1718Y1211D02*
X1761Y1211D01*
X2720Y1211D02*
X2762Y1211D01*
X1720Y1210D02*
X1759Y1210D01*
X2721Y1210D02*
X2760Y1210D01*
X1722Y1209D02*
X1757Y1209D01*
X2723Y1209D02*
X2759Y1209D01*
X1723Y1208D02*
X1755Y1208D01*
X2725Y1208D02*
X2757Y1208D01*
X1726Y1207D02*
X1753Y1207D01*
X2727Y1207D02*
X2755Y1207D01*
X1728Y1206D02*
X1751Y1206D01*
X2730Y1206D02*
X2752Y1206D01*
X1732Y1205D02*
X1747Y1205D01*
X2733Y1205D02*
X2749Y1205D01*
X1738Y1204D02*
X1741Y1204D01*
X2740Y1204D02*
X2742Y1204D01*
X1732Y1177D02*
X1746Y1177D01*
X2734Y1177D02*
X2748Y1177D01*
X1729Y1176D02*
X1750Y1176D01*
X2730Y1176D02*
X2751Y1176D01*
X1726Y1175D02*
X1753Y1175D01*
X2728Y1175D02*
X2754Y1175D01*
X1724Y1174D02*
X1755Y1174D01*
X2725Y1174D02*
X2756Y1174D01*
X1722Y1173D02*
X1757Y1173D01*
X2723Y1173D02*
X2758Y1173D01*
X1720Y1172D02*
X1759Y1172D01*
X2722Y1172D02*
X2760Y1172D01*
X1719Y1171D02*
X1760Y1171D01*
X2720Y1171D02*
X2762Y1171D01*
X1717Y1170D02*
X1762Y1170D01*
X2719Y1170D02*
X2763Y1170D01*
X1716Y1169D02*
X1763Y1169D01*
X2717Y1169D02*
X2764Y1169D01*
X1715Y1168D02*
X1764Y1168D01*
X2716Y1168D02*
X2765Y1168D01*
X1714Y1167D02*
X1765Y1167D01*
X2715Y1167D02*
X2767Y1167D01*
X1713Y1166D02*
X1766Y1166D01*
X2714Y1166D02*
X2767Y1166D01*
X1712Y1165D02*
X1767Y1165D01*
X2713Y1165D02*
X2768Y1165D01*
X1711Y1164D02*
X1768Y1164D01*
X2713Y1164D02*
X2769Y1164D01*
X1710Y1163D02*
X1768Y1163D01*
X2712Y1163D02*
X2770Y1163D01*
X1710Y1162D02*
X1769Y1162D01*
X2711Y1162D02*
X2771Y1162D01*
X1709Y1161D02*
X1770Y1161D01*
X2710Y1161D02*
X2771Y1161D01*
X1708Y1160D02*
X1770Y1160D01*
X2710Y1160D02*
X2772Y1160D01*
X1708Y1159D02*
X1771Y1159D01*
X2709Y1159D02*
X2772Y1159D01*
X1707Y1158D02*
X1735Y1158D01*
X1744Y1158D02*
X1772Y1158D01*
X2709Y1158D02*
X2737Y1158D01*
X2745Y1158D02*
X2773Y1158D01*
X1707Y1157D02*
X1732Y1157D01*
X1747Y1157D02*
X1772Y1157D01*
X2708Y1157D02*
X2733Y1157D01*
X2748Y1157D02*
X2773Y1157D01*
X1706Y1156D02*
X1730Y1156D01*
X1749Y1156D02*
X1773Y1156D01*
X2708Y1156D02*
X2731Y1156D01*
X2750Y1156D02*
X2774Y1156D01*
X1706Y1155D02*
X1729Y1155D01*
X1750Y1155D02*
X1773Y1155D01*
X2707Y1155D02*
X2730Y1155D01*
X2752Y1155D02*
X2774Y1155D01*
X1706Y1154D02*
X1727Y1154D01*
X1751Y1154D02*
X1773Y1154D01*
X2707Y1154D02*
X2729Y1154D01*
X2753Y1154D02*
X2775Y1154D01*
X1705Y1153D02*
X1726Y1153D01*
X1752Y1153D02*
X1774Y1153D01*
X2707Y1153D02*
X2728Y1153D01*
X2754Y1153D02*
X2775Y1153D01*
X1705Y1152D02*
X1725Y1152D01*
X1753Y1152D02*
X1774Y1152D01*
X2706Y1152D02*
X2727Y1152D01*
X2755Y1152D02*
X2775Y1152D01*
X1704Y1151D02*
X1725Y1151D01*
X1754Y1151D02*
X1774Y1151D01*
X2706Y1151D02*
X2726Y1151D01*
X2756Y1151D02*
X2776Y1151D01*
X1704Y1150D02*
X1724Y1150D01*
X1755Y1150D02*
X1775Y1150D01*
X2706Y1150D02*
X2725Y1150D01*
X2756Y1150D02*
X2776Y1150D01*
X1704Y1149D02*
X1723Y1149D01*
X1756Y1149D02*
X1775Y1149D01*
X2705Y1149D02*
X2725Y1149D01*
X2757Y1149D02*
X2776Y1149D01*
X1704Y1148D02*
X1723Y1148D01*
X1756Y1148D02*
X1775Y1148D01*
X2705Y1148D02*
X2724Y1148D01*
X2757Y1148D02*
X2777Y1148D01*
X1704Y1147D02*
X1722Y1147D01*
X1756Y1147D02*
X1775Y1147D01*
X2705Y1147D02*
X2724Y1147D01*
X2758Y1147D02*
X2777Y1147D01*
X1703Y1146D02*
X1722Y1146D01*
X1757Y1146D02*
X1776Y1146D01*
X2705Y1146D02*
X2724Y1146D01*
X2758Y1146D02*
X2777Y1146D01*
X1703Y1145D02*
X1722Y1145D01*
X1757Y1145D02*
X1776Y1145D01*
X2705Y1145D02*
X2723Y1145D01*
X2758Y1145D02*
X2777Y1145D01*
X1703Y1144D02*
X1722Y1144D01*
X1757Y1144D02*
X1776Y1144D01*
X2704Y1144D02*
X2723Y1144D01*
X2759Y1144D02*
X2777Y1144D01*
X1703Y1143D02*
X1722Y1143D01*
X1757Y1143D02*
X1776Y1143D01*
X2704Y1143D02*
X2723Y1143D01*
X2759Y1143D02*
X2777Y1143D01*
X1703Y1142D02*
X1721Y1142D01*
X1757Y1142D02*
X1776Y1142D01*
X2704Y1142D02*
X2723Y1142D01*
X2759Y1142D02*
X2777Y1142D01*
X1703Y1141D02*
X1721Y1141D01*
X1757Y1141D02*
X1776Y1141D01*
X2704Y1141D02*
X2723Y1141D01*
X2759Y1141D02*
X2777Y1141D01*
X1703Y1140D02*
X1721Y1140D01*
X1757Y1140D02*
X1776Y1140D01*
X2704Y1140D02*
X2723Y1140D01*
X2759Y1140D02*
X2777Y1140D01*
X1703Y1139D02*
X1722Y1139D01*
X1757Y1139D02*
X1776Y1139D01*
X2704Y1139D02*
X2723Y1139D01*
X2759Y1139D02*
X2777Y1139D01*
X1703Y1138D02*
X1722Y1138D01*
X1757Y1138D02*
X1776Y1138D01*
X2704Y1138D02*
X2723Y1138D01*
X2759Y1138D02*
X2777Y1138D01*
X1703Y1137D02*
X1722Y1137D01*
X1757Y1137D02*
X1776Y1137D01*
X2705Y1137D02*
X2723Y1137D01*
X2759Y1137D02*
X2777Y1137D01*
X1703Y1136D02*
X1722Y1136D01*
X1757Y1136D02*
X1776Y1136D01*
X2705Y1136D02*
X2723Y1136D01*
X2758Y1136D02*
X2777Y1136D01*
X1703Y1135D02*
X1722Y1135D01*
X1757Y1135D02*
X1775Y1135D01*
X2705Y1135D02*
X2724Y1135D01*
X2758Y1135D02*
X2777Y1135D01*
X1704Y1134D02*
X1723Y1134D01*
X1756Y1134D02*
X1775Y1134D01*
X2705Y1134D02*
X2724Y1134D01*
X2758Y1134D02*
X2777Y1134D01*
X1704Y1133D02*
X1723Y1133D01*
X1756Y1133D02*
X1775Y1133D01*
X2705Y1133D02*
X2725Y1133D01*
X2757Y1133D02*
X2776Y1133D01*
X1704Y1132D02*
X1724Y1132D01*
X1755Y1132D02*
X1775Y1132D01*
X2706Y1132D02*
X2725Y1132D01*
X2757Y1132D02*
X2776Y1132D01*
X1704Y1131D02*
X1724Y1131D01*
X1755Y1131D02*
X1774Y1131D01*
X2706Y1131D02*
X2726Y1131D01*
X2756Y1131D02*
X2776Y1131D01*
X1705Y1130D02*
X1725Y1130D01*
X1754Y1130D02*
X1774Y1130D01*
X2706Y1130D02*
X2727Y1130D01*
X2755Y1130D02*
X2776Y1130D01*
X1705Y1129D02*
X1726Y1129D01*
X1753Y1129D02*
X1774Y1129D01*
X2706Y1129D02*
X2727Y1129D01*
X2754Y1129D02*
X2775Y1129D01*
X1705Y1128D02*
X1727Y1128D01*
X1752Y1128D02*
X1773Y1128D01*
X2707Y1128D02*
X2728Y1128D01*
X2753Y1128D02*
X2775Y1128D01*
X1706Y1127D02*
X1728Y1127D01*
X1751Y1127D02*
X1773Y1127D01*
X2707Y1127D02*
X2730Y1127D01*
X2752Y1127D02*
X2775Y1127D01*
X1706Y1126D02*
X1729Y1126D01*
X1749Y1126D02*
X1773Y1126D01*
X2708Y1126D02*
X2731Y1126D01*
X2751Y1126D02*
X2774Y1126D01*
X1707Y1125D02*
X1731Y1125D01*
X1748Y1125D02*
X1772Y1125D01*
X2708Y1125D02*
X2733Y1125D01*
X2749Y1125D02*
X2774Y1125D01*
X1707Y1124D02*
X1734Y1124D01*
X1745Y1124D02*
X1772Y1124D01*
X2709Y1124D02*
X2735Y1124D01*
X2747Y1124D02*
X2773Y1124D01*
X1708Y1123D02*
X1771Y1123D01*
X2709Y1123D02*
X2773Y1123D01*
X1708Y1122D02*
X1771Y1122D01*
X2710Y1122D02*
X2772Y1122D01*
X1709Y1121D02*
X1770Y1121D01*
X2710Y1121D02*
X2771Y1121D01*
X1709Y1120D02*
X1769Y1120D01*
X2711Y1120D02*
X2771Y1120D01*
X1710Y1119D02*
X1769Y1119D01*
X2712Y1119D02*
X2770Y1119D01*
X1711Y1118D02*
X1768Y1118D01*
X2712Y1118D02*
X2769Y1118D01*
X1712Y1117D02*
X1767Y1117D01*
X2713Y1117D02*
X2769Y1117D01*
X1712Y1116D02*
X1766Y1116D01*
X2714Y1116D02*
X2768Y1116D01*
X1713Y1115D02*
X1765Y1115D01*
X2715Y1115D02*
X2767Y1115D01*
X1714Y1114D02*
X1764Y1114D01*
X2716Y1114D02*
X2766Y1114D01*
X1716Y1113D02*
X1763Y1113D01*
X2717Y1113D02*
X2765Y1113D01*
X1717Y1112D02*
X1762Y1112D01*
X2718Y1112D02*
X2764Y1112D01*
X1718Y1111D02*
X1761Y1111D01*
X2720Y1111D02*
X2762Y1111D01*
X1720Y1110D02*
X1759Y1110D01*
X2721Y1110D02*
X2761Y1110D01*
X1721Y1109D02*
X1758Y1109D01*
X2723Y1109D02*
X2759Y1109D01*
X1723Y1108D02*
X1756Y1108D01*
X2725Y1108D02*
X2757Y1108D01*
X1725Y1107D02*
X1754Y1107D01*
X2727Y1107D02*
X2755Y1107D01*
X1728Y1106D02*
X1751Y1106D01*
X2729Y1106D02*
X2752Y1106D01*
X1731Y1105D02*
X1748Y1105D01*
X2733Y1105D02*
X2749Y1105D01*
X1736Y1104D02*
X1743Y1104D01*
X2738Y1104D02*
X2744Y1104D01*
X1733Y1077D02*
X1746Y1077D01*
X2735Y1077D02*
X2747Y1077D01*
X1729Y1076D02*
X1750Y1076D01*
X2731Y1076D02*
X2751Y1076D01*
X1726Y1075D02*
X1752Y1075D01*
X2728Y1075D02*
X2754Y1075D01*
X1724Y1074D02*
X1755Y1074D01*
X2726Y1074D02*
X2756Y1074D01*
X1722Y1073D02*
X1757Y1073D01*
X2724Y1073D02*
X2758Y1073D01*
X1720Y1072D02*
X1758Y1072D01*
X2722Y1072D02*
X2760Y1072D01*
X1719Y1071D02*
X1760Y1071D01*
X2720Y1071D02*
X2761Y1071D01*
X1717Y1070D02*
X1761Y1070D01*
X2719Y1070D02*
X2763Y1070D01*
X1716Y1069D02*
X1763Y1069D01*
X2718Y1069D02*
X2764Y1069D01*
X1715Y1068D02*
X1764Y1068D01*
X2716Y1068D02*
X2765Y1068D01*
X1714Y1067D02*
X1765Y1067D01*
X2715Y1067D02*
X2766Y1067D01*
X1713Y1066D02*
X1766Y1066D01*
X2714Y1066D02*
X2767Y1066D01*
X1712Y1065D02*
X1767Y1065D01*
X2713Y1065D02*
X2768Y1065D01*
X1711Y1064D02*
X1768Y1064D01*
X2713Y1064D02*
X2769Y1064D01*
X1710Y1063D02*
X1768Y1063D01*
X2712Y1063D02*
X2770Y1063D01*
X1710Y1062D02*
X1769Y1062D01*
X2711Y1062D02*
X2771Y1062D01*
X1709Y1061D02*
X1770Y1061D01*
X2711Y1061D02*
X2771Y1061D01*
X1708Y1060D02*
X1770Y1060D01*
X2710Y1060D02*
X2772Y1060D01*
X1708Y1059D02*
X1771Y1059D01*
X2709Y1059D02*
X2772Y1059D01*
X1707Y1058D02*
X1736Y1058D01*
X1743Y1058D02*
X1771Y1058D01*
X2709Y1058D02*
X2738Y1058D01*
X2744Y1058D02*
X2773Y1058D01*
X1707Y1057D02*
X1732Y1057D01*
X1747Y1057D02*
X1772Y1057D01*
X2708Y1057D02*
X2734Y1057D01*
X2748Y1057D02*
X2773Y1057D01*
X1706Y1056D02*
X1730Y1056D01*
X1749Y1056D02*
X1772Y1056D01*
X2708Y1056D02*
X2732Y1056D01*
X2750Y1056D02*
X2774Y1056D01*
X1706Y1055D02*
X1729Y1055D01*
X1750Y1055D02*
X1773Y1055D01*
X2707Y1055D02*
X2730Y1055D01*
X2752Y1055D02*
X2774Y1055D01*
X1706Y1054D02*
X1728Y1054D01*
X1751Y1054D02*
X1773Y1054D01*
X2707Y1054D02*
X2729Y1054D01*
X2753Y1054D02*
X2775Y1054D01*
X1705Y1053D02*
X1726Y1053D01*
X1752Y1053D02*
X1774Y1053D01*
X2707Y1053D02*
X2728Y1053D01*
X2754Y1053D02*
X2775Y1053D01*
X1705Y1052D02*
X1726Y1052D01*
X1753Y1052D02*
X1774Y1052D01*
X2706Y1052D02*
X2727Y1052D01*
X2755Y1052D02*
X2775Y1052D01*
X1705Y1051D02*
X1725Y1051D01*
X1754Y1051D02*
X1774Y1051D01*
X2706Y1051D02*
X2726Y1051D01*
X2756Y1051D02*
X2776Y1051D01*
X1704Y1050D02*
X1724Y1050D01*
X1755Y1050D02*
X1775Y1050D01*
X2706Y1050D02*
X2725Y1050D01*
X2756Y1050D02*
X2776Y1050D01*
X1704Y1049D02*
X1723Y1049D01*
X1755Y1049D02*
X1775Y1049D01*
X2705Y1049D02*
X2725Y1049D01*
X2757Y1049D02*
X2776Y1049D01*
X1704Y1048D02*
X1723Y1048D01*
X1756Y1048D02*
X1775Y1048D01*
X2705Y1048D02*
X2724Y1048D01*
X2757Y1048D02*
X2777Y1048D01*
X1704Y1047D02*
X1722Y1047D01*
X1756Y1047D02*
X1775Y1047D01*
X2705Y1047D02*
X2724Y1047D01*
X2758Y1047D02*
X2777Y1047D01*
X1703Y1046D02*
X1722Y1046D01*
X1757Y1046D02*
X1775Y1046D01*
X2705Y1046D02*
X2724Y1046D01*
X2758Y1046D02*
X2777Y1046D01*
X1703Y1045D02*
X1722Y1045D01*
X1757Y1045D02*
X1776Y1045D01*
X2705Y1045D02*
X2723Y1045D01*
X2758Y1045D02*
X2777Y1045D01*
X1703Y1044D02*
X1722Y1044D01*
X1757Y1044D02*
X1776Y1044D01*
X2704Y1044D02*
X2723Y1044D01*
X2759Y1044D02*
X2777Y1044D01*
X1703Y1043D02*
X1722Y1043D01*
X1757Y1043D02*
X1776Y1043D01*
X2704Y1043D02*
X2723Y1043D01*
X2759Y1043D02*
X2777Y1043D01*
X1703Y1042D02*
X1722Y1042D01*
X1757Y1042D02*
X1776Y1042D01*
X2704Y1042D02*
X2723Y1042D01*
X2759Y1042D02*
X2777Y1042D01*
X1703Y1041D02*
X1721Y1041D01*
X1757Y1041D02*
X1776Y1041D01*
X2704Y1041D02*
X2723Y1041D01*
X2759Y1041D02*
X2777Y1041D01*
X1703Y1040D02*
X1721Y1040D01*
X1757Y1040D02*
X1776Y1040D01*
X2704Y1040D02*
X2723Y1040D01*
X2759Y1040D02*
X2777Y1040D01*
X1703Y1039D02*
X1722Y1039D01*
X1757Y1039D02*
X1776Y1039D01*
X2704Y1039D02*
X2723Y1039D01*
X2759Y1039D02*
X2777Y1039D01*
X1703Y1038D02*
X1722Y1038D01*
X1757Y1038D02*
X1776Y1038D01*
X2704Y1038D02*
X2723Y1038D01*
X2759Y1038D02*
X2777Y1038D01*
X1703Y1037D02*
X1722Y1037D01*
X1757Y1037D02*
X1776Y1037D01*
X2705Y1037D02*
X2723Y1037D01*
X2759Y1037D02*
X2777Y1037D01*
X1703Y1036D02*
X1722Y1036D01*
X1757Y1036D02*
X1776Y1036D01*
X2705Y1036D02*
X2723Y1036D01*
X2758Y1036D02*
X2777Y1036D01*
X1703Y1035D02*
X1722Y1035D01*
X1757Y1035D02*
X1775Y1035D01*
X2705Y1035D02*
X2724Y1035D01*
X2758Y1035D02*
X2777Y1035D01*
X1704Y1034D02*
X1723Y1034D01*
X1756Y1034D02*
X1775Y1034D01*
X2705Y1034D02*
X2724Y1034D01*
X2758Y1034D02*
X2777Y1034D01*
X1704Y1033D02*
X1723Y1033D01*
X1756Y1033D02*
X1775Y1033D01*
X2705Y1033D02*
X2724Y1033D01*
X2757Y1033D02*
X2776Y1033D01*
X1704Y1032D02*
X1724Y1032D01*
X1755Y1032D02*
X1775Y1032D01*
X2705Y1032D02*
X2725Y1032D01*
X2757Y1032D02*
X2776Y1032D01*
X1704Y1031D02*
X1724Y1031D01*
X1755Y1031D02*
X1775Y1031D01*
X2706Y1031D02*
X2726Y1031D01*
X2756Y1031D02*
X2776Y1031D01*
X1705Y1030D02*
X1725Y1030D01*
X1754Y1030D02*
X1774Y1030D01*
X2706Y1030D02*
X2726Y1030D01*
X2755Y1030D02*
X2776Y1030D01*
X1705Y1029D02*
X1726Y1029D01*
X1753Y1029D02*
X1774Y1029D01*
X2706Y1029D02*
X2727Y1029D01*
X2754Y1029D02*
X2775Y1029D01*
X1705Y1028D02*
X1727Y1028D01*
X1752Y1028D02*
X1774Y1028D01*
X2707Y1028D02*
X2728Y1028D01*
X2753Y1028D02*
X2775Y1028D01*
X1706Y1027D02*
X1728Y1027D01*
X1751Y1027D02*
X1773Y1027D01*
X2707Y1027D02*
X2729Y1027D01*
X2752Y1027D02*
X2775Y1027D01*
X1706Y1026D02*
X1729Y1026D01*
X1750Y1026D02*
X1773Y1026D01*
X2708Y1026D02*
X2731Y1026D01*
X2751Y1026D02*
X2774Y1026D01*
X1707Y1025D02*
X1731Y1025D01*
X1748Y1025D02*
X1772Y1025D01*
X2708Y1025D02*
X2732Y1025D01*
X2749Y1025D02*
X2774Y1025D01*
X1707Y1024D02*
X1733Y1024D01*
X1746Y1024D02*
X1772Y1024D01*
X2708Y1024D02*
X2735Y1024D01*
X2747Y1024D02*
X2773Y1024D01*
X1708Y1023D02*
X1771Y1023D01*
X2709Y1023D02*
X2773Y1023D01*
X1708Y1022D02*
X1771Y1022D01*
X2710Y1022D02*
X2772Y1022D01*
X1709Y1021D02*
X1770Y1021D01*
X2710Y1021D02*
X2772Y1021D01*
X1709Y1020D02*
X1770Y1020D01*
X2711Y1020D02*
X2771Y1020D01*
X1710Y1019D02*
X1769Y1019D01*
X2711Y1019D02*
X2770Y1019D01*
X1711Y1018D02*
X1768Y1018D01*
X2712Y1018D02*
X2770Y1018D01*
X1712Y1017D02*
X1767Y1017D01*
X2713Y1017D02*
X2769Y1017D01*
X1712Y1016D02*
X1766Y1016D01*
X2714Y1016D02*
X2768Y1016D01*
X1713Y1015D02*
X1766Y1015D01*
X2715Y1015D02*
X2767Y1015D01*
X1714Y1014D02*
X1765Y1014D01*
X2716Y1014D02*
X2766Y1014D01*
X1715Y1013D02*
X1763Y1013D01*
X2717Y1013D02*
X2765Y1013D01*
X1717Y1012D02*
X1762Y1012D01*
X2718Y1012D02*
X2764Y1012D01*
X1718Y1011D02*
X1761Y1011D01*
X2719Y1011D02*
X2762Y1011D01*
X1719Y1010D02*
X1759Y1010D01*
X2721Y1010D02*
X2761Y1010D01*
X1721Y1009D02*
X1758Y1009D01*
X2722Y1009D02*
X2759Y1009D01*
X1723Y1008D02*
X1756Y1008D01*
X2724Y1008D02*
X2757Y1008D01*
X1725Y1007D02*
X1754Y1007D01*
X2726Y1007D02*
X2755Y1007D01*
X1728Y1006D02*
X1751Y1006D01*
X2729Y1006D02*
X2753Y1006D01*
X1731Y1005D02*
X1748Y1005D01*
X2732Y1005D02*
X2750Y1005D01*
X1735Y1004D02*
X1743Y1004D01*
X2737Y1004D02*
X2745Y1004D01*
X1734Y977D02*
X1745Y977D01*
X2735Y977D02*
X2746Y977D01*
X1730Y976D02*
X1749Y976D01*
X2731Y976D02*
X2751Y976D01*
X1727Y975D02*
X1752Y975D01*
X2728Y975D02*
X2753Y975D01*
X1724Y974D02*
X1754Y974D01*
X2726Y974D02*
X2756Y974D01*
X1722Y973D02*
X1756Y973D01*
X2724Y973D02*
X2758Y973D01*
X1721Y972D02*
X1758Y972D01*
X2722Y972D02*
X2760Y972D01*
X1719Y971D02*
X1760Y971D01*
X2720Y971D02*
X2761Y971D01*
X1718Y970D02*
X1761Y970D01*
X2719Y970D02*
X2763Y970D01*
X1716Y969D02*
X1763Y969D01*
X2718Y969D02*
X2764Y969D01*
X1715Y968D02*
X1764Y968D01*
X2717Y968D02*
X2765Y968D01*
X1714Y967D02*
X1765Y967D01*
X2715Y967D02*
X2766Y967D01*
X1713Y966D02*
X1766Y966D01*
X2714Y966D02*
X2767Y966D01*
X1712Y965D02*
X1767Y965D01*
X2714Y965D02*
X2768Y965D01*
X1711Y964D02*
X1768Y964D01*
X2713Y964D02*
X2769Y964D01*
X1711Y963D02*
X1768Y963D01*
X2712Y963D02*
X2770Y963D01*
X1710Y962D02*
X1769Y962D01*
X2711Y962D02*
X2770Y962D01*
X1709Y961D02*
X1770Y961D01*
X2711Y961D02*
X2771Y961D01*
X1709Y960D02*
X1770Y960D01*
X2710Y960D02*
X2772Y960D01*
X1708Y959D02*
X1771Y959D01*
X2709Y959D02*
X2772Y959D01*
X1707Y958D02*
X1738Y958D01*
X1741Y958D02*
X1771Y958D01*
X2709Y958D02*
X2739Y958D01*
X2742Y958D02*
X2773Y958D01*
X1707Y957D02*
X1732Y957D01*
X1746Y957D02*
X1772Y957D01*
X2708Y957D02*
X2734Y957D01*
X2748Y957D02*
X2773Y957D01*
X1706Y956D02*
X1730Y956D01*
X1748Y956D02*
X1772Y956D01*
X2708Y956D02*
X2732Y956D01*
X2750Y956D02*
X2774Y956D01*
X1706Y955D02*
X1729Y955D01*
X1750Y955D02*
X1773Y955D01*
X2707Y955D02*
X2730Y955D01*
X2751Y955D02*
X2774Y955D01*
X1706Y954D02*
X1728Y954D01*
X1751Y954D02*
X1773Y954D01*
X2707Y954D02*
X2729Y954D01*
X2753Y954D02*
X2775Y954D01*
X1705Y953D02*
X1727Y953D01*
X1752Y953D02*
X1774Y953D01*
X2707Y953D02*
X2728Y953D01*
X2754Y953D02*
X2775Y953D01*
X1705Y952D02*
X1726Y952D01*
X1753Y952D02*
X1774Y952D01*
X2706Y952D02*
X2727Y952D01*
X2755Y952D02*
X2775Y952D01*
X1705Y951D02*
X1725Y951D01*
X1754Y951D02*
X1774Y951D01*
X2706Y951D02*
X2726Y951D01*
X2755Y951D02*
X2776Y951D01*
X1704Y950D02*
X1724Y950D01*
X1755Y950D02*
X1775Y950D01*
X2706Y950D02*
X2725Y950D01*
X2756Y950D02*
X2776Y950D01*
X1704Y949D02*
X1723Y949D01*
X1755Y949D02*
X1775Y949D01*
X2705Y949D02*
X2725Y949D01*
X2757Y949D02*
X2776Y949D01*
X1704Y948D02*
X1723Y948D01*
X1756Y948D02*
X1775Y948D01*
X2705Y948D02*
X2724Y948D01*
X2757Y948D02*
X2777Y948D01*
X1704Y947D02*
X1722Y947D01*
X1756Y947D02*
X1775Y947D01*
X2705Y947D02*
X2724Y947D01*
X2758Y947D02*
X2777Y947D01*
X1703Y946D02*
X1722Y946D01*
X1757Y946D02*
X1775Y946D01*
X2705Y946D02*
X2724Y946D01*
X2758Y946D02*
X2777Y946D01*
X1703Y945D02*
X1722Y945D01*
X1757Y945D02*
X1776Y945D01*
X2705Y945D02*
X2723Y945D01*
X2758Y945D02*
X2777Y945D01*
X1703Y944D02*
X1722Y944D01*
X1757Y944D02*
X1776Y944D01*
X2705Y944D02*
X2723Y944D01*
X2759Y944D02*
X2777Y944D01*
X1703Y943D02*
X1722Y943D01*
X1757Y943D02*
X1776Y943D01*
X2704Y943D02*
X2723Y943D01*
X2759Y943D02*
X2777Y943D01*
X1703Y942D02*
X1722Y942D01*
X1757Y942D02*
X1776Y942D01*
X2704Y942D02*
X2723Y942D01*
X2759Y942D02*
X2777Y942D01*
X1703Y941D02*
X1721Y941D01*
X1757Y941D02*
X1776Y941D01*
X2704Y941D02*
X2723Y941D01*
X2759Y941D02*
X2777Y941D01*
X1703Y940D02*
X1721Y940D01*
X1757Y940D02*
X1776Y940D01*
X2704Y940D02*
X2723Y940D01*
X2759Y940D02*
X2777Y940D01*
X1703Y939D02*
X1722Y939D01*
X1757Y939D02*
X1776Y939D01*
X2704Y939D02*
X2723Y939D01*
X2759Y939D02*
X2777Y939D01*
X1703Y938D02*
X1722Y938D01*
X1757Y938D02*
X1776Y938D01*
X2704Y938D02*
X2723Y938D01*
X2759Y938D02*
X2777Y938D01*
X1703Y937D02*
X1722Y937D01*
X1757Y937D02*
X1776Y937D01*
X2705Y937D02*
X2723Y937D01*
X2759Y937D02*
X2777Y937D01*
X1703Y936D02*
X1722Y936D01*
X1757Y936D02*
X1776Y936D01*
X2705Y936D02*
X2723Y936D01*
X2758Y936D02*
X2777Y936D01*
X1703Y935D02*
X1722Y935D01*
X1757Y935D02*
X1775Y935D01*
X2705Y935D02*
X2724Y935D01*
X2758Y935D02*
X2777Y935D01*
X1704Y934D02*
X1723Y934D01*
X1756Y934D02*
X1775Y934D01*
X2705Y934D02*
X2724Y934D01*
X2758Y934D02*
X2777Y934D01*
X1704Y933D02*
X1723Y933D01*
X1756Y933D02*
X1775Y933D01*
X2705Y933D02*
X2724Y933D01*
X2757Y933D02*
X2777Y933D01*
X1704Y932D02*
X1724Y932D01*
X1755Y932D02*
X1775Y932D01*
X2705Y932D02*
X2725Y932D01*
X2757Y932D02*
X2776Y932D01*
X1704Y931D02*
X1724Y931D01*
X1755Y931D02*
X1775Y931D01*
X2706Y931D02*
X2726Y931D01*
X2756Y931D02*
X2776Y931D01*
X1705Y930D02*
X1725Y930D01*
X1754Y930D02*
X1774Y930D01*
X2706Y930D02*
X2726Y930D01*
X2755Y930D02*
X2776Y930D01*
X1705Y929D02*
X1726Y929D01*
X1753Y929D02*
X1774Y929D01*
X2706Y929D02*
X2727Y929D01*
X2754Y929D02*
X2775Y929D01*
X1705Y928D02*
X1727Y928D01*
X1752Y928D02*
X1774Y928D01*
X2707Y928D02*
X2728Y928D01*
X2754Y928D02*
X2775Y928D01*
X1706Y927D02*
X1728Y927D01*
X1751Y927D02*
X1773Y927D01*
X2707Y927D02*
X2729Y927D01*
X2752Y927D02*
X2775Y927D01*
X1706Y926D02*
X1729Y926D01*
X1750Y926D02*
X1773Y926D01*
X2707Y926D02*
X2730Y926D01*
X2751Y926D02*
X2774Y926D01*
X1707Y925D02*
X1731Y925D01*
X1748Y925D02*
X1772Y925D01*
X2708Y925D02*
X2732Y925D01*
X2750Y925D02*
X2774Y925D01*
X1707Y924D02*
X1733Y924D01*
X1746Y924D02*
X1772Y924D01*
X2708Y924D02*
X2734Y924D01*
X2747Y924D02*
X2773Y924D01*
X1707Y923D02*
X1771Y923D01*
X2709Y923D02*
X2773Y923D01*
X1708Y922D02*
X1771Y922D01*
X2709Y922D02*
X2772Y922D01*
X1709Y921D02*
X1770Y921D01*
X2710Y921D02*
X2772Y921D01*
X1709Y920D02*
X1770Y920D01*
X2711Y920D02*
X2771Y920D01*
X1710Y919D02*
X1769Y919D01*
X2711Y919D02*
X2770Y919D01*
X1711Y918D02*
X1768Y918D01*
X2712Y918D02*
X2770Y918D01*
X1711Y917D02*
X1767Y917D01*
X2713Y917D02*
X2769Y917D01*
X1712Y916D02*
X1767Y916D01*
X2714Y916D02*
X2768Y916D01*
X1713Y915D02*
X1766Y915D01*
X2715Y915D02*
X2767Y915D01*
X1714Y914D02*
X1765Y914D01*
X2716Y914D02*
X2766Y914D01*
X1715Y913D02*
X1764Y913D01*
X2717Y913D02*
X2765Y913D01*
X1716Y912D02*
X1762Y912D01*
X2718Y912D02*
X2764Y912D01*
X1718Y911D02*
X1761Y911D01*
X2719Y911D02*
X2762Y911D01*
X1719Y910D02*
X1760Y910D01*
X2721Y910D02*
X2761Y910D01*
X1721Y909D02*
X1758Y909D01*
X2722Y909D02*
X2759Y909D01*
X1723Y908D02*
X1756Y908D01*
X2724Y908D02*
X2758Y908D01*
X1725Y907D02*
X1754Y907D01*
X2726Y907D02*
X2756Y907D01*
X1727Y906D02*
X1752Y906D01*
X2729Y906D02*
X2753Y906D01*
X1730Y905D02*
X1749Y905D01*
X2732Y905D02*
X2750Y905D01*
X1735Y904D02*
X1744Y904D01*
X2736Y904D02*
X2746Y904D01*
X1735Y877D02*
X1744Y877D01*
X2736Y877D02*
X2746Y877D01*
X1730Y876D02*
X1749Y876D01*
X2732Y876D02*
X2750Y876D01*
X1727Y875D02*
X1752Y875D01*
X2729Y875D02*
X2753Y875D01*
X1725Y874D02*
X1754Y874D01*
X2726Y874D02*
X2756Y874D01*
X1723Y873D02*
X1756Y873D01*
X2724Y873D02*
X2758Y873D01*
X1721Y872D02*
X1758Y872D01*
X2722Y872D02*
X2759Y872D01*
X1719Y871D02*
X1760Y871D01*
X2721Y871D02*
X2761Y871D01*
X1718Y870D02*
X1761Y870D01*
X2719Y870D02*
X2762Y870D01*
X1716Y869D02*
X1762Y869D01*
X2718Y869D02*
X2764Y869D01*
X1715Y868D02*
X1764Y868D01*
X2717Y868D02*
X2765Y868D01*
X1714Y867D02*
X1765Y867D01*
X2716Y867D02*
X2766Y867D01*
X1713Y866D02*
X1766Y866D01*
X2715Y866D02*
X2767Y866D01*
X1712Y865D02*
X1767Y865D01*
X2714Y865D02*
X2768Y865D01*
X1711Y864D02*
X1767Y864D01*
X2713Y864D02*
X2769Y864D01*
X1711Y863D02*
X1768Y863D01*
X2712Y863D02*
X2770Y863D01*
X1710Y862D02*
X1769Y862D01*
X2711Y862D02*
X2770Y862D01*
X1709Y861D02*
X1770Y861D01*
X2711Y861D02*
X2771Y861D01*
X1709Y860D02*
X1770Y860D01*
X2710Y860D02*
X2772Y860D01*
X1708Y859D02*
X1771Y859D01*
X2709Y859D02*
X2772Y859D01*
X1707Y858D02*
X1771Y858D01*
X2709Y858D02*
X2773Y858D01*
X1707Y857D02*
X1733Y857D01*
X1746Y857D02*
X1772Y857D01*
X2708Y857D02*
X2734Y857D01*
X2747Y857D02*
X2773Y857D01*
X1707Y856D02*
X1731Y856D01*
X1748Y856D02*
X1772Y856D01*
X2708Y856D02*
X2732Y856D01*
X2750Y856D02*
X2774Y856D01*
X1706Y855D02*
X1729Y855D01*
X1750Y855D02*
X1773Y855D01*
X2707Y855D02*
X2730Y855D01*
X2751Y855D02*
X2774Y855D01*
X1706Y854D02*
X1728Y854D01*
X1751Y854D02*
X1773Y854D01*
X2707Y854D02*
X2729Y854D01*
X2752Y854D02*
X2775Y854D01*
X1705Y853D02*
X1727Y853D01*
X1752Y853D02*
X1774Y853D01*
X2707Y853D02*
X2728Y853D01*
X2754Y853D02*
X2775Y853D01*
X1705Y852D02*
X1726Y852D01*
X1753Y852D02*
X1774Y852D01*
X2706Y852D02*
X2727Y852D01*
X2754Y852D02*
X2775Y852D01*
X1705Y851D02*
X1725Y851D01*
X1754Y851D02*
X1774Y851D01*
X2706Y851D02*
X2726Y851D01*
X2755Y851D02*
X2776Y851D01*
X1704Y850D02*
X1724Y850D01*
X1755Y850D02*
X1775Y850D01*
X2706Y850D02*
X2726Y850D01*
X2756Y850D02*
X2776Y850D01*
X1704Y849D02*
X1724Y849D01*
X1755Y849D02*
X1775Y849D01*
X2705Y849D02*
X2725Y849D01*
X2757Y849D02*
X2776Y849D01*
X1704Y848D02*
X1723Y848D01*
X1756Y848D02*
X1775Y848D01*
X2705Y848D02*
X2724Y848D01*
X2757Y848D02*
X2776Y848D01*
X1704Y847D02*
X1723Y847D01*
X1756Y847D02*
X1775Y847D01*
X2705Y847D02*
X2724Y847D01*
X2758Y847D02*
X2777Y847D01*
X1703Y846D02*
X1722Y846D01*
X1757Y846D02*
X1775Y846D01*
X2705Y846D02*
X2724Y846D01*
X2758Y846D02*
X2777Y846D01*
X1703Y845D02*
X1722Y845D01*
X1757Y845D02*
X1776Y845D01*
X2705Y845D02*
X2723Y845D01*
X2758Y845D02*
X2777Y845D01*
X1703Y844D02*
X1722Y844D01*
X1757Y844D02*
X1776Y844D01*
X2705Y844D02*
X2723Y844D01*
X2759Y844D02*
X2777Y844D01*
X1703Y843D02*
X1722Y843D01*
X1757Y843D02*
X1776Y843D01*
X2704Y843D02*
X2723Y843D01*
X2759Y843D02*
X2777Y843D01*
X1703Y842D02*
X1722Y842D01*
X1757Y842D02*
X1776Y842D01*
X2704Y842D02*
X2723Y842D01*
X2759Y842D02*
X2777Y842D01*
X1703Y841D02*
X1721Y841D01*
X1757Y841D02*
X1776Y841D01*
X2704Y841D02*
X2723Y841D01*
X2759Y841D02*
X2777Y841D01*
X1703Y840D02*
X1721Y840D01*
X1757Y840D02*
X1776Y840D01*
X2704Y840D02*
X2723Y840D01*
X2759Y840D02*
X2777Y840D01*
X1703Y839D02*
X1722Y839D01*
X1757Y839D02*
X1776Y839D01*
X2704Y839D02*
X2723Y839D01*
X2759Y839D02*
X2777Y839D01*
X1703Y838D02*
X1722Y838D01*
X1757Y838D02*
X1776Y838D01*
X2704Y838D02*
X2723Y838D01*
X2759Y838D02*
X2777Y838D01*
X1703Y837D02*
X1722Y837D01*
X1757Y837D02*
X1776Y837D01*
X2705Y837D02*
X2723Y837D01*
X2759Y837D02*
X2777Y837D01*
X1703Y836D02*
X1722Y836D01*
X1757Y836D02*
X1776Y836D01*
X2705Y836D02*
X2723Y836D01*
X2758Y836D02*
X2777Y836D01*
X1703Y835D02*
X1722Y835D01*
X1757Y835D02*
X1775Y835D01*
X2705Y835D02*
X2724Y835D01*
X2758Y835D02*
X2777Y835D01*
X1704Y834D02*
X1722Y834D01*
X1756Y834D02*
X1775Y834D01*
X2705Y834D02*
X2724Y834D01*
X2758Y834D02*
X2777Y834D01*
X1704Y833D02*
X1723Y833D01*
X1756Y833D02*
X1775Y833D01*
X2705Y833D02*
X2724Y833D01*
X2757Y833D02*
X2777Y833D01*
X1704Y832D02*
X1723Y832D01*
X1755Y832D02*
X1775Y832D01*
X2705Y832D02*
X2725Y832D01*
X2757Y832D02*
X2776Y832D01*
X1704Y831D02*
X1724Y831D01*
X1755Y831D02*
X1775Y831D01*
X2706Y831D02*
X2725Y831D01*
X2756Y831D02*
X2776Y831D01*
X1705Y830D02*
X1725Y830D01*
X1754Y830D02*
X1774Y830D01*
X2706Y830D02*
X2726Y830D01*
X2755Y830D02*
X2776Y830D01*
X1705Y829D02*
X1726Y829D01*
X1753Y829D02*
X1774Y829D01*
X2706Y829D02*
X2727Y829D01*
X2755Y829D02*
X2775Y829D01*
X1705Y828D02*
X1727Y828D01*
X1752Y828D02*
X1774Y828D01*
X2707Y828D02*
X2728Y828D01*
X2754Y828D02*
X2775Y828D01*
X1706Y827D02*
X1728Y827D01*
X1751Y827D02*
X1773Y827D01*
X2707Y827D02*
X2729Y827D01*
X2753Y827D02*
X2775Y827D01*
X1706Y826D02*
X1729Y826D01*
X1750Y826D02*
X1773Y826D01*
X2707Y826D02*
X2730Y826D01*
X2751Y826D02*
X2774Y826D01*
X1706Y825D02*
X1730Y825D01*
X1748Y825D02*
X1772Y825D01*
X2708Y825D02*
X2732Y825D01*
X2750Y825D02*
X2774Y825D01*
X1707Y824D02*
X1732Y824D01*
X1746Y824D02*
X1772Y824D01*
X2708Y824D02*
X2734Y824D01*
X2748Y824D02*
X2773Y824D01*
X1707Y823D02*
X1738Y823D01*
X1741Y823D02*
X1771Y823D01*
X2709Y823D02*
X2739Y823D01*
X2743Y823D02*
X2773Y823D01*
X1708Y822D02*
X1771Y822D01*
X2709Y822D02*
X2772Y822D01*
X1709Y821D02*
X1770Y821D01*
X2710Y821D02*
X2772Y821D01*
X1709Y820D02*
X1770Y820D01*
X2711Y820D02*
X2771Y820D01*
X1710Y819D02*
X1769Y819D01*
X2711Y819D02*
X2770Y819D01*
X1711Y818D02*
X1768Y818D01*
X2712Y818D02*
X2770Y818D01*
X1711Y817D02*
X1768Y817D01*
X2713Y817D02*
X2769Y817D01*
X1712Y816D02*
X1767Y816D01*
X2714Y816D02*
X2768Y816D01*
X1713Y815D02*
X1766Y815D01*
X2714Y815D02*
X2767Y815D01*
X1714Y814D02*
X1765Y814D01*
X2715Y814D02*
X2766Y814D01*
X1715Y813D02*
X1764Y813D01*
X2717Y813D02*
X2765Y813D01*
X1716Y812D02*
X1763Y812D01*
X2718Y812D02*
X2764Y812D01*
X1718Y811D02*
X1761Y811D01*
X2719Y811D02*
X2763Y811D01*
X1719Y810D02*
X1760Y810D01*
X2720Y810D02*
X2761Y810D01*
X1721Y809D02*
X1758Y809D01*
X2722Y809D02*
X2760Y809D01*
X1722Y808D02*
X1757Y808D01*
X2724Y808D02*
X2758Y808D01*
X1724Y807D02*
X1754Y807D01*
X2726Y807D02*
X2756Y807D01*
X1727Y806D02*
X1752Y806D01*
X2728Y806D02*
X2753Y806D01*
X1730Y805D02*
X1749Y805D01*
X2731Y805D02*
X2751Y805D01*
X1734Y804D02*
X1745Y804D01*
X2735Y804D02*
X2746Y804D01*
X1735Y777D02*
X1743Y777D01*
X2737Y777D02*
X2745Y777D01*
X1731Y776D02*
X1748Y776D01*
X2732Y776D02*
X2750Y776D01*
X1728Y775D02*
X1751Y775D01*
X2729Y775D02*
X2753Y775D01*
X1725Y774D02*
X1754Y774D01*
X2726Y774D02*
X2755Y774D01*
X1723Y773D02*
X1756Y773D01*
X2724Y773D02*
X2757Y773D01*
X1721Y772D02*
X1758Y772D01*
X2723Y772D02*
X2759Y772D01*
X1719Y771D02*
X1759Y771D01*
X2721Y771D02*
X2761Y771D01*
X1718Y770D02*
X1761Y770D01*
X2719Y770D02*
X2762Y770D01*
X1717Y769D02*
X1762Y769D01*
X2718Y769D02*
X2764Y769D01*
X1715Y768D02*
X1763Y768D01*
X2717Y768D02*
X2765Y768D01*
X1714Y767D02*
X1765Y767D01*
X2716Y767D02*
X2766Y767D01*
X1713Y766D02*
X1766Y766D01*
X2715Y766D02*
X2767Y766D01*
X1712Y765D02*
X1766Y765D01*
X2714Y765D02*
X2768Y765D01*
X1712Y764D02*
X1767Y764D01*
X2713Y764D02*
X2769Y764D01*
X1711Y763D02*
X1768Y763D01*
X2712Y763D02*
X2770Y763D01*
X1710Y762D02*
X1769Y762D01*
X2711Y762D02*
X2770Y762D01*
X1709Y761D02*
X1770Y761D01*
X2711Y761D02*
X2771Y761D01*
X1709Y760D02*
X1770Y760D01*
X2710Y760D02*
X2772Y760D01*
X1708Y759D02*
X1771Y759D01*
X2710Y759D02*
X2772Y759D01*
X1708Y758D02*
X1771Y758D01*
X2709Y758D02*
X2773Y758D01*
X1707Y757D02*
X1733Y757D01*
X1745Y757D02*
X1772Y757D01*
X2708Y757D02*
X2735Y757D01*
X2747Y757D02*
X2773Y757D01*
X1707Y756D02*
X1731Y756D01*
X1748Y756D02*
X1772Y756D01*
X2708Y756D02*
X2732Y756D01*
X2749Y756D02*
X2774Y756D01*
X1706Y755D02*
X1729Y755D01*
X1750Y755D02*
X1773Y755D01*
X2708Y755D02*
X2731Y755D01*
X2751Y755D02*
X2774Y755D01*
X1706Y754D02*
X1728Y754D01*
X1751Y754D02*
X1773Y754D01*
X2707Y754D02*
X2729Y754D01*
X2752Y754D02*
X2775Y754D01*
X1705Y753D02*
X1727Y753D01*
X1752Y753D02*
X1774Y753D01*
X2707Y753D02*
X2728Y753D01*
X2753Y753D02*
X2775Y753D01*
X1705Y752D02*
X1726Y752D01*
X1753Y752D02*
X1774Y752D01*
X2706Y752D02*
X2727Y752D01*
X2754Y752D02*
X2775Y752D01*
X1705Y751D02*
X1725Y751D01*
X1754Y751D02*
X1774Y751D01*
X2706Y751D02*
X2726Y751D01*
X2755Y751D02*
X2776Y751D01*
X1704Y750D02*
X1724Y750D01*
X1755Y750D02*
X1775Y750D01*
X2706Y750D02*
X2726Y750D01*
X2756Y750D02*
X2776Y750D01*
X1704Y749D02*
X1724Y749D01*
X1755Y749D02*
X1775Y749D01*
X2706Y749D02*
X2725Y749D01*
X2757Y749D02*
X2776Y749D01*
X1704Y748D02*
X1723Y748D01*
X1756Y748D02*
X1775Y748D01*
X2705Y748D02*
X2724Y748D01*
X2757Y748D02*
X2776Y748D01*
X1704Y747D02*
X1723Y747D01*
X1756Y747D02*
X1775Y747D01*
X2705Y747D02*
X2724Y747D01*
X2758Y747D02*
X2777Y747D01*
X1703Y746D02*
X1722Y746D01*
X1757Y746D02*
X1775Y746D01*
X2705Y746D02*
X2724Y746D01*
X2758Y746D02*
X2777Y746D01*
X1703Y745D02*
X1722Y745D01*
X1757Y745D02*
X1776Y745D01*
X2705Y745D02*
X2723Y745D01*
X2758Y745D02*
X2777Y745D01*
X1703Y744D02*
X1722Y744D01*
X1757Y744D02*
X1776Y744D01*
X2705Y744D02*
X2723Y744D01*
X2759Y744D02*
X2777Y744D01*
X1703Y743D02*
X1722Y743D01*
X1757Y743D02*
X1776Y743D01*
X2704Y743D02*
X2723Y743D01*
X2759Y743D02*
X2777Y743D01*
X1703Y742D02*
X1722Y742D01*
X1757Y742D02*
X1776Y742D01*
X2704Y742D02*
X2723Y742D01*
X2759Y742D02*
X2777Y742D01*
X1703Y741D02*
X1721Y741D01*
X1757Y741D02*
X1776Y741D01*
X2704Y741D02*
X2723Y741D01*
X2759Y741D02*
X2777Y741D01*
X1703Y740D02*
X1721Y740D01*
X1757Y740D02*
X1776Y740D01*
X2704Y740D02*
X2723Y740D01*
X2759Y740D02*
X2777Y740D01*
X1703Y739D02*
X1722Y739D01*
X1757Y739D02*
X1776Y739D01*
X2704Y739D02*
X2723Y739D01*
X2759Y739D02*
X2777Y739D01*
X1703Y738D02*
X1722Y738D01*
X1757Y738D02*
X1776Y738D01*
X2704Y738D02*
X2723Y738D01*
X2759Y738D02*
X2777Y738D01*
X1703Y737D02*
X1722Y737D01*
X1757Y737D02*
X1776Y737D01*
X2704Y737D02*
X2723Y737D01*
X2759Y737D02*
X2777Y737D01*
X1703Y736D02*
X1722Y736D01*
X1757Y736D02*
X1776Y736D01*
X2705Y736D02*
X2723Y736D01*
X2758Y736D02*
X2777Y736D01*
X1703Y735D02*
X1722Y735D01*
X1757Y735D02*
X1775Y735D01*
X2705Y735D02*
X2724Y735D01*
X2758Y735D02*
X2777Y735D01*
X1704Y734D02*
X1722Y734D01*
X1756Y734D02*
X1775Y734D01*
X2705Y734D02*
X2724Y734D01*
X2758Y734D02*
X2777Y734D01*
X1704Y733D02*
X1723Y733D01*
X1756Y733D02*
X1775Y733D01*
X2705Y733D02*
X2724Y733D01*
X2757Y733D02*
X2777Y733D01*
X1704Y732D02*
X1723Y732D01*
X1755Y732D02*
X1775Y732D01*
X2705Y732D02*
X2725Y732D01*
X2757Y732D02*
X2776Y732D01*
X1704Y731D02*
X1724Y731D01*
X1755Y731D02*
X1775Y731D01*
X2706Y731D02*
X2725Y731D01*
X2756Y731D02*
X2776Y731D01*
X1705Y730D02*
X1725Y730D01*
X1754Y730D02*
X1774Y730D01*
X2706Y730D02*
X2726Y730D01*
X2756Y730D02*
X2776Y730D01*
X1705Y729D02*
X1726Y729D01*
X1753Y729D02*
X1774Y729D01*
X2706Y729D02*
X2727Y729D01*
X2755Y729D02*
X2775Y729D01*
X1705Y728D02*
X1726Y728D01*
X1752Y728D02*
X1774Y728D01*
X2707Y728D02*
X2728Y728D01*
X2754Y728D02*
X2775Y728D01*
X1706Y727D02*
X1728Y727D01*
X1751Y727D02*
X1773Y727D01*
X2707Y727D02*
X2729Y727D01*
X2753Y727D02*
X2775Y727D01*
X1706Y726D02*
X1729Y726D01*
X1750Y726D02*
X1773Y726D01*
X2707Y726D02*
X2730Y726D01*
X2752Y726D02*
X2774Y726D01*
X1706Y725D02*
X1730Y725D01*
X1749Y725D02*
X1772Y725D01*
X2708Y725D02*
X2732Y725D01*
X2750Y725D02*
X2774Y725D01*
X1707Y724D02*
X1732Y724D01*
X1747Y724D02*
X1772Y724D01*
X2708Y724D02*
X2734Y724D01*
X2748Y724D02*
X2773Y724D01*
X1707Y723D02*
X1736Y723D01*
X1743Y723D02*
X1772Y723D01*
X2709Y723D02*
X2738Y723D01*
X2744Y723D02*
X2773Y723D01*
X1708Y722D02*
X1771Y722D01*
X2709Y722D02*
X2772Y722D01*
X1708Y721D02*
X1770Y721D01*
X2710Y721D02*
X2772Y721D01*
X1709Y720D02*
X1770Y720D01*
X2710Y720D02*
X2771Y720D01*
X1710Y719D02*
X1769Y719D01*
X2711Y719D02*
X2771Y719D01*
X1710Y718D02*
X1768Y718D01*
X2712Y718D02*
X2770Y718D01*
X1711Y717D02*
X1768Y717D01*
X2713Y717D02*
X2769Y717D01*
X1712Y716D02*
X1767Y716D01*
X2713Y716D02*
X2768Y716D01*
X1713Y715D02*
X1766Y715D01*
X2714Y715D02*
X2767Y715D01*
X1714Y714D02*
X1765Y714D01*
X2715Y714D02*
X2766Y714D01*
X1715Y713D02*
X1764Y713D01*
X2716Y713D02*
X2765Y713D01*
X1716Y712D02*
X1763Y712D01*
X2718Y712D02*
X2764Y712D01*
X1717Y711D02*
X1761Y711D01*
X2719Y711D02*
X2763Y711D01*
X1719Y710D02*
X1760Y710D01*
X2720Y710D02*
X2761Y710D01*
X1720Y709D02*
X1758Y709D01*
X2722Y709D02*
X2760Y709D01*
X1722Y708D02*
X1757Y708D01*
X2724Y708D02*
X2758Y708D01*
X1724Y707D02*
X1755Y707D01*
X2726Y707D02*
X2756Y707D01*
X1726Y706D02*
X1752Y706D01*
X2728Y706D02*
X2754Y706D01*
X1729Y705D02*
X1750Y705D01*
X2731Y705D02*
X2751Y705D01*
X1733Y704D02*
X1746Y704D01*
X2734Y704D02*
X2747Y704D01*
X1736Y677D02*
X1742Y677D01*
X2738Y677D02*
X2744Y677D01*
X1731Y676D02*
X1748Y676D01*
X2733Y676D02*
X2749Y676D01*
X1728Y675D02*
X1751Y675D01*
X2729Y675D02*
X2752Y675D01*
X1725Y674D02*
X1754Y674D01*
X2727Y674D02*
X2755Y674D01*
X1723Y673D02*
X1756Y673D01*
X2725Y673D02*
X2757Y673D01*
X1721Y672D02*
X1758Y672D01*
X2723Y672D02*
X2759Y672D01*
X1720Y671D02*
X1759Y671D01*
X2721Y671D02*
X2761Y671D01*
X1718Y670D02*
X1761Y670D01*
X2720Y670D02*
X2762Y670D01*
X1717Y669D02*
X1762Y669D01*
X2718Y669D02*
X2763Y669D01*
X1716Y668D02*
X1763Y668D01*
X2717Y668D02*
X2765Y668D01*
X1714Y667D02*
X1764Y667D01*
X2716Y667D02*
X2766Y667D01*
X1713Y666D02*
X1765Y666D01*
X2715Y666D02*
X2767Y666D01*
X1713Y665D02*
X1766Y665D01*
X2714Y665D02*
X2768Y665D01*
X1712Y664D02*
X1767Y664D01*
X2713Y664D02*
X2769Y664D01*
X1711Y663D02*
X1768Y663D01*
X2712Y663D02*
X2769Y663D01*
X1710Y662D02*
X1769Y662D01*
X2712Y662D02*
X2770Y662D01*
X1709Y661D02*
X1769Y661D01*
X2711Y661D02*
X2771Y661D01*
X1709Y660D02*
X1770Y660D01*
X2710Y660D02*
X2771Y660D01*
X1708Y659D02*
X1771Y659D01*
X2710Y659D02*
X2772Y659D01*
X1708Y658D02*
X1771Y658D01*
X2709Y658D02*
X2773Y658D01*
X1707Y657D02*
X1734Y657D01*
X1745Y657D02*
X1772Y657D01*
X2709Y657D02*
X2735Y657D01*
X2746Y657D02*
X2773Y657D01*
X1707Y656D02*
X1731Y656D01*
X1748Y656D02*
X1772Y656D01*
X2708Y656D02*
X2733Y656D01*
X2749Y656D02*
X2774Y656D01*
X1706Y655D02*
X1729Y655D01*
X1749Y655D02*
X1773Y655D01*
X2708Y655D02*
X2731Y655D01*
X2751Y655D02*
X2774Y655D01*
X1706Y654D02*
X1728Y654D01*
X1751Y654D02*
X1773Y654D01*
X2707Y654D02*
X2730Y654D01*
X2752Y654D02*
X2775Y654D01*
X1705Y653D02*
X1727Y653D01*
X1752Y653D02*
X1773Y653D01*
X2707Y653D02*
X2728Y653D01*
X2753Y653D02*
X2775Y653D01*
X1705Y652D02*
X1726Y652D01*
X1753Y652D02*
X1774Y652D01*
X2706Y652D02*
X2727Y652D01*
X2754Y652D02*
X2775Y652D01*
X1705Y651D02*
X1725Y651D01*
X1754Y651D02*
X1774Y651D01*
X2706Y651D02*
X2727Y651D01*
X2755Y651D02*
X2776Y651D01*
X1704Y650D02*
X1724Y650D01*
X1755Y650D02*
X1774Y650D01*
X2706Y650D02*
X2726Y650D01*
X2756Y650D02*
X2776Y650D01*
X1704Y649D02*
X1724Y649D01*
X1755Y649D02*
X1775Y649D01*
X2706Y649D02*
X2725Y649D01*
X2757Y649D02*
X2776Y649D01*
X1704Y648D02*
X1723Y648D01*
X1756Y648D02*
X1775Y648D01*
X2705Y648D02*
X2725Y648D01*
X2757Y648D02*
X2776Y648D01*
X1704Y647D02*
X1723Y647D01*
X1756Y647D02*
X1775Y647D01*
X2705Y647D02*
X2724Y647D01*
X2758Y647D02*
X2777Y647D01*
X1703Y646D02*
X1722Y646D01*
X1757Y646D02*
X1775Y646D01*
X2705Y646D02*
X2724Y646D01*
X2758Y646D02*
X2777Y646D01*
X1703Y645D02*
X1722Y645D01*
X1757Y645D02*
X1776Y645D01*
X2705Y645D02*
X2723Y645D01*
X2758Y645D02*
X2777Y645D01*
X1703Y644D02*
X1722Y644D01*
X1757Y644D02*
X1776Y644D01*
X2705Y644D02*
X2723Y644D01*
X2759Y644D02*
X2777Y644D01*
X1703Y643D02*
X1722Y643D01*
X1757Y643D02*
X1776Y643D01*
X2704Y643D02*
X2723Y643D01*
X2759Y643D02*
X2777Y643D01*
X1703Y642D02*
X1722Y642D01*
X1757Y642D02*
X1776Y642D01*
X2704Y642D02*
X2723Y642D01*
X2759Y642D02*
X2777Y642D01*
X1703Y641D02*
X1721Y641D01*
X1757Y641D02*
X1776Y641D01*
X2704Y641D02*
X2723Y641D01*
X2759Y641D02*
X2777Y641D01*
X1703Y640D02*
X1721Y640D01*
X1757Y640D02*
X1776Y640D01*
X2704Y640D02*
X2723Y640D01*
X2759Y640D02*
X2777Y640D01*
X1703Y639D02*
X1721Y639D01*
X1757Y639D02*
X1776Y639D01*
X2704Y639D02*
X2723Y639D01*
X2759Y639D02*
X2777Y639D01*
X1703Y638D02*
X1722Y638D01*
X1757Y638D02*
X1776Y638D01*
X2704Y638D02*
X2723Y638D01*
X2759Y638D02*
X2777Y638D01*
X1703Y637D02*
X1722Y637D01*
X1757Y637D02*
X1776Y637D01*
X2704Y637D02*
X2723Y637D01*
X2759Y637D02*
X2777Y637D01*
X1703Y636D02*
X1722Y636D01*
X1757Y636D02*
X1776Y636D01*
X2705Y636D02*
X2723Y636D01*
X2758Y636D02*
X2777Y636D01*
X1703Y635D02*
X1722Y635D01*
X1757Y635D02*
X1776Y635D01*
X2705Y635D02*
X2724Y635D01*
X2758Y635D02*
X2777Y635D01*
X1704Y634D02*
X1722Y634D01*
X1756Y634D02*
X1775Y634D01*
X2705Y634D02*
X2724Y634D01*
X2758Y634D02*
X2777Y634D01*
X1704Y633D02*
X1723Y633D01*
X1756Y633D02*
X1775Y633D01*
X2705Y633D02*
X2724Y633D01*
X2758Y633D02*
X2777Y633D01*
X1704Y632D02*
X1723Y632D01*
X1756Y632D02*
X1775Y632D01*
X2705Y632D02*
X2725Y632D01*
X2757Y632D02*
X2776Y632D01*
X1704Y631D02*
X1724Y631D01*
X1755Y631D02*
X1775Y631D01*
X2706Y631D02*
X2725Y631D01*
X2756Y631D02*
X2776Y631D01*
X1704Y630D02*
X1725Y630D01*
X1754Y630D02*
X1774Y630D01*
X2706Y630D02*
X2726Y630D01*
X2756Y630D02*
X2776Y630D01*
X1705Y629D02*
X1725Y629D01*
X1753Y629D02*
X1774Y629D01*
X2706Y629D02*
X2727Y629D01*
X2755Y629D02*
X2776Y629D01*
X1705Y628D02*
X1726Y628D01*
X1753Y628D02*
X1774Y628D01*
X2707Y628D02*
X2728Y628D01*
X2754Y628D02*
X2775Y628D01*
X1706Y627D02*
X1727Y627D01*
X1751Y627D02*
X1773Y627D01*
X2707Y627D02*
X2729Y627D01*
X2753Y627D02*
X2775Y627D01*
X1706Y626D02*
X1729Y626D01*
X1750Y626D02*
X1773Y626D01*
X2707Y626D02*
X2730Y626D01*
X2752Y626D02*
X2774Y626D01*
X1706Y625D02*
X1730Y625D01*
X1749Y625D02*
X1773Y625D01*
X2708Y625D02*
X2731Y625D01*
X2750Y625D02*
X2774Y625D01*
X1707Y624D02*
X1732Y624D01*
X1747Y624D02*
X1772Y624D01*
X2708Y624D02*
X2733Y624D01*
X2749Y624D02*
X2773Y624D01*
X1707Y623D02*
X1735Y623D01*
X1744Y623D02*
X1772Y623D01*
X2709Y623D02*
X2736Y623D01*
X2745Y623D02*
X2773Y623D01*
X1708Y622D02*
X1771Y622D01*
X2709Y622D02*
X2772Y622D01*
X1708Y621D02*
X1770Y621D01*
X2710Y621D02*
X2772Y621D01*
X1709Y620D02*
X1770Y620D01*
X2710Y620D02*
X2771Y620D01*
X1710Y619D02*
X1769Y619D01*
X2711Y619D02*
X2771Y619D01*
X1710Y618D02*
X1768Y618D01*
X2712Y618D02*
X2770Y618D01*
X1711Y617D02*
X1768Y617D01*
X2713Y617D02*
X2769Y617D01*
X1712Y616D02*
X1767Y616D01*
X2713Y616D02*
X2768Y616D01*
X1713Y615D02*
X1766Y615D01*
X2714Y615D02*
X2767Y615D01*
X1714Y614D02*
X1765Y614D01*
X2715Y614D02*
X2767Y614D01*
X1715Y613D02*
X1764Y613D01*
X2716Y613D02*
X2765Y613D01*
X1716Y612D02*
X1763Y612D01*
X2717Y612D02*
X2764Y612D01*
X1717Y611D02*
X1762Y611D01*
X2719Y611D02*
X2763Y611D01*
X1719Y610D02*
X1760Y610D01*
X2720Y610D02*
X2762Y610D01*
X1720Y609D02*
X1759Y609D01*
X2722Y609D02*
X2760Y609D01*
X1722Y608D02*
X1757Y608D01*
X2723Y608D02*
X2758Y608D01*
X1724Y607D02*
X1755Y607D01*
X2725Y607D02*
X2756Y607D01*
X1726Y606D02*
X1753Y606D01*
X2728Y606D02*
X2754Y606D01*
X1729Y605D02*
X1750Y605D01*
X2730Y605D02*
X2751Y605D01*
X1732Y604D02*
X1746Y604D01*
X2734Y604D02*
X2748Y604D01*
X1738Y577D02*
X1740Y577D01*
X2740Y577D02*
X2742Y577D01*
X1732Y576D02*
X1747Y576D01*
X2733Y576D02*
X2749Y576D01*
X1728Y575D02*
X1751Y575D01*
X2730Y575D02*
X2752Y575D01*
X1726Y574D02*
X1753Y574D01*
X2727Y574D02*
X2755Y574D01*
X1723Y573D02*
X1755Y573D01*
X2725Y573D02*
X2757Y573D01*
X1722Y572D02*
X1757Y572D01*
X2723Y572D02*
X2759Y572D01*
X1720Y571D02*
X1759Y571D01*
X2721Y571D02*
X2760Y571D01*
X1718Y570D02*
X1761Y570D01*
X2720Y570D02*
X2762Y570D01*
X1717Y569D02*
X1762Y569D01*
X2718Y569D02*
X2763Y569D01*
X1716Y568D02*
X1763Y568D01*
X2717Y568D02*
X2765Y568D01*
X1715Y567D02*
X1764Y567D01*
X2716Y567D02*
X2766Y567D01*
X1714Y566D02*
X1765Y566D01*
X2715Y566D02*
X2767Y566D01*
X1713Y565D02*
X1766Y565D01*
X2714Y565D02*
X2768Y565D01*
X1712Y564D02*
X1767Y564D01*
X2713Y564D02*
X2769Y564D01*
X1711Y563D02*
X1768Y563D01*
X2712Y563D02*
X2769Y563D01*
X1710Y562D02*
X1769Y562D01*
X2712Y562D02*
X2770Y562D01*
X1710Y561D02*
X1769Y561D01*
X2711Y561D02*
X2771Y561D01*
X1709Y560D02*
X1770Y560D01*
X2710Y560D02*
X2771Y560D01*
X1708Y559D02*
X1771Y559D01*
X2710Y559D02*
X2772Y559D01*
X1708Y558D02*
X1771Y558D01*
X2709Y558D02*
X2773Y558D01*
X1707Y557D02*
X1734Y557D01*
X1745Y557D02*
X1772Y557D01*
X2709Y557D02*
X2736Y557D01*
X2746Y557D02*
X2773Y557D01*
X1707Y556D02*
X1731Y556D01*
X1747Y556D02*
X1772Y556D01*
X2708Y556D02*
X2733Y556D01*
X2749Y556D02*
X2774Y556D01*
X1706Y555D02*
X1730Y555D01*
X1749Y555D02*
X1773Y555D01*
X2708Y555D02*
X2731Y555D01*
X2751Y555D02*
X2774Y555D01*
X1706Y554D02*
X1728Y554D01*
X1751Y554D02*
X1773Y554D01*
X2707Y554D02*
X2730Y554D01*
X2752Y554D02*
X2774Y554D01*
X1705Y553D02*
X1727Y553D01*
X1752Y553D02*
X1773Y553D01*
X2707Y553D02*
X2729Y553D01*
X2753Y553D02*
X2775Y553D01*
X1705Y552D02*
X1726Y552D01*
X1753Y552D02*
X1774Y552D01*
X2706Y552D02*
X2728Y552D01*
X2754Y552D02*
X2775Y552D01*
X1705Y551D02*
X1725Y551D01*
X1754Y551D02*
X1774Y551D01*
X2706Y551D02*
X2727Y551D01*
X2755Y551D02*
X2776Y551D01*
X1704Y550D02*
X1724Y550D01*
X1754Y550D02*
X1774Y550D01*
X2706Y550D02*
X2726Y550D01*
X2756Y550D02*
X2776Y550D01*
X1704Y549D02*
X1724Y549D01*
X1755Y549D02*
X1775Y549D01*
X2706Y549D02*
X2725Y549D01*
X2756Y549D02*
X2776Y549D01*
X1704Y548D02*
X1723Y548D01*
X1756Y548D02*
X1775Y548D01*
X2705Y548D02*
X2725Y548D01*
X2757Y548D02*
X2776Y548D01*
X1704Y547D02*
X1723Y547D01*
X1756Y547D02*
X1775Y547D01*
X2705Y547D02*
X2724Y547D01*
X2758Y547D02*
X2777Y547D01*
X1703Y546D02*
X1722Y546D01*
X1757Y546D02*
X1775Y546D01*
X2705Y546D02*
X2724Y546D01*
X2758Y546D02*
X2777Y546D01*
X1703Y545D02*
X1722Y545D01*
X1757Y545D02*
X1776Y545D01*
X2705Y545D02*
X2723Y545D01*
X2758Y545D02*
X2777Y545D01*
X1703Y544D02*
X1722Y544D01*
X1757Y544D02*
X1776Y544D01*
X2705Y544D02*
X2723Y544D01*
X2759Y544D02*
X2777Y544D01*
X1703Y543D02*
X1722Y543D01*
X1757Y543D02*
X1776Y543D01*
X2704Y543D02*
X2723Y543D01*
X2759Y543D02*
X2777Y543D01*
X1703Y542D02*
X1722Y542D01*
X1757Y542D02*
X1776Y542D01*
X2704Y542D02*
X2723Y542D01*
X2759Y542D02*
X2777Y542D01*
X1703Y541D02*
X1721Y541D01*
X1757Y541D02*
X1776Y541D01*
X2704Y541D02*
X2723Y541D01*
X2759Y541D02*
X2777Y541D01*
X1703Y540D02*
X1721Y540D01*
X1757Y540D02*
X1776Y540D01*
X2704Y540D02*
X2723Y540D01*
X2759Y540D02*
X2777Y540D01*
X1703Y539D02*
X1721Y539D01*
X1757Y539D02*
X1776Y539D01*
X2704Y539D02*
X2723Y539D01*
X2759Y539D02*
X2777Y539D01*
X1703Y538D02*
X1722Y538D01*
X1757Y538D02*
X1776Y538D01*
X2704Y538D02*
X2723Y538D01*
X2759Y538D02*
X2777Y538D01*
X1703Y537D02*
X1722Y537D01*
X1757Y537D02*
X1776Y537D01*
X2704Y537D02*
X2723Y537D01*
X2759Y537D02*
X2777Y537D01*
X1703Y536D02*
X1722Y536D01*
X1757Y536D02*
X1776Y536D01*
X2705Y536D02*
X2723Y536D01*
X2758Y536D02*
X2777Y536D01*
X1703Y535D02*
X1722Y535D01*
X1757Y535D02*
X1776Y535D01*
X2705Y535D02*
X2723Y535D01*
X2758Y535D02*
X2777Y535D01*
X1703Y534D02*
X1722Y534D01*
X1757Y534D02*
X1775Y534D01*
X2705Y534D02*
X2724Y534D01*
X2758Y534D02*
X2777Y534D01*
X1704Y533D02*
X1723Y533D01*
X1756Y533D02*
X1775Y533D01*
X2705Y533D02*
X2724Y533D01*
X2758Y533D02*
X2777Y533D01*
X1704Y532D02*
X1723Y532D01*
X1756Y532D02*
X1775Y532D01*
X2705Y532D02*
X2725Y532D01*
X2757Y532D02*
X2776Y532D01*
X1704Y531D02*
X1724Y531D01*
X1755Y531D02*
X1775Y531D01*
X2706Y531D02*
X2725Y531D01*
X2756Y531D02*
X2776Y531D01*
X1704Y530D02*
X1725Y530D01*
X1754Y530D02*
X1774Y530D01*
X2706Y530D02*
X2726Y530D01*
X2756Y530D02*
X2776Y530D01*
X1705Y529D02*
X1725Y529D01*
X1753Y529D02*
X1774Y529D01*
X2706Y529D02*
X2727Y529D01*
X2755Y529D02*
X2776Y529D01*
X1705Y528D02*
X1726Y528D01*
X1753Y528D02*
X1774Y528D01*
X2707Y528D02*
X2728Y528D01*
X2754Y528D02*
X2775Y528D01*
X1705Y527D02*
X1727Y527D01*
X1752Y527D02*
X1773Y527D01*
X2707Y527D02*
X2729Y527D01*
X2753Y527D02*
X2775Y527D01*
X1706Y526D02*
X1728Y526D01*
X1750Y526D02*
X1773Y526D01*
X2707Y526D02*
X2730Y526D01*
X2752Y526D02*
X2774Y526D01*
X1706Y525D02*
X1730Y525D01*
X1749Y525D02*
X1773Y525D01*
X2708Y525D02*
X2731Y525D01*
X2750Y525D02*
X2774Y525D01*
X1707Y524D02*
X1732Y524D01*
X1747Y524D02*
X1772Y524D01*
X2708Y524D02*
X2733Y524D01*
X2749Y524D02*
X2774Y524D01*
X1707Y523D02*
X1735Y523D01*
X1744Y523D02*
X1772Y523D01*
X2709Y523D02*
X2736Y523D01*
X2746Y523D02*
X2773Y523D01*
X1708Y522D02*
X1771Y522D01*
X2709Y522D02*
X2773Y522D01*
X1708Y521D02*
X1771Y521D01*
X2710Y521D02*
X2772Y521D01*
X1709Y520D02*
X1770Y520D01*
X2710Y520D02*
X2771Y520D01*
X1710Y519D02*
X1769Y519D01*
X2711Y519D02*
X2771Y519D01*
X1710Y518D02*
X1769Y518D01*
X2712Y518D02*
X2770Y518D01*
X1711Y517D02*
X1768Y517D01*
X2712Y517D02*
X2769Y517D01*
X1712Y516D02*
X1767Y516D01*
X2713Y516D02*
X2768Y516D01*
X1713Y515D02*
X1766Y515D01*
X2714Y515D02*
X2768Y515D01*
X1714Y514D02*
X1765Y514D01*
X2715Y514D02*
X2767Y514D01*
X1715Y513D02*
X1764Y513D01*
X2716Y513D02*
X2766Y513D01*
X1716Y512D02*
X1763Y512D01*
X2717Y512D02*
X2764Y512D01*
X1717Y511D02*
X1762Y511D01*
X2718Y511D02*
X2763Y511D01*
X1718Y510D02*
X1760Y510D01*
X2720Y510D02*
X2762Y510D01*
X1720Y509D02*
X1759Y509D01*
X2721Y509D02*
X2760Y509D01*
X1722Y508D02*
X1757Y508D01*
X2723Y508D02*
X2759Y508D01*
X1724Y507D02*
X1755Y507D01*
X2725Y507D02*
X2757Y507D01*
X1726Y506D02*
X1753Y506D01*
X2727Y506D02*
X2755Y506D01*
X1728Y505D02*
X1750Y505D01*
X2730Y505D02*
X2752Y505D01*
X1732Y504D02*
X1747Y504D01*
X2733Y504D02*
X2748Y504D01*
X2741Y503D02*
X2741Y503D01*
X1732Y476D02*
X1747Y476D01*
X2734Y476D02*
X2748Y476D01*
X1729Y475D02*
X1750Y475D01*
X2730Y475D02*
X2752Y475D01*
X1726Y474D02*
X1753Y474D01*
X2727Y474D02*
X2754Y474D01*
X1724Y473D02*
X1755Y473D01*
X2725Y473D02*
X2757Y473D01*
X1722Y472D02*
X1757Y472D01*
X2723Y472D02*
X2759Y472D01*
X1720Y471D02*
X1759Y471D01*
X2721Y471D02*
X2760Y471D01*
X1719Y470D02*
X1760Y470D01*
X2720Y470D02*
X2762Y470D01*
X1717Y469D02*
X1762Y469D01*
X2719Y469D02*
X2763Y469D01*
X1716Y468D02*
X1763Y468D01*
X2717Y468D02*
X2764Y468D01*
X1715Y467D02*
X1764Y467D01*
X2716Y467D02*
X2766Y467D01*
X1714Y466D02*
X1765Y466D01*
X2715Y466D02*
X2767Y466D01*
X1713Y465D02*
X1766Y465D01*
X2714Y465D02*
X2768Y465D01*
X1712Y464D02*
X1767Y464D01*
X2713Y464D02*
X2768Y464D01*
X1711Y463D02*
X1768Y463D01*
X2712Y463D02*
X2769Y463D01*
X1710Y462D02*
X1769Y462D01*
X2712Y462D02*
X2770Y462D01*
X1710Y461D02*
X1769Y461D01*
X2711Y461D02*
X2771Y461D01*
X1709Y460D02*
X1770Y460D01*
X2710Y460D02*
X2771Y460D01*
X1708Y459D02*
X1770Y459D01*
X2710Y459D02*
X2772Y459D01*
X1708Y458D02*
X1771Y458D01*
X2709Y458D02*
X2772Y458D01*
X1707Y457D02*
X1735Y457D01*
X1744Y457D02*
X1772Y457D01*
X2709Y457D02*
X2736Y457D01*
X2746Y457D02*
X2773Y457D01*
X1707Y456D02*
X1732Y456D01*
X1747Y456D02*
X1772Y456D01*
X2708Y456D02*
X2733Y456D01*
X2749Y456D02*
X2773Y456D01*
X1706Y455D02*
X1730Y455D01*
X1749Y455D02*
X1773Y455D01*
X2708Y455D02*
X2731Y455D01*
X2750Y455D02*
X2774Y455D01*
X1706Y454D02*
X1729Y454D01*
X1750Y454D02*
X1773Y454D01*
X2707Y454D02*
X2730Y454D01*
X2752Y454D02*
X2774Y454D01*
X1705Y453D02*
X1727Y453D01*
X1752Y453D02*
X1773Y453D01*
X2707Y453D02*
X2729Y453D01*
X2753Y453D02*
X2775Y453D01*
X1705Y452D02*
X1726Y452D01*
X1753Y452D02*
X1774Y452D01*
X2707Y452D02*
X2728Y452D01*
X2754Y452D02*
X2775Y452D01*
X1705Y451D02*
X1725Y451D01*
X1753Y451D02*
X1774Y451D01*
X2706Y451D02*
X2727Y451D01*
X2755Y451D02*
X2776Y451D01*
X1704Y450D02*
X1725Y450D01*
X1754Y450D02*
X1774Y450D01*
X2706Y450D02*
X2726Y450D01*
X2756Y450D02*
X2776Y450D01*
X1704Y449D02*
X1724Y449D01*
X1755Y449D02*
X1775Y449D01*
X2706Y449D02*
X2725Y449D01*
X2756Y449D02*
X2776Y449D01*
X1704Y448D02*
X1723Y448D01*
X1756Y448D02*
X1775Y448D01*
X2705Y448D02*
X2725Y448D01*
X2757Y448D02*
X2776Y448D01*
X1704Y447D02*
X1723Y447D01*
X1756Y447D02*
X1775Y447D01*
X2705Y447D02*
X2724Y447D01*
X2758Y447D02*
X2777Y447D01*
X1704Y446D02*
X1722Y446D01*
X1756Y446D02*
X1775Y446D01*
X2705Y446D02*
X2724Y446D01*
X2758Y446D02*
X2777Y446D01*
X1703Y445D02*
X1722Y445D01*
X1757Y445D02*
X1776Y445D01*
X2705Y445D02*
X2724Y445D01*
X2758Y445D02*
X2777Y445D01*
X1703Y444D02*
X1722Y444D01*
X1757Y444D02*
X1776Y444D01*
X2705Y444D02*
X2723Y444D01*
X2758Y444D02*
X2777Y444D01*
X1703Y443D02*
X1722Y443D01*
X1757Y443D02*
X1776Y443D01*
X2704Y443D02*
X2723Y443D01*
X2759Y443D02*
X2777Y443D01*
X1703Y442D02*
X1722Y442D01*
X1757Y442D02*
X1776Y442D01*
X2704Y442D02*
X2723Y442D01*
X2759Y442D02*
X2777Y442D01*
X1703Y441D02*
X1721Y441D01*
X1757Y441D02*
X1776Y441D01*
X2704Y441D02*
X2723Y441D01*
X2759Y441D02*
X2777Y441D01*
X1703Y440D02*
X1721Y440D01*
X1757Y440D02*
X1776Y440D01*
X2704Y440D02*
X2723Y440D01*
X2759Y440D02*
X2777Y440D01*
X1703Y439D02*
X1721Y439D01*
X1757Y439D02*
X1776Y439D01*
X2704Y439D02*
X2723Y439D01*
X2759Y439D02*
X2777Y439D01*
X1703Y438D02*
X1722Y438D01*
X1757Y438D02*
X1776Y438D01*
X2704Y438D02*
X2723Y438D01*
X2759Y438D02*
X2777Y438D01*
X1703Y437D02*
X1722Y437D01*
X1757Y437D02*
X1776Y437D01*
X2704Y437D02*
X2723Y437D01*
X2759Y437D02*
X2777Y437D01*
X1703Y436D02*
X1722Y436D01*
X1757Y436D02*
X1776Y436D01*
X2705Y436D02*
X2723Y436D01*
X2759Y436D02*
X2777Y436D01*
X1703Y435D02*
X1722Y435D01*
X1757Y435D02*
X1776Y435D01*
X2705Y435D02*
X2723Y435D01*
X2758Y435D02*
X2777Y435D01*
X1703Y434D02*
X1722Y434D01*
X1757Y434D02*
X1775Y434D01*
X2705Y434D02*
X2724Y434D01*
X2758Y434D02*
X2777Y434D01*
X1704Y433D02*
X1723Y433D01*
X1756Y433D02*
X1775Y433D01*
X2705Y433D02*
X2724Y433D01*
X2758Y433D02*
X2777Y433D01*
X1704Y432D02*
X1723Y432D01*
X1756Y432D02*
X1775Y432D01*
X2705Y432D02*
X2725Y432D01*
X2757Y432D02*
X2776Y432D01*
X1704Y431D02*
X1724Y431D01*
X1755Y431D02*
X1775Y431D01*
X2706Y431D02*
X2725Y431D01*
X2757Y431D02*
X2776Y431D01*
X1704Y430D02*
X1724Y430D01*
X1754Y430D02*
X1774Y430D01*
X2706Y430D02*
X2726Y430D01*
X2756Y430D02*
X2776Y430D01*
X1705Y429D02*
X1725Y429D01*
X1754Y429D02*
X1774Y429D01*
X2706Y429D02*
X2727Y429D01*
X2755Y429D02*
X2776Y429D01*
X1705Y428D02*
X1726Y428D01*
X1753Y428D02*
X1774Y428D01*
X2706Y428D02*
X2728Y428D01*
X2754Y428D02*
X2775Y428D01*
X1705Y427D02*
X1727Y427D01*
X1752Y427D02*
X1773Y427D01*
X2707Y427D02*
X2729Y427D01*
X2753Y427D02*
X2775Y427D01*
X1706Y426D02*
X1728Y426D01*
X1751Y426D02*
X1773Y426D01*
X2707Y426D02*
X2730Y426D01*
X2752Y426D02*
X2774Y426D01*
X1706Y425D02*
X1730Y425D01*
X1749Y425D02*
X1773Y425D01*
X2708Y425D02*
X2731Y425D01*
X2751Y425D02*
X2774Y425D01*
X1707Y424D02*
X1731Y424D01*
X1748Y424D02*
X1772Y424D01*
X2708Y424D02*
X2733Y424D01*
X2749Y424D02*
X2774Y424D01*
X1707Y423D02*
X1734Y423D01*
X1745Y423D02*
X1772Y423D01*
X2709Y423D02*
X2736Y423D01*
X2746Y423D02*
X2773Y423D01*
X1708Y422D02*
X1771Y422D01*
X2709Y422D02*
X2773Y422D01*
X1708Y421D02*
X1771Y421D01*
X2710Y421D02*
X2772Y421D01*
X1709Y420D02*
X1770Y420D01*
X2710Y420D02*
X2771Y420D01*
X1709Y419D02*
X1769Y419D01*
X2711Y419D02*
X2771Y419D01*
X1710Y418D02*
X1769Y418D01*
X2712Y418D02*
X2770Y418D01*
X1711Y417D02*
X1768Y417D01*
X2712Y417D02*
X2769Y417D01*
X1712Y416D02*
X1767Y416D01*
X2713Y416D02*
X2769Y416D01*
X1713Y415D02*
X1766Y415D01*
X2714Y415D02*
X2768Y415D01*
X1713Y414D02*
X1765Y414D01*
X2715Y414D02*
X2767Y414D01*
X1715Y413D02*
X1764Y413D01*
X2716Y413D02*
X2766Y413D01*
X1716Y412D02*
X1763Y412D01*
X2717Y412D02*
X2765Y412D01*
X1717Y411D02*
X1762Y411D01*
X2718Y411D02*
X2763Y411D01*
X1718Y410D02*
X1761Y410D01*
X2720Y410D02*
X2762Y410D01*
X1720Y409D02*
X1759Y409D01*
X2721Y409D02*
X2761Y409D01*
X1721Y408D02*
X1757Y408D01*
X2723Y408D02*
X2759Y408D01*
X1723Y407D02*
X1755Y407D01*
X2725Y407D02*
X2757Y407D01*
X1725Y406D02*
X1753Y406D01*
X2727Y406D02*
X2755Y406D01*
X1728Y405D02*
X1751Y405D01*
X2730Y405D02*
X2752Y405D01*
X1731Y404D02*
X1747Y404D01*
X2733Y404D02*
X2749Y404D01*
X1737Y403D02*
X1741Y403D01*
X2739Y403D02*
X2743Y403D01*
D02*
G04 End of Copper1*
M02*